<?xml version="1.0" encoding="utf-8"?>
<!-- Generator: Adobe Illustrator 23.0.6, SVG Export Plug-In . SVG Version: 6.00 Build 0)  -->
<svg version="1.1" id="Layer_1" xmlns="http://www.w3.org/2000/svg" xmlns:xlink="http://www.w3.org/1999/xlink" x="0px" y="0px"
	 viewBox="0 0 60 60" style="enable-background:new 0 0 60 60;" xml:space="preserve">
<style type="text/css">
	.st0{fill:#FFFFFF;}
</style>
<path class="st0" d="M52.6,23.1V12.5c-2.7-0.1-5.3-0.5-7.7-1.3S40.1,9.4,37.8,8c-1.3-0.8-2.4-1.5-3.7-1.7c-1.3-0.3-2.5-0.5-4-0.5
	s-2.8,0.1-4,0.5c-1.2,0.4-2.4,0.9-3.7,1.7c-2.3,1.4-4.7,2.5-7.2,3.3c-2.4,0.7-5,1.2-7.7,1.3v10.5c0,2.3,0.3,4.5,0.8,6.5
	c0.5,2,1.5,4.1,2.4,6c0.9,1.9,2.3,3.7,3.7,5.4c1.5,1.7,2.9,3.3,4.7,4.8c1.7,1.6,3.4,2.8,5.3,4.1c1.9,1.3,3.7,2.4,5.6,3.6
	c1.9-0.9,3.7-2.3,5.6-3.6c1.9-1.3,3.6-2.7,5.3-4.1c1.7-1.5,3.3-3.2,4.7-4.8c1.5-1.7,2.7-3.6,3.7-5.4c0.9-1.9,1.9-4,2.4-6
	S52.6,25.3,52.6,23.1z"/>
<g>
	<path d="M54.3,10.6v13c0,2.6-0.3,5-0.9,7.2c-0.7,2.2-1.5,4.3-2.7,6.3s-2.4,3.9-4,5.7s-3.2,3.4-5,5s-3.6,3-5.7,4.3
		c-2,1.4-3.9,2.6-5.9,3.8c-2-1.2-4.1-2.4-5.9-3.8c-1.9-1.3-3.9-2.8-5.7-4.3c-1.8-1.5-3.5-3.2-5-5s-2.8-3.6-4-5.7
		c-1.2-2-2-4.2-2.7-6.3s-0.9-4.6-0.9-7.2v-13c1.3,0,2.7,0,4-0.1c1.4-0.1,2.6-0.3,3.8-0.5c1.2-0.3,2.4-0.7,3.6-1.1
		c1.2-0.4,2.4-1.1,3.6-1.9c1.5-0.9,2.8-1.6,4.3-2c1.5-0.4,3-0.7,4.7-0.7c0.8,0,1.6,0,2.4,0.1c0.8,0.1,1.5,0.3,2.3,0.5
		c0.8,0.3,1.5,0.5,2.2,0.8s1.5,0.8,2.2,1.2c1.2,0.8,2.4,1.3,3.6,1.9c1.2,0.5,2.4,0.8,3.6,1.1c1.2,0.3,2.6,0.4,3.8,0.5
		C51.2,10.6,53,10.6,54.3,10.6z M51.5,23.4v-10c-2.6-0.1-5-0.5-7.3-1.2s-4.6-1.8-6.8-3.1c-1.2-0.8-2.3-1.4-3.5-1.6
		C32.7,7.2,31.5,7,30.1,7s-2.7,0.1-3.8,0.5S24,8.4,22.8,9.1c-2.2,1.3-4.5,2.4-6.8,3.1c-2.3,0.7-4.7,1.1-7.3,1.2v10
		c0,2.2,0.3,4.3,0.8,6.2c0.5,1.9,1.4,3.9,2.3,5.7c0.9,1.8,2.2,3.5,3.5,5.1c1.4,1.6,2.8,3.1,4.5,4.6c1.6,1.5,3.2,2.7,5,3.9
		s3.5,2.3,5.3,3.4c1.8-0.9,3.5-2.2,5.3-3.4s3.4-2.6,5-3.9c1.6-1.4,3.1-3,4.5-4.6s2.6-3.4,3.5-5.1c0.9-1.8,1.8-3.8,2.3-5.7
		S51.5,25.5,51.5,23.4z"/>
</g>
<path d="M36.4,24.9v-2.7c0-3.4-2.8-6.2-6.2-6.2S24,18.8,24,22.2v2.7h-2.6v12.6H39V24.9H36.4z M26.5,22.2c0-2.1,1.7-3.7,3.7-3.7
	s3.7,1.7,3.7,3.7v2.7h-7.5L26.5,22.2L26.5,22.2z"/>
</svg>
