<?xml version="1.0" encoding="utf-8"?>
<!-- Generator: Adobe Illustrator 23.0.6, SVG Export Plug-In . SVG Version: 6.00 Build 0)  -->
<svg version="1.1" id="Layer_1" xmlns="http://www.w3.org/2000/svg" xmlns:xlink="http://www.w3.org/1999/xlink" x="0px" y="0px"
	 viewBox="0 0 400 140" style="enable-background:new 0 0 400 140;" xml:space="preserve">
<style type="text/css">
	.st0{fill:#2F2F2F;}
	.st1{fill:#FFFFFF;}
	.st2{opacity:0.5;}
	.st3{fill:url(#SVGID_1_);}
	.st4{fill:#5DC21E;}
</style>
<rect class="st0" width="400" height="140"/>
<g>
	<path class="st1" d="M383,21.5v9.6c0,1.9-0.2,3.7-0.7,5.3s-1.1,3.2-2,4.7s-1.8,2.9-3,4.2s-2.4,2.5-3.7,3.7s-2.7,2.2-4.2,3.2
		s-2.9,1.9-4.4,2.8c-1.5-0.9-3-1.8-4.4-2.8s-2.9-2.1-4.2-3.2s-2.6-2.4-3.7-3.7s-2.1-2.7-3-4.2s-1.5-3.1-2-4.7S347,33,347,31.1v-9.6
		c1,0,2,0,3-0.1s1.9-0.2,2.8-0.4s1.8-0.5,2.7-0.8s1.8-0.8,2.7-1.4c1.1-0.7,2.1-1.2,3.2-1.5s2.2-0.5,3.5-0.5c0.6,0,1.2,0,1.8,0.1
		s1.1,0.2,1.7,0.4s1.1,0.4,1.6,0.6s1.1,0.6,1.6,0.9c0.9,0.6,1.8,1,2.7,1.4s1.8,0.6,2.7,0.8s1.9,0.3,2.8,0.4S381.9,21.5,383,21.5z
		 M380.9,31v-7.4c-1.9-0.1-3.7-0.4-5.4-0.9s-3.4-1.3-5-2.3c-0.9-0.6-1.7-1-2.6-1.2s-1.8-0.4-2.8-0.4s-2,0.1-2.8,0.4
		s-1.7,0.7-2.6,1.2c-1.6,1-3.3,1.8-5,2.3s-3.5,0.8-5.4,0.9V31c0,1.6,0.2,3.2,0.6,4.6s1,2.9,1.7,4.2s1.6,2.6,2.6,3.8s2.1,2.3,3.3,3.4
		s2.4,2,3.7,2.9s2.6,1.7,3.9,2.5c1.3-0.7,2.6-1.6,3.9-2.5s2.5-1.9,3.7-2.9s2.3-2.2,3.3-3.4s1.9-2.5,2.6-3.8s1.3-2.8,1.7-4.2
		S380.9,32.6,380.9,31z M365,25.6c0.6,0,1.3,0.1,1.8,0.4s1.1,0.6,1.5,1s0.8,0.9,1,1.5s0.4,1.2,0.4,1.8v1.9h1.9v9.4h-13.1v-9.4h1.9
		v-2c0-0.6,0.1-1.3,0.4-1.8s0.6-1.1,1-1.5s0.9-0.8,1.5-1S364.4,25.6,365,25.6z M362.2,32.1h5.6v-1.9c0-0.4-0.1-0.8-0.2-1.1
		s-0.3-0.6-0.6-0.9s-0.6-0.5-0.9-0.6s-0.7-0.2-1.1-0.2s-0.8,0.1-1.1,0.2s-0.6,0.3-0.9,0.6s-0.5,0.6-0.6,0.9s-0.2,0.7-0.2,1.1
		L362.2,32.1L362.2,32.1z"/>
</g>
<g class="st2">
	
		<linearGradient id="SVGID_1_" gradientUnits="userSpaceOnUse" x1="282.6861" y1="80" x2="282.6861" y2="188.9" gradientTransform="matrix(1 0 0 -1 0 220)">
		<stop  offset="0" style="stop-color:#000000;stop-opacity:0"/>
		<stop  offset="1" style="stop-color:#000000"/>
	</linearGradient>
	<path class="st3" d="M399.8,140l0.2-6.3L236.3,39.1c0,0-5.5,1.5-13.1,0.5c-7.7-1-16.4-8.5-23.1-8.5s-15.6,4.8-20.2,7.7
		s-14.3,2.8-14.3,2.8s-2.3,24.3,5.5,37.1c7.8,12.9,28.2,28.3,28.2,28.3l56.8,33H399.8z"/>
</g>
<g>
	<g>
		<path class="st4" d="M199.9,29.5c1.3,0,2.5,0.1,3.7,0.2c1.2,0.2,2.3,0.4,3.4,0.8c1.1,0.3,2.2,0.8,3.2,1.3c1.1,0.5,2.1,1.1,3.2,1.8
			c1.8,1.2,3.6,2.1,5.5,2.8c1.8,0.7,3.7,1.3,5.5,1.7c1.9,0.4,3.8,0.7,5.8,0.8c2,0.2,4,0.2,6.1,0.2v19.4c0,3.7-0.5,7.2-1.4,10.5
			s-2.2,6.5-3.8,9.4c-1.6,3-3.6,5.8-5.8,8.4s-4.6,5.1-7.2,7.4c-2.6,2.3-5.4,4.5-8.2,6.5c-2.9,2-5.8,3.8-8.7,5.5l-1.3,0.8l-1.2-0.7
			c-2.9-1.7-5.8-3.5-8.7-5.5s-5.6-4.2-8.2-6.5c-2.6-2.3-5-4.8-7.2-7.4s-4.2-5.4-5.8-8.4s-2.9-6.1-3.8-9.4c-0.9-3.3-1.4-6.8-1.4-10.5
			V39.2c2.1,0,4.1-0.1,6.1-0.2c2-0.2,3.9-0.4,5.8-0.8c1.9-0.4,3.7-1,5.5-1.7s3.6-1.7,5.5-2.8c2.1-1.4,4.3-2.4,6.4-3.1
			C195.1,29.8,197.3,29.5,199.9,29.5z M232.1,43.5c-3.8-0.2-7.5-0.8-11-1.9c-3.5-1-6.9-2.6-10.1-4.7c-1.8-1.1-3.5-2-5.2-2.5
			s-3.6-0.8-5.7-0.8s-4,0.3-5.7,0.8s-3.5,1.4-5.2,2.5c-3.2,2.1-6.6,3.6-10.1,4.7c-3.5,1-7.2,1.6-11,1.9v14.9c0,3.3,0.4,6.4,1.3,9.4
			c0.9,3,2,5.9,3.5,8.6s3.3,5.3,5.3,7.7c2.1,2.4,4.3,4.7,6.6,6.9c2.4,2.1,4.9,4.1,7.5,5.9s5.2,3.5,7.9,5c2.6-1.5,5.2-3.2,7.9-5
			c2.6-1.8,5.1-3.8,7.5-5.9s4.6-4.4,6.6-6.9c2.1-2.4,3.8-5,5.3-7.7s2.7-5.6,3.5-8.6c0.9-3,1.3-6.2,1.3-9.4"/>
	</g>
	<g>
		<path class="st1" d="M195.1,57.8c-0.5,0.6-1.1,1.4-1.8,2.3s-1.4,1.9-2.1,2.9c-0.7,1.1-1.4,2.2-2.1,3.3c-0.7,1.1-1.3,2.3-1.8,3.4
			s-1,2.2-1.3,3.2s-0.5,2-0.5,2.8c0,0.5,0.1,0.9,0.2,1.3v0.1h-0.1c-0.6-0.8-1.1-1.6-1.6-2.5s-0.9-1.8-1.2-2.8
			c-0.3-0.9-0.6-1.9-0.7-2.9c-0.2-1-0.2-2-0.2-3c0-1.2,0.1-2.4,0.4-3.6c0.2-1.2,0.6-2.4,1.1-3.5s1-2.2,1.7-3.2s1.5-1.9,2.3-2.8
			c0,0,0.1-0.1,0.3-0.1c0.1,0,0.2,0,0.3,0c0.4,0,0.8,0.1,1.2,0.3s0.9,0.4,1.4,0.7s0.9,0.6,1.4,1s0.9,0.7,1.3,1.1
			c0.4,0.4,0.8,0.7,1.1,1s0.6,0.6,0.9,0.8v0.2H195.1z M200.1,62.3c0.4,0.3,1,0.8,1.5,1.3s1.2,1.1,1.9,1.7s1.4,1.3,2.1,2
			c0.7,0.7,1.4,1.5,2.1,2.3c0.7,0.8,1.3,1.6,1.9,2.3c0.6,0.8,1.1,1.6,1.6,2.3s0.8,1.5,1.1,2.1c0.3,0.7,0.4,1.3,0.4,1.9
			c0,0.3,0,0.5-0.1,0.8c-0.1,0.2-0.2,0.5-0.4,0.7c-0.3,0.3-0.5,0.5-0.9,0.7c-0.3,0.2-0.6,0.5-0.9,0.7c-1.5,1-3.2,1.8-4.9,2.3
			s-3.5,0.8-5.4,0.8c-1.8,0-3.6-0.3-5.4-0.8s-3.4-1.3-4.9-2.3c-0.3-0.2-0.6-0.4-0.9-0.7c-0.3-0.2-0.6-0.5-0.9-0.7
			c-0.2-0.2-0.3-0.4-0.4-0.7c-0.1-0.2-0.1-0.5-0.1-0.8c0-0.6,0.1-1.2,0.4-1.9s0.6-1.4,1.1-2.1s1-1.5,1.6-2.3s1.2-1.6,1.9-2.3
			c0.7-0.8,1.4-1.5,2.1-2.3c0.7-0.7,1.4-1.4,2.1-2c0.7-0.6,1.3-1.2,1.9-1.7C199.3,63.1,199.8,62.7,200.1,62.3L200.1,62.3L200.1,62.3
			z M190.6,50.4L190.6,50.4c1.5-1,3.1-1.7,4.6-2.1s3.2-0.7,5-0.7c1.7,0,3.4,0.2,5,0.7c1.6,0.4,3.1,1.1,4.6,2v0.1h-0.1
			c-0.4-0.1-0.8-0.1-1.2-0.1c-0.7,0-1.4,0.1-2.1,0.2c-0.7,0.2-1.4,0.4-2.2,0.6c-0.7,0.3-1.4,0.6-2.1,0.9s-1.3,0.7-1.9,1l0,0l0,0
			c-0.6-0.3-1.2-0.6-1.9-1s-1.4-0.6-2.1-0.9c-0.7-0.3-1.4-0.5-2.2-0.6s-1.4-0.3-2.1-0.3c-0.2,0-0.4,0-0.6,0
			C191.1,50.3,190.8,50.4,190.6,50.4L190.6,50.4z M212.4,52.8c0.1,0,0.2,0,0.3,0s0.2,0.1,0.3,0.1c0.9,0.8,1.6,1.7,2.3,2.8
			c0.7,1,1.3,2.1,1.7,3.2c0.5,1.1,0.8,2.3,1.1,3.5s0.4,2.4,0.4,3.6c0,1-0.1,2-0.2,3c-0.2,1-0.4,2-0.7,2.9s-0.7,1.9-1.2,2.8
			s-1,1.7-1.6,2.5h-0.1v-0.1c0.1-0.4,0.2-0.8,0.2-1.3c0-0.8-0.2-1.8-0.5-2.8s-0.8-2.1-1.3-3.2s-1.1-2.2-1.8-3.4
			c-0.7-1.1-1.4-2.2-2.1-3.3c-0.7-1.1-1.4-2-2.1-2.9c-0.7-0.9-1.3-1.7-1.8-2.3v-0.1l0,0l0,0c0.2-0.2,0.5-0.5,0.9-0.8s0.7-0.7,1.2-1
			c0.4-0.4,0.9-0.7,1.3-1.1c0.5-0.4,0.9-0.7,1.4-1s0.9-0.5,1.3-0.7C211.6,52.8,212.1,52.8,212.4,52.8z"/>
	</g>
</g>
</svg>
