<?xml version="1.0" encoding="utf-8"?>
<!-- Generator: Adobe Illustrator 24.0.0, SVG Export Plug-In . SVG Version: 6.00 Build 0)  -->
<svg version="1.1" id="Layer_1" xmlns="http://www.w3.org/2000/svg" xmlns:xlink="http://www.w3.org/1999/xlink" x="0px" y="0px"
	 viewBox="0 0 400 140" style="enable-background:new 0 0 400 140;" xml:space="preserve">
<style type="text/css">
	.st0{fill:#2F2F2F;}
	.st1{display:none;}
	.st2{display:inline;}
	.st3{fill:#5DC21E;}
	.st4{fill:#FFFFFF;}
	.st5{opacity:0.5;}
	.st6{fill:url(#SVGID_1_);}
	.st7{fill:none;}
</style>
<g id="bg">
	<rect class="st0" width="400" height="140"/>
</g>
<g class="st1">
	<g class="st2">
		<path class="st3" d="M245.2,81c-2.5-3.5-7.5-3.4-8.5-3.3h-32.5L189.9,69c0.1-0.8,0.3-1.6,0.6-2.4c0.4-1.2,0.9-2.4,1.4-3.6
			c1-2,1.7-4,2.2-6s0.7-4.2,0.7-6.4c0-0.9-0.2-1.8-0.5-2.6s-0.8-1.5-1.4-2.1c-0.6-0.6-1.3-1.1-2.1-1.4s-1.7-0.5-2.6-0.5
			c-1,0-1.8,0.2-2.5,0.6c-0.7,0.4-1.4,0.9-2.1,1.6l-23.2,25.7c-1.3,1.3-2.7,2.2-4.3,2.9s-2.5,1-4.3,1h-6.5v26.4l42.4,0.1
			c8.2,0,19.7-2.5,20.6-2.7c5.6-1.1,33.3-6.4,35.6-7.1c1.4-0.5,2.5-1.6,3-3.1C247.7,86.9,247,83.5,245.2,81z M242,87.5
			c-3,0.8-22.6,4.6-34.7,6.9h-0.1c-0.1,0-11.7,2.5-19.5,2.5h-37.1V81.1h1.2c2.5,0,4.1-0.5,6.3-1.4c1.1-0.5,2.2-1,3.2-1.7
			s2-1.4,2.8-2.3l23.2-25.9c0.1-0.1,0.2-0.2,0.4-0.4c0.1-0.1,0.3-0.2,0.4-0.2c0.4,0,0.7,0.1,1,0.4c0.2,0.2,0.4,0.6,0.4,1
			c0,1.8-0.2,3.5-0.6,5.2c-0.4,1.7-1,3.3-1.8,4.9c-0.6,1.3-1.1,2.6-1.5,3.8c-0.4,1.2-0.7,2.4-0.9,3.6s-0.3,2.4-0.4,3.7
			s-0.1,2.6-0.1,4.1l2.6-2.6l15.7,9.7h34.2h0.2c0.8-0.1,3.2,0.1,4,1.1C241.9,85.3,242.1,86.9,242,87.5z"/>
		<g>
			<path class="st4" d="M255.1,60c-0.1-0.8-0.2-1.6-0.3-2.3c-0.1-0.8-0.3-1.7-0.6-2.7s-0.6-2-0.9-3c-0.4-1-0.7-2.1-1.2-3.2
				c-0.4-1.1-0.8-2.1-1.3-3.1c-0.4-1-0.9-2-1.3-2.9c-0.4-0.9-0.8-1.8-1.2-2.5c-0.2-0.4-0.4-0.7-0.7-1s-0.5-0.6-0.8-0.9
				c0-0.2,0-0.4,0-0.7c0-0.2,0-0.4-0.1-0.6c0-0.2-0.1-0.4-0.2-0.5c-0.1-0.2-0.3-0.3-0.5-0.5c-0.2-0.1-0.5-0.3-0.9-0.4
				c-0.4-0.1-0.9-0.3-1.4-0.4c-0.5-0.1-1-0.3-1.4-0.4c-0.5-0.1-0.8-0.2-1.1-0.3c-0.7-0.1-1.3-0.2-2-0.3s-1.4-0.1-2-0.1
				c-0.3,0-0.6,0-0.9,0c-0.3,0-0.6,0.1-0.9,0.2l0,0c-0.4,0.2-0.8,0.4-1.2,0.7c-0.4,0.2-0.8,0.5-1.2,0.7h-4.8h-0.8h-4
				c-0.4-0.2-0.8-0.4-1.2-0.7c-0.4-0.2-0.8-0.5-1.2-0.7l0,0c-0.2-0.1-0.5-0.2-0.9-0.2c-0.3,0-0.6,0-0.9,0c-0.7,0-1.3,0-2,0.1
				s-1.4,0.2-2,0.3c-0.2,0.1-0.6,0.1-1.1,0.3c-0.5,0.1-0.9,0.2-1.4,0.4s-0.9,0.3-1.4,0.4c-0.4,0.2-0.7,0.3-0.9,0.4s-0.4,0.3-0.5,0.5
				s-0.2,0.3-0.2,0.5s-0.1,0.4-0.1,0.6c0,0.2,0,0.4,0,0.7c-0.3,0.3-0.6,0.6-0.8,0.9c-0.3,0.3-0.5,0.6-0.7,1
				c-0.4,0.8-0.8,1.6-1.2,2.5s-0.9,1.9-1.3,2.9c-0.4,1-0.9,2.1-1.3,3.1c-0.4,1.1-0.8,2.1-1.2,3.2c-0.4,1-0.7,2-0.9,3
				c-0.3,1-0.5,1.8-0.6,2.7c-0.1,0.8-0.3,1.6-0.3,2.3c-0.1,0.8-0.1,1.6-0.1,2.4c0,1,0.1,2.1,0.3,3c0.2,1,0.6,1.9,1.2,2.8
				c0.3,0.4,0.6,0.8,1,1.2s0.8,0.7,1.3,1s1,0.5,1.5,0.7s1,0.3,1.5,0.3s1.2-0.2,1.8-0.7c0.7-0.5,1.4-1,2-1.7c0.7-0.7,1.3-1.3,1.9-2
				c0.6-0.7,1.1-1.2,1.4-1.6c0.4-0.4,0.8-0.9,1.2-1.4s0.9-1,1.4-1.3l0.6-0.4c0.4-0.2,0.7-0.4,1.1-0.6c0.4-0.1,0.8-0.2,1.2-0.3
				s0.8-0.1,1.3-0.1c0.4,0,0.8,0,1.2,0h5.1l0,0l0,0h5.1c0.4,0,0.8,0,1.2,0s0.8,0,1.3,0.1c0.4,0.1,0.8,0.1,1.2,0.3
				c0.4,0.1,0.8,0.3,1.1,0.6l0.6,0.4c0.5,0.4,0.9,0.8,1.4,1.3c0.4,0.5,0.8,1,1.2,1.4s0.8,1,1.4,1.6c0.6,0.7,1.2,1.4,1.9,2
				c0.7,0.7,1.3,1.2,2,1.7s1.3,0.7,1.8,0.7s1-0.1,1.5-0.3c0.5-0.2,1-0.4,1.5-0.7s0.9-0.6,1.3-1c0.4-0.4,0.7-0.8,1-1.2
				c0.6-0.9,1-1.8,1.2-2.8s0.3-2,0.3-3C255.2,61.6,255.2,60.8,255.1,60z M250.3,63.5c-0.1,0.6-0.3,1.1-0.5,1.6s-0.4,1.1-0.9,1.3
				c-1.3,0.4-6.5-7-7.9-8.1c-0.4-0.3-1.4-0.7-2-0.8c-0.5-0.1-1.1-0.1-1.6-0.2c-0.6,0-3.9,0-4.5,0h-1.5h-6.5h-1.5c-0.6,0-3.9,0-4.5,0
				s-1.1,0.1-1.6,0.2c-0.5,0.1-1.5,0.5-2,0.8c-1.4,1-6.6,8.5-7.9,8.1c-0.5-0.2-0.7-0.8-0.9-1.3s-0.4-1-0.5-1.6s-0.1-1.1-0.1-1.7
				c0-0.6,0-1.3,0.1-2s0.2-1.3,0.3-1.9c0.3-1.8,0.8-3.5,1.5-5.2c0.6-1.7,1.3-3.4,2-5c0.4-0.9,0.8-1.8,1.1-2.7
				c0.4-0.9,0.8-1.8,1.2-2.6c0.1-0.2,0.2-0.4,0.4-0.5c0.2-0.2,0.3-0.3,0.5-0.4c0.4-0.3,0.7-0.5,0.7-0.8c0.1-0.3,0.1-0.6,0.1-1.1
				c0.9-0.3,1.9-0.6,2.9-0.8s2-0.3,2.9-0.3c0.1,0,0.2,0,0.3,0s0.2,0,0.3,0c0.6,0.4,1.1,0.6,1.4,0.8c0.3,0.2,0.6,0.3,0.9,0.4
				c0.3,0.1,0.6,0.2,0.9,0.2c0.2,0,0.4,0,0.7,0h3.2h0.8h4c0.3,0,0.5,0,0.7,0c0.3,0,0.7-0.1,0.9-0.2c0.3-0.1,0.6-0.2,0.9-0.4
				c0.3-0.2,0.8-0.5,1.4-0.8c0.1,0,0.2,0,0.3,0s0.2,0,0.3,0c1,0,2,0.1,2.9,0.3c1,0.2,1.9,0.5,2.9,0.8c0,0.5,0,0.8,0.1,1.1
				s0.3,0.5,0.7,0.8c0.2,0.1,0.4,0.2,0.5,0.4c0.2,0.2,0.3,0.3,0.4,0.5c0.5,0.8,0.9,1.7,1.2,2.6c0.4,0.9,0.7,1.8,1.1,2.7
				c0.7,1.6,1.3,3.3,2,5c0.6,1.7,1.1,3.4,1.5,5.2c0.1,0.6,0.2,1.3,0.3,1.9c0.1,0.7,0.1,1.3,0.1,2C250.4,62.4,250.4,62.9,250.3,63.5z
				"/>
			<path class="st4" d="M228.1,43.1c-0.7,0-1.2,0.2-1.7,0.7s-0.7,1-0.7,1.7s0.2,1.2,0.7,1.7s1,0.7,1.7,0.7s1.2-0.2,1.7-0.7
				s0.7-1,0.7-1.7s-0.2-1.2-0.7-1.7S228.8,43.1,228.1,43.1z"/>
		</g>
	</g>
</g>
<g id="Layer_3" class="st1">
	<g class="st2">
		<path class="st3" d="M241.5,107.5h-83l41.5-75L241.5,107.5z M167.8,102.5h64.4L200,43.7L167.8,102.5z"/>
		<rect x="196.7" y="60.9" class="st4" width="6.6" height="26.6"/>
		<rect x="196.7" y="91.7" class="st4" width="6.6" height="6.6"/>
	</g>
	<g class="st2">
		<path class="st4" d="M332.5,34.8v9.6c0,1.9-0.2,3.7-0.7,5.3s-1.1,3.2-2,4.7s-1.8,2.9-3,4.2s-2.4,2.5-3.7,3.7s-2.7,2.2-4.2,3.2
			s-2.9,1.9-4.4,2.8c-1.5-0.9-3-1.8-4.4-2.8s-2.9-2.1-4.2-3.2c-1.3-1.1-2.6-2.4-3.7-3.7s-2.1-2.7-3-4.2s-1.5-3.1-2-4.7
			s-0.7-3.4-0.7-5.3v-9.6c1,0,2,0,3-0.1s1.9-0.2,2.8-0.4s1.8-0.5,2.7-0.8c0.9-0.3,1.8-0.8,2.7-1.4c1.1-0.7,2.1-1.2,3.2-1.5
			s2.2-0.5,3.5-0.5c0.6,0,1.2,0,1.8,0.1c0.6,0.1,1.1,0.2,1.7,0.4c0.6,0.2,1.1,0.4,1.6,0.6s1.1,0.6,1.6,0.9c0.9,0.6,1.8,1,2.7,1.4
			c0.9,0.4,1.8,0.6,2.7,0.8c0.9,0.2,1.9,0.3,2.8,0.4S331.5,34.8,332.5,34.8z M330.4,44.3v-7.4c-1.9-0.1-3.7-0.4-5.4-0.9
			s-3.4-1.3-5-2.3c-0.9-0.6-1.7-1-2.6-1.2s-1.8-0.4-2.8-0.4s-2,0.1-2.8,0.4c-0.8,0.3-1.7,0.7-2.6,1.2c-1.6,1-3.3,1.8-5,2.3
			s-3.5,0.8-5.4,0.9v7.4c0,1.6,0.2,3.2,0.6,4.6c0.4,1.4,1,2.9,1.7,4.2s1.6,2.6,2.6,3.8s2.1,2.3,3.3,3.4c1.2,1.1,2.4,2,3.7,2.9
			c1.3,0.9,2.6,1.7,3.9,2.5c1.3-0.7,2.6-1.6,3.9-2.5s2.5-1.9,3.7-2.9s2.3-2.2,3.3-3.4s1.9-2.5,2.6-3.8s1.3-2.8,1.7-4.2
			S330.4,45.9,330.4,44.3z M314.6,38.8c0.6,0,1.3,0.1,1.8,0.4c0.5,0.3,1.1,0.6,1.5,1s0.8,0.9,1,1.5s0.4,1.2,0.4,1.8v1.9h1.9v9.4
			h-13.1v-9.4h1.9v-1.9c0-0.6,0.1-1.3,0.4-1.8s0.6-1.1,1-1.5s0.9-0.8,1.5-1S313.9,38.8,314.6,38.8z M311.8,45.4h5.6v-1.9
			c0-0.4-0.1-0.8-0.2-1.1s-0.3-0.6-0.6-0.9s-0.6-0.5-0.9-0.6s-0.7-0.2-1.1-0.2s-0.8,0.1-1.1,0.2c-0.3,0.1-0.6,0.3-0.9,0.6
			s-0.5,0.6-0.6,0.9c-0.1,0.3-0.2,0.7-0.2,1.1L311.8,45.4L311.8,45.4z"/>
	</g>
</g>
<g id="Layer_5" class="st1">
	<g class="st2">
		<path class="st3" d="M160,36.6h80v55h-51.4L170,110.2V91.6h-10V36.6z M235,86.6v-45h-70v45h10V98l11.4-11.4H235z"/>
		<rect x="175" y="51.6" class="st4" width="50" height="5"/>
		<rect x="175" y="61.6" class="st4" width="50" height="5"/>
		<rect x="175" y="71.6" class="st4" width="26" height="5"/>
	</g>
	<g class="st2">
		<path class="st4" d="M332.5,34.8v9.6c0,1.9-0.2,3.7-0.7,5.3s-1.1,3.2-2,4.7s-1.8,2.9-3,4.2s-2.4,2.5-3.7,3.7s-2.7,2.2-4.2,3.2
			s-2.9,1.9-4.4,2.8c-1.5-0.9-3-1.8-4.4-2.8s-2.9-2.1-4.2-3.2c-1.3-1.1-2.6-2.4-3.7-3.7s-2.1-2.7-3-4.2s-1.5-3.1-2-4.7
			s-0.7-3.4-0.7-5.3v-9.6c1,0,2,0,3-0.1s1.9-0.2,2.8-0.4s1.8-0.5,2.7-0.8c0.9-0.3,1.8-0.8,2.7-1.4c1.1-0.7,2.1-1.2,3.2-1.5
			s2.2-0.5,3.5-0.5c0.6,0,1.2,0,1.8,0.1c0.6,0.1,1.1,0.2,1.7,0.4c0.6,0.2,1.1,0.4,1.6,0.6s1.1,0.6,1.6,0.9c0.9,0.6,1.8,1,2.7,1.4
			c0.9,0.4,1.8,0.6,2.7,0.8c0.9,0.2,1.9,0.3,2.8,0.4S331.5,34.8,332.5,34.8z M330.4,44.3v-7.4c-1.9-0.1-3.7-0.4-5.4-0.9
			s-3.4-1.3-5-2.3c-0.9-0.6-1.7-1-2.6-1.2s-1.8-0.4-2.8-0.4s-2,0.1-2.8,0.4c-0.8,0.3-1.7,0.7-2.6,1.2c-1.6,1-3.3,1.8-5,2.3
			s-3.5,0.8-5.4,0.9v7.4c0,1.6,0.2,3.2,0.6,4.6c0.4,1.4,1,2.9,1.7,4.2s1.6,2.6,2.6,3.8s2.1,2.3,3.3,3.4c1.2,1.1,2.4,2,3.7,2.9
			c1.3,0.9,2.6,1.7,3.9,2.5c1.3-0.7,2.6-1.6,3.9-2.5s2.5-1.9,3.7-2.9s2.3-2.2,3.3-3.4s1.9-2.5,2.6-3.8s1.3-2.8,1.7-4.2
			S330.4,45.9,330.4,44.3z M314.6,38.8c0.6,0,1.3,0.1,1.8,0.4c0.5,0.3,1.1,0.6,1.5,1s0.8,0.9,1,1.5s0.4,1.2,0.4,1.8v1.9h1.9v9.4
			h-13.1v-9.4h1.9v-1.9c0-0.6,0.1-1.3,0.4-1.8s0.6-1.1,1-1.5s0.9-0.8,1.5-1S313.9,38.8,314.6,38.8z M311.8,45.4h5.6v-1.9
			c0-0.4-0.1-0.8-0.2-1.1s-0.3-0.6-0.6-0.9s-0.6-0.5-0.9-0.6s-0.7-0.2-1.1-0.2s-0.8,0.1-1.1,0.2c-0.3,0.1-0.6,0.3-0.9,0.6
			s-0.5,0.6-0.6,0.9c-0.1,0.3-0.2,0.7-0.2,1.1L311.8,45.4L311.8,45.4z"/>
	</g>
</g>
<g>
	<g>
		<path class="st4" d="M383,21.3V31c0,1.9-0.2,3.7-0.7,5.4c-0.5,1.6-1.1,3.2-2,4.7s-1.8,2.9-3,4.2s-2.4,2.5-3.7,3.7
			c-1.3,1.2-2.7,2.2-4.2,3.2s-2.9,1.9-4.4,2.8c-1.5-0.9-3-1.8-4.4-2.8s-2.9-2.1-4.2-3.2c-1.3-1.1-2.6-2.4-3.7-3.7s-2.1-2.7-3-4.2
			s-1.5-3.1-2-4.7c-0.5-1.6-0.7-3.4-0.7-5.4v-9.7c1,0,2,0,3-0.1s1.9-0.2,2.8-0.4c0.9-0.2,1.8-0.5,2.7-0.8c0.9-0.3,1.8-0.8,2.7-1.4
			c1.1-0.7,2.1-1.2,3.2-1.5s2.2-0.5,3.5-0.5c0.6,0,1.2,0,1.8,0.1c0.6,0.1,1.1,0.2,1.7,0.4c0.6,0.2,1.1,0.4,1.6,0.6s1.1,0.6,1.6,0.9
			c0.9,0.6,1.8,1,2.7,1.4c0.9,0.4,1.8,0.6,2.7,0.8c0.9,0.2,1.9,0.3,2.8,0.4C380.7,21.3,382,21.3,383,21.3z M380.9,30.8v-7.4
			c-1.9-0.1-3.7-0.4-5.4-0.9s-3.4-1.3-5.1-2.3c-0.9-0.6-1.7-1-2.6-1.2s-1.8-0.4-2.8-0.4s-2,0.1-2.8,0.4s-1.7,0.7-2.6,1.2
			c-1.6,1-3.3,1.8-5.1,2.3c-1.7,0.5-3.5,0.8-5.4,0.9v7.4c0,1.6,0.2,3.2,0.6,4.6c0.4,1.4,1,2.9,1.7,4.2s1.6,2.6,2.6,3.8
			s2.1,2.3,3.3,3.4c1.2,1.1,2.4,2,3.7,2.9s2.6,1.7,3.9,2.5c1.3-0.7,2.6-1.6,3.9-2.5s2.5-1.9,3.7-2.9s2.3-2.2,3.3-3.4
			s1.9-2.5,2.6-3.8s1.3-2.8,1.7-4.2C380.7,34,380.9,32.4,380.9,30.8z"/>
	</g>
	<path class="st4" d="M369.7,31.9v-2c0-2.5-2.1-4.6-4.6-4.6s-4.6,2.1-4.6,4.6v2h-2v9.4h13.1v-9.4H369.7z M362.3,29.9
		c0-1.5,1.2-2.8,2.8-2.8c1.5,0,2.8,1.2,2.8,2.8v2h-5.6L362.3,29.9L362.3,29.9z"/>
</g>
<g class="st5">
	
		<linearGradient id="SVGID_1_" gradientUnits="userSpaceOnUse" x1="256.6" y1="2396" x2="256.6" y2="2295.2" gradientTransform="matrix(1 0 0 1 0 -2256)">
		<stop  offset="0" style="stop-color:#000000;stop-opacity:0"/>
		<stop  offset="1" style="stop-color:#000000"/>
	</linearGradient>
	<polygon class="st6" points="400,140 400,126.4 264.7,39.2 137.5,41.3 115.6,60.1 113.2,101.9 167.1,140 	"/>
</g>
<g>
	<path class="st3" d="M113.2,101.9V57.7L135,39.4l130-0.3l21.6,18.6v44L113.2,101.9z M281.6,96.7V60l-18.4-15.9l-126.4,0.3L118.2,60
		v36.9L281.6,96.7z"/>
</g>
<rect x="116" y="81.7" class="st3" width="72.9" height="4.7"/>
<g>
	<path class="st4" d="M263.9,69.9c-0.2,0.2-0.4,0.5-0.7,0.8s-0.5,0.7-0.8,1.1s-0.5,0.8-0.8,1.2s-0.5,0.8-0.7,1.2s-0.4,0.8-0.5,1.2
		c-0.1,0.4-0.2,0.7-0.2,1c0,0.1,0,0.2,0,0.2s0,0.2,0.1,0.2l0,0l0,0l0,0c-0.5-0.6-0.8-1.3-1-1.9s-0.3-1.4-0.3-2.2
		c0-0.4,0-0.9,0.1-1.3s0.2-0.9,0.4-1.3c0.2-0.4,0.4-0.8,0.6-1.2c0.2-0.4,0.5-0.7,0.9-1h0.1h0.1c0.1,0,0.3,0,0.4,0.1
		c0.2,0.1,0.3,0.1,0.5,0.2s0.3,0.2,0.5,0.3c0.2,0.1,0.3,0.3,0.5,0.4s0.3,0.3,0.4,0.4C263.7,69.7,263.8,69.8,263.9,69.9L263.9,69.9
		L263.9,69.9z M265.7,71.6c0.1,0.1,0.3,0.2,0.4,0.3s0.2,0.2,0.4,0.3c0.2,0.2,0.4,0.4,0.7,0.6c0.3,0.3,0.5,0.5,0.8,0.8s0.6,0.6,0.9,1
		c0.3,0.3,0.5,0.7,0.8,1c0.2,0.3,0.4,0.7,0.6,1c0.1,0.3,0.2,0.6,0.2,0.8c0,0.1,0,0.2,0,0.3c0,0.1-0.1,0.2-0.2,0.2
		c-0.1,0.1-0.3,0.3-0.5,0.4s-0.3,0.2-0.5,0.3c-0.5,0.3-1.1,0.6-1.7,0.7c-0.6,0.2-1.2,0.2-1.8,0.2c-0.6,0-1.2-0.1-1.8-0.2
		c-0.6-0.2-1.1-0.4-1.7-0.7c-0.1,0-0.2-0.1-0.3-0.2s-0.2-0.2-0.3-0.2c-0.1-0.1-0.2-0.2-0.3-0.3c-0.1-0.1-0.2-0.2-0.2-0.3
		c0-0.1,0-0.2,0-0.3c0-0.2,0.1-0.5,0.2-0.8s0.3-0.6,0.5-0.9s0.5-0.6,0.7-1c0.3-0.3,0.5-0.6,0.8-0.9s0.5-0.6,0.8-0.8s0.5-0.4,0.6-0.6
		c0.1-0.1,0.3-0.3,0.5-0.4C265.4,71.8,265.5,71.7,265.7,71.6z M262.2,67.2L262.2,67.2L262.2,67.2L262.2,67.2
		c0.5-0.4,1.1-0.6,1.7-0.8s1.2-0.3,1.8-0.3c0.6,0,1.2,0.1,1.8,0.2c0.6,0.2,1.1,0.4,1.7,0.7l0,0l0,0h-0.1H269h-0.1h-0.1
		c-0.2,0-0.4,0-0.6,0.1s-0.4,0.1-0.6,0.2s-0.4,0.1-0.6,0.2s-0.4,0.2-0.6,0.3c-0.1,0-0.2,0.1-0.3,0.1c-0.1,0-0.2,0.1-0.3,0.2l0,0l0,0
		c-0.2-0.1-0.4-0.2-0.7-0.4s-0.5-0.2-0.8-0.3c-0.3-0.1-0.5-0.2-0.8-0.2s-0.5-0.1-0.7-0.1c-0.1,0-0.2,0-0.3,0
		C262.4,67.2,262.3,67.2,262.2,67.2z M270.2,68.1h0.1h0.1c0.3,0.3,0.6,0.7,0.9,1c0.2,0.4,0.5,0.8,0.6,1.2c0.2,0.4,0.3,0.8,0.4,1.3
		s0.1,0.9,0.1,1.3c0,0.8-0.1,1.5-0.3,2.2c-0.2,0.7-0.6,1.3-1,1.9l0,0l0,0c0,0,0,0,0-0.1v-0.1c0-0.1,0-0.1,0-0.1v-0.1
		c0-0.3-0.1-0.6-0.2-1s-0.3-0.8-0.5-1.2c-0.2-0.4-0.4-0.8-0.7-1.2c-0.3-0.4-0.5-0.8-0.8-1.2s-0.5-0.7-0.8-1.1
		c-0.3-0.3-0.5-0.6-0.7-0.8l0,0l0,0c0.1-0.1,0.2-0.2,0.3-0.3c0.1-0.1,0.3-0.3,0.4-0.4c0.2-0.1,0.3-0.3,0.5-0.4s0.3-0.2,0.5-0.4
		s0.3-0.2,0.5-0.2C270,68.1,270.1,68.1,270.2,68.1z"/>
</g>
<line class="st7" x1="-206" y1="-102" x2="-206" y2="-101"/>
</svg>
