<?xml version="1.0" encoding="utf-8"?>
<!-- Generator: Adobe Illustrator 23.0.6, SVG Export Plug-In . SVG Version: 6.00 Build 0)  -->
<svg version="1.1" id="Layer_1" xmlns="http://www.w3.org/2000/svg" xmlns:xlink="http://www.w3.org/1999/xlink" x="0px" y="0px"
	 viewBox="0 0 400 140" style="enable-background:new 0 0 400 140;" xml:space="preserve">
<style type="text/css">
	.st0{fill:#2F2F2F;}
	.st1{opacity:0.5;}
	.st2{fill:url(#SVGID_1_);}
	.st3{fill:#FFFFFF;}
</style>
<rect class="st0" width="400" height="140"/>
<g class="st1">
	
		<linearGradient id="SVGID_1_" gradientUnits="userSpaceOnUse" x1="280.85" y1="-180.8986" x2="280.85" y2="-255.8424" gradientTransform="matrix(1 0 0 1 0 320)">
		<stop  offset="0" style="stop-color:#000000;stop-opacity:0"/>
		<stop  offset="1" style="stop-color:#000000"/>
	</linearGradient>
	<polygon class="st2" points="387.8,140 222.4,44.6 221.2,45.4 212.4,39.3 186,39.5 177.6,45.5 173.9,84.4 180.8,90.6 182,93.5 
		262.6,140 	"/>
</g>
<g>
	<g>
		<path class="st3" d="M383.7,21.2v9.7c0,1.9-0.2,3.7-0.7,5.4c-0.5,1.6-1.1,3.2-2,4.7s-1.8,2.9-3,4.2s-2.4,2.5-3.7,3.7
			c-1.3,1.2-2.7,2.2-4.2,3.2s-2.9,1.9-4.4,2.8c-1.5-0.9-3-1.8-4.4-2.8s-2.9-2.1-4.2-3.2c-1.3-1.1-2.6-2.4-3.7-3.7s-2.1-2.7-3-4.2
			s-1.5-3.1-2-4.7c-0.5-1.6-0.7-3.4-0.7-5.4v-9.7c1,0,2,0,3-0.1s1.9-0.2,2.8-0.4c0.9-0.2,1.8-0.5,2.7-0.8c0.9-0.3,1.8-0.8,2.7-1.4
			c1.1-0.7,2.1-1.2,3.2-1.5s2.2-0.5,3.5-0.5c0.6,0,1.2,0,1.8,0.1c0.6,0.1,1.1,0.2,1.7,0.4c0.6,0.2,1.1,0.4,1.6,0.6s1.1,0.6,1.6,0.9
			c0.9,0.6,1.8,1,2.7,1.4c0.9,0.4,1.8,0.6,2.7,0.8c0.9,0.2,1.9,0.3,2.8,0.4C381.4,21.2,382.7,21.2,383.7,21.2z M381.6,30.7v-7.4
			c-1.9-0.1-3.7-0.4-5.4-0.9s-3.4-1.3-5.1-2.3c-0.9-0.6-1.7-1-2.6-1.2s-1.8-0.4-2.8-0.4s-2,0.1-2.8,0.4s-1.7,0.7-2.6,1.2
			c-1.6,1-3.3,1.8-5.1,2.3c-1.7,0.5-3.5,0.8-5.4,0.9v7.4c0,1.6,0.2,3.2,0.6,4.6c0.4,1.4,1,2.9,1.7,4.2s1.6,2.6,2.6,3.8
			s2.1,2.3,3.3,3.4c1.2,1.1,2.4,2,3.7,2.9s2.6,1.7,3.9,2.5c1.3-0.7,2.6-1.6,3.9-2.5s2.5-1.9,3.7-2.9s2.3-2.2,3.3-3.4
			s1.9-2.5,2.6-3.8s1.3-2.8,1.7-4.2C381.4,33.9,381.6,32.3,381.6,30.7z"/>
	</g>
	<path class="st3" d="M370.4,31.8v-2c0-2.5-2.1-4.6-4.6-4.6s-4.6,2.1-4.6,4.6v2h-2v9.4h13.1v-9.4C372.3,31.8,370.4,31.8,370.4,31.8z
		 M363,29.8c0-1.5,1.2-2.8,2.8-2.8c1.5,0,2.8,1.2,2.8,2.8v2H363V29.8z"/>
</g>
<g>
	<path class="st3" d="M191.3,53.1c-0.9,1-2,2.4-3.1,4c-1.2,1.5-2.4,3.3-3.6,5.1c-1.3,1.7-2.4,3.7-3.6,5.7c-1.2,2-2.2,4-3.1,5.8
		s-1.7,3.8-2.2,5.6c-0.5,1.7-0.8,3.4-0.8,4.9c0,0.7,0.1,1.5,0.3,2.2v0.1c-0.1,0-0.1,0-0.2-0.1c-1-1.3-2-2.8-2.8-4.3
		c-0.8-1.6-1.5-3.1-2-4.8c-0.6-1.7-0.9-3.3-1.3-5.1c-0.3-1.7-0.5-3.4-0.5-5.1c0-2.1,0.2-4.1,0.6-6.2c0.5-2.1,1-4.1,1.7-6
		s1.7-3.8,2.9-5.6c1.2-1.7,2.6-3.4,4-4.8c0.1-0.1,0.2-0.1,0.6-0.2c0.2,0,0.5,0,0.5,0c0.6,0,1.4,0.1,2.1,0.5c0.7,0.3,1.6,0.7,2.3,1.2
		s1.6,1,2.4,1.7c0.8,0.7,1.6,1.3,2.3,1.9c0.7,0.6,1.4,1.3,2,1.7c0.6,0.6,1,1,1.5,1.5L191.3,53.1L191.3,53.1z M200,61
		c0.7,0.6,1.7,1.3,2.7,2.2c1,0.8,2.1,1.9,3.3,2.9s2.3,2.2,3.6,3.5s2.4,2.6,3.6,4c1.2,1.4,2.2,2.7,3.3,4c1,1.4,2,2.7,2.8,4
		c0.7,1.3,1.4,2.6,1.9,3.7c0.5,1.2,0.6,2.3,0.6,3.3c0,0.5-0.1,0.9-0.2,1.4c-0.1,0.5-0.5,0.8-0.7,1.2c-0.5,0.5-0.9,0.8-1.5,1.3
		s-1,0.8-1.6,1.2c-2.7,1.7-5.5,3.1-8.5,4s-6.2,1.4-9.3,1.4s-6.2-0.5-9.3-1.4c-3-0.9-5.8-2.2-8.5-4c-0.6-0.3-1-0.7-1.6-1.2
		s-1-0.8-1.5-1.3c-0.3-0.3-0.6-0.7-0.7-1.2c-0.1-0.5-0.2-0.8-0.2-1.4c0-0.9,0.2-2.1,0.6-3.3s1-2.4,1.9-3.7c0.7-1.3,1.7-2.7,2.8-4
		c1-1.4,2.1-2.8,3.3-4c1.2-1.4,2.3-2.7,3.6-4s2.4-2.4,3.6-3.5c1.2-1,2.2-2.1,3.3-2.9C198.3,62.4,199.2,61.6,200,61L200,61L200,61z
		 M183.4,40.5L183.4,40.5c2.7-1.7,5.3-2.8,8-3.6c2.8-0.7,5.6-1.2,8.5-1.2c3,0,5.9,0.5,8.5,1.2c2.7,0.7,5.3,1.9,7.9,3.5l0.1,0.1h-0.1
		c-0.6-0.1-1.4-0.2-2.1-0.2c-1.2,0-2.3,0.1-3.6,0.5s-2.6,0.6-3.7,1c-1.3,0.5-2.4,0.9-3.6,1.6c-1.2,0.6-2.2,1.2-3.3,1.7l0,0l0,0
		c-0.9-0.6-2.1-1.2-3.3-1.7s-2.4-1-3.6-1.5c-1.3-0.5-2.4-0.8-3.7-1.2c-1.3-0.3-2.4-0.5-3.6-0.5c-0.5,0-0.7,0-1.2,0
		C184.2,40.2,184,40.3,183.4,40.5L183.4,40.5z M221.3,44.4c0.1,0,0.2,0,0.6,0c0.3,0,0.5,0.1,0.6,0.2c1.5,1.4,2.8,3,4,4.8
		c1.2,1.7,2.2,3.6,2.9,5.6s1.4,4,1.7,6c0.5,2,0.6,4.1,0.6,6.2c0,1.7-0.1,3.4-0.5,5.1c-0.3,1.7-0.7,3.4-1.3,5.1s-1.3,3.3-2,4.8
		c-0.8,1.6-1.7,2.9-2.8,4.3c0,0-0.1,0.1-0.2,0.1v-0.1c0.2-0.6,0.3-1.4,0.3-2.2c0-1.4-0.3-3-0.8-4.9c-0.6-1.7-1.3-3.6-2.2-5.6
		c-0.9-1.9-2-4-3.1-5.9s-2.4-4-3.6-5.7c-1.2-1.7-2.4-3.5-3.6-5.1c-1.2-1.6-2.2-2.8-3.1-4V53l0,0l0,0c0.5-0.5,0.8-0.8,1.5-1.5
		c0.6-0.6,1.3-1.2,2-1.7s1.5-1.3,2.3-1.9c0.8-0.6,1.6-1.2,2.4-1.7c0.8-0.6,1.6-0.8,2.3-1.2C220,44.6,220.6,44.4,221.3,44.4z"/>
</g>
</svg>
