<?xml version="1.0" encoding="utf-8"?>
<!-- Generator: Adobe Illustrator 23.0.6, SVG Export Plug-In . SVG Version: 6.00 Build 0)  -->
<svg version="1.1" id="Layer_1" xmlns="http://www.w3.org/2000/svg" xmlns:xlink="http://www.w3.org/1999/xlink" x="0px" y="0px"
	 viewBox="0 0 285 100" style="enable-background:new 0 0 285 100;" xml:space="preserve">
<style type="text/css">
	.st0{fill:#2F2F2F;}
	.st1{display:none;}
	.st2{display:inline;}
	.st3{fill:#5DC21E;}
	.st4{fill:#FFFFFF;}
	.st5{opacity:0.5;}
	.st6{fill:url(#SVGID_1_);}
</style>
<g id="bg">
	<rect x="-0.3" class="st0" width="285" height="100"/>
</g>
<g class="st1">
	<g class="st2">
		<path class="st3" d="M187.7,61c-2.5-3.5-7.5-3.4-8.5-3.3h-32.5L132.4,49c0.1-0.8,0.3-1.6,0.6-2.4c0.4-1.2,0.9-2.4,1.4-3.6
			c1-2,1.7-4,2.2-6s0.7-4.2,0.7-6.4c0-0.9-0.2-1.8-0.5-2.6c-0.3-0.8-0.8-1.5-1.4-2.1c-0.6-0.6-1.3-1.1-2.1-1.4s-1.7-0.5-2.6-0.5
			c-1,0-1.8,0.2-2.5,0.6s-1.4,0.9-2.1,1.6l-23.2,25.7c-1.3,1.3-2.7,2.2-4.3,2.9c-1.6,0.7-2.5,1-4.3,1h-6.5v26.4l42.4,0.1
			c8.2,0,19.7-2.5,20.6-2.7c5.6-1.1,33.3-6.4,35.6-7.1c1.4-0.5,2.5-1.6,3-3.1C190.2,66.9,189.5,63.5,187.7,61z M184.5,67.5
			c-3,0.8-22.6,4.6-34.7,6.9h-0.1c-0.1,0-11.7,2.5-19.5,2.5H93.1V61.1h1.2c2.5,0,4.1-0.5,6.3-1.4c1.1-0.5,2.2-1,3.2-1.7
			s2-1.4,2.8-2.3l23.2-25.9c0.1-0.1,0.2-0.2,0.4-0.4c0.1-0.1,0.3-0.2,0.4-0.2c0.4,0,0.7,0.1,1,0.4c0.2,0.2,0.4,0.6,0.4,1
			c0,1.8-0.2,3.5-0.6,5.2c-0.4,1.7-1,3.3-1.8,4.9c-0.6,1.3-1.1,2.6-1.5,3.8c-0.4,1.2-0.7,2.4-0.9,3.6c-0.2,1.2-0.3,2.4-0.4,3.7
			s-0.1,2.6-0.1,4.1l2.6-2.6L145,63h34.2h0.2c0.8-0.1,3.2,0.1,4,1.1C184.4,65.3,184.6,66.9,184.5,67.5z"/>
		<g>
			<path class="st4" d="M197.6,40c-0.1-0.8-0.2-1.6-0.3-2.3c-0.1-0.8-0.3-1.7-0.6-2.7s-0.6-2-0.9-3c-0.4-1-0.7-2.1-1.2-3.2
				c-0.4-1.1-0.8-2.1-1.3-3.1c-0.4-1-0.9-2-1.3-2.9c-0.4-0.9-0.8-1.8-1.2-2.5c-0.2-0.4-0.4-0.7-0.7-1s-0.5-0.6-0.8-0.9
				c0-0.2,0-0.4,0-0.7c0-0.2,0-0.4-0.1-0.6c0-0.2-0.1-0.4-0.2-0.5c-0.1-0.2-0.3-0.3-0.5-0.5c-0.2-0.1-0.5-0.3-0.9-0.4
				c-0.4-0.1-0.9-0.3-1.4-0.4c-0.5-0.1-1-0.3-1.4-0.4c-0.5-0.1-0.8-0.2-1.1-0.3c-0.7-0.1-1.3-0.2-2-0.3s-1.4-0.1-2-0.1
				c-0.3,0-0.6,0-0.9,0c-0.3,0-0.6,0.1-0.9,0.2l0,0c-0.4,0.2-0.8,0.4-1.2,0.7c-0.4,0.2-0.8,0.5-1.2,0.7h-4.8h-0.8h-4
				c-0.4-0.2-0.8-0.4-1.2-0.7c-0.4-0.2-0.8-0.5-1.2-0.7l0,0c-0.2-0.1-0.5-0.2-0.9-0.2c-0.3,0-0.6,0-0.9,0c-0.7,0-1.3,0-2,0.1
				s-1.4,0.2-2,0.3c-0.2,0.1-0.6,0.1-1.1,0.3c-0.5,0.1-0.9,0.2-1.4,0.4s-0.9,0.3-1.4,0.4c-0.4,0.2-0.7,0.3-0.9,0.4
				c-0.2,0.1-0.4,0.3-0.5,0.5s-0.2,0.3-0.2,0.5s-0.1,0.4-0.1,0.6s0,0.4,0,0.7c-0.3,0.3-0.6,0.6-0.8,0.9c-0.3,0.3-0.5,0.6-0.7,1
				c-0.4,0.8-0.8,1.6-1.2,2.5s-0.9,1.9-1.3,2.9c-0.4,1-0.9,2.1-1.3,3.1c-0.4,1.1-0.8,2.1-1.2,3.2c-0.4,1-0.7,2-0.9,3
				c-0.3,1-0.5,1.8-0.6,2.7c-0.1,0.8-0.3,1.6-0.3,2.3c-0.1,0.8-0.1,1.6-0.1,2.4c0,1,0.1,2.1,0.3,3c0.2,1,0.6,1.9,1.2,2.8
				c0.3,0.4,0.6,0.8,1,1.2s0.8,0.7,1.3,1s1,0.5,1.5,0.7s1,0.3,1.5,0.3s1.2-0.2,1.8-0.7c0.7-0.5,1.4-1,2-1.7c0.7-0.7,1.3-1.3,1.9-2
				c0.6-0.7,1.1-1.2,1.4-1.6c0.4-0.4,0.8-0.9,1.2-1.4s0.9-1,1.4-1.3l0.6-0.4c0.4-0.2,0.7-0.4,1.1-0.6c0.4-0.1,0.8-0.2,1.2-0.3
				s0.8-0.1,1.3-0.1c0.4,0,0.8,0,1.2,0h5.1l0,0l0,0h5.1c0.4,0,0.8,0,1.2,0s0.8,0,1.3,0.1c0.4,0.1,0.8,0.1,1.2,0.3
				c0.4,0.1,0.8,0.3,1.1,0.6l0.6,0.4c0.5,0.4,0.9,0.8,1.4,1.3c0.4,0.5,0.8,1,1.2,1.4s0.8,1,1.4,1.6c0.6,0.7,1.2,1.4,1.9,2
				c0.7,0.7,1.3,1.2,2,1.7s1.3,0.7,1.8,0.7s1-0.1,1.5-0.3s1-0.4,1.5-0.7s0.9-0.6,1.3-1c0.4-0.4,0.7-0.8,1-1.2c0.6-0.9,1-1.8,1.2-2.8
				s0.3-2,0.3-3C197.7,41.6,197.7,40.8,197.6,40z M192.8,43.5c-0.1,0.6-0.3,1.1-0.5,1.6s-0.4,1.1-0.9,1.3c-1.3,0.4-6.5-7-7.9-8.1
				c-0.4-0.3-1.4-0.7-2-0.8c-0.5-0.1-1.1-0.1-1.6-0.2c-0.6,0-3.9,0-4.5,0h-1.5h-6.5h-1.5c-0.6,0-3.9,0-4.5,0s-1.1,0.1-1.6,0.2
				c-0.5,0.1-1.5,0.5-2,0.8c-1.4,1-6.6,8.5-7.9,8.1c-0.5-0.2-0.7-0.8-0.9-1.3s-0.4-1-0.5-1.6s-0.1-1.1-0.1-1.7c0-0.6,0-1.3,0.1-2
				s0.2-1.3,0.3-1.9c0.3-1.8,0.8-3.5,1.5-5.2c0.6-1.7,1.3-3.4,2-5c0.4-0.9,0.8-1.8,1.1-2.7c0.4-0.9,0.8-1.8,1.2-2.6
				c0.1-0.2,0.2-0.4,0.4-0.5c0.2-0.2,0.3-0.3,0.5-0.4c0.4-0.3,0.7-0.5,0.7-0.8c0.1-0.3,0.1-0.6,0.1-1.1c0.9-0.3,1.9-0.6,2.9-0.8
				s2-0.3,2.9-0.3c0.1,0,0.2,0,0.3,0s0.2,0,0.3,0c0.6,0.4,1.1,0.6,1.4,0.8c0.3,0.2,0.6,0.3,0.9,0.4c0.3,0.1,0.6,0.2,0.9,0.2
				c0.2,0,0.4,0,0.7,0h3.2h0.8h4c0.3,0,0.5,0,0.7,0c0.3,0,0.7-0.1,0.9-0.2c0.3-0.1,0.6-0.2,0.9-0.4c0.3-0.2,0.8-0.5,1.4-0.8
				c0.1,0,0.2,0,0.3,0s0.2,0,0.3,0c1,0,2,0.1,2.9,0.3c1,0.2,1.9,0.5,2.9,0.8c0,0.5,0,0.8,0.1,1.1c0.1,0.3,0.3,0.5,0.7,0.8
				c0.2,0.1,0.4,0.2,0.5,0.4c0.2,0.2,0.3,0.3,0.4,0.5c0.5,0.8,0.9,1.7,1.2,2.6c0.4,0.9,0.7,1.8,1.1,2.7c0.7,1.6,1.3,3.3,2,5
				c0.6,1.7,1.1,3.4,1.5,5.2c0.1,0.6,0.2,1.3,0.3,1.9c0.1,0.7,0.1,1.3,0.1,2C192.9,42.4,192.9,42.9,192.8,43.5z"/>
			<path class="st4" d="M170.6,23.1c-0.7,0-1.2,0.2-1.7,0.7s-0.7,1-0.7,1.7s0.2,1.2,0.7,1.7s1,0.7,1.7,0.7s1.2-0.2,1.7-0.7
				s0.7-1,0.7-1.7s-0.2-1.2-0.7-1.7C171.8,23.3,171.3,23.1,170.6,23.1z"/>
		</g>
	</g>
</g>
<g id="Layer_4" class="st1">
	<g class="st2">
		<g>
			<path class="st4" d="M172.9,30.9h11.4v40h-10v11.4l-11.4-11.4h-39.4l-5,5h42.2l18.6,18.6V75.9h10v-50h-16.4L172.9,30.9
				L172.9,30.9z"/>
		</g>
		<g>
			<g>
				<path class="st3" d="M138.4,34.8c-0.5-0.5-1-0.8-1.6-1.1s-1.3-0.4-2-0.4s-1.4,0.1-2,0.4c-0.6,0.3-1.1,0.6-1.6,1.1
					s-0.8,1-1.1,1.6s-0.4,1.3-0.4,2s0.1,1.4,0.4,2c0.3,0.6,0.6,1.1,1.1,1.6s1,0.8,1.6,1.1s1.3,0.4,2,0.4s1.4-0.1,2-0.4
					c0.6-0.3,1.1-0.6,1.6-1.1s0.8-1,1.1-1.6s0.4-1.3,0.4-2s-0.1-1.4-0.4-2C139.2,35.8,138.8,35.3,138.4,34.8z"/>
				<path class="st3" d="M159.5,36.4c-0.3-0.6-0.6-1.1-1.1-1.6s-1-0.8-1.6-1.1s-1.3-0.4-2-0.4s-1.4,0.1-2,0.4
					c-0.6,0.3-1.1,0.6-1.6,1.1s-0.8,1-1.1,1.6s-0.4,1.3-0.4,2s0.1,1.4,0.4,2c0.3,0.6,0.6,1.1,1.1,1.6s1,0.8,1.6,1.1s1.3,0.4,2,0.4
					s1.4-0.1,2-0.4c0.6-0.3,1.1-0.6,1.6-1.1s0.8-1,1.1-1.6s0.4-1.3,0.4-2S159.7,37,159.5,36.4z"/>
				<path class="st3" d="M118.4,34.8c-0.5-0.5-1-0.8-1.6-1.1s-1.3-0.4-2-0.4s-1.4,0.1-2,0.4c-0.6,0.3-1.1,0.6-1.6,1.1
					s-0.8,1-1.1,1.6c-0.3,0.6-0.4,1.3-0.4,2s0.1,1.4,0.4,2s0.6,1.1,1.1,1.6s1,0.8,1.6,1.1s1.3,0.4,2,0.4s1.4-0.1,2-0.4
					c0.6-0.3,1.1-0.6,1.6-1.1s0.8-1,1.1-1.6c0.3-0.6,0.4-1.3,0.4-2s-0.1-1.4-0.4-2S118.8,35.3,118.4,34.8z"/>
			</g>
			<path class="st3" d="M174.9,25.9V13.3h-80v50h10v18.6l18.6-18.6h51.4V30.9V25.9z M169.9,58.3h-48.6l-11.4,11.4V58.3h-10v-40h70
				V58.3z"/>
		</g>
	</g>
	<g class="st2">
		<path class="st4" d="M275,14.8v9.6c0,1.9-0.2,3.7-0.7,5.3s-1.1,3.2-2,4.7s-1.8,2.9-3,4.2s-2.4,2.5-3.7,3.7s-2.7,2.2-4.2,3.2
			s-2.9,1.9-4.4,2.8c-1.5-0.9-3-1.8-4.4-2.8s-2.9-2.1-4.2-3.2s-2.6-2.4-3.7-3.7s-2.1-2.7-3-4.2s-1.5-3.1-2-4.7s-0.7-3.4-0.7-5.3
			v-9.6c1,0,2,0,3-0.1s1.9-0.2,2.8-0.4s1.8-0.5,2.7-0.8s1.8-0.8,2.7-1.4c1.1-0.7,2.1-1.2,3.2-1.5s2.2-0.5,3.5-0.5
			c0.6,0,1.2,0,1.8,0.1s1.1,0.2,1.7,0.4s1.1,0.4,1.6,0.6s1.1,0.6,1.6,0.9c0.9,0.6,1.8,1,2.7,1.4s1.8,0.6,2.7,0.8s1.9,0.3,2.8,0.4
			S274,14.8,275,14.8z M272.9,24.3v-7.4c-1.9-0.1-3.7-0.4-5.4-0.9s-3.4-1.3-5-2.3c-0.9-0.6-1.7-1-2.6-1.2s-1.8-0.4-2.8-0.4
			s-2,0.1-2.8,0.4s-1.7,0.7-2.6,1.2c-1.6,1-3.3,1.8-5,2.3s-3.5,0.8-5.4,0.9v7.4c0,1.6,0.2,3.2,0.6,4.6s1,2.9,1.7,4.2
			s1.6,2.6,2.6,3.8s2.1,2.3,3.3,3.4s2.4,2,3.7,2.9s2.6,1.7,3.9,2.5c1.3-0.7,2.6-1.6,3.9-2.5s2.5-1.9,3.7-2.9s2.3-2.2,3.3-3.4
			s1.9-2.5,2.6-3.8s1.3-2.8,1.7-4.2S272.9,25.9,272.9,24.3z M257.1,18.8c0.6,0,1.3,0.1,1.8,0.4s1.1,0.6,1.5,1s0.8,0.9,1,1.5
			s0.4,1.2,0.4,1.8v1.9h1.9v9.4h-13.1v-9.4h1.9v-1.9c0-0.6,0.1-1.3,0.4-1.8s0.6-1.1,1-1.5s0.9-0.8,1.5-1S256.4,18.8,257.1,18.8z
			 M254.3,25.4h5.6v-1.9c0-0.4-0.1-0.8-0.2-1.1s-0.3-0.6-0.6-0.9s-0.6-0.5-0.9-0.6s-0.7-0.2-1.1-0.2s-0.8,0.1-1.1,0.2
			s-0.6,0.3-0.9,0.6s-0.5,0.6-0.6,0.9s-0.2,0.7-0.2,1.1L254.3,25.4L254.3,25.4z"/>
	</g>
</g>
<g id="Layer_5" class="st1">
	<g class="st2">
		<path class="st3" d="M102.5,16.6h80v55h-51.4l-18.6,18.6V71.6h-10C102.5,71.6,102.5,16.6,102.5,16.6z M177.5,66.6v-45h-70v45h10
			V78l11.4-11.4H177.5z"/>
		<rect x="117.5" y="31.6" class="st4" width="50" height="5"/>
		<rect x="117.5" y="41.6" class="st4" width="50" height="5"/>
		<rect x="117.5" y="51.6" class="st4" width="26" height="5"/>
	</g>
	<g class="st2">
		<path class="st4" d="M275,14.8v9.6c0,1.9-0.2,3.7-0.7,5.3s-1.1,3.2-2,4.7s-1.8,2.9-3,4.2s-2.4,2.5-3.7,3.7s-2.7,2.2-4.2,3.2
			s-2.9,1.9-4.4,2.8c-1.5-0.9-3-1.8-4.4-2.8s-2.9-2.1-4.2-3.2s-2.6-2.4-3.7-3.7s-2.1-2.7-3-4.2s-1.5-3.1-2-4.7s-0.7-3.4-0.7-5.3
			v-9.6c1,0,2,0,3-0.1s1.9-0.2,2.8-0.4s1.8-0.5,2.7-0.8s1.8-0.8,2.7-1.4c1.1-0.7,2.1-1.2,3.2-1.5s2.2-0.5,3.5-0.5
			c0.6,0,1.2,0,1.8,0.1s1.1,0.2,1.7,0.4s1.1,0.4,1.6,0.6s1.1,0.6,1.6,0.9c0.9,0.6,1.8,1,2.7,1.4s1.8,0.6,2.7,0.8s1.9,0.3,2.8,0.4
			S274,14.8,275,14.8z M272.9,24.3v-7.4c-1.9-0.1-3.7-0.4-5.4-0.9s-3.4-1.3-5-2.3c-0.9-0.6-1.7-1-2.6-1.2s-1.8-0.4-2.8-0.4
			s-2,0.1-2.8,0.4s-1.7,0.7-2.6,1.2c-1.6,1-3.3,1.8-5,2.3s-3.5,0.8-5.4,0.9v7.4c0,1.6,0.2,3.2,0.6,4.6s1,2.9,1.7,4.2
			s1.6,2.6,2.6,3.8s2.1,2.3,3.3,3.4s2.4,2,3.7,2.9s2.6,1.7,3.9,2.5c1.3-0.7,2.6-1.6,3.9-2.5s2.5-1.9,3.7-2.9s2.3-2.2,3.3-3.4
			s1.9-2.5,2.6-3.8s1.3-2.8,1.7-4.2S272.9,25.9,272.9,24.3z M257.1,18.8c0.6,0,1.3,0.1,1.8,0.4s1.1,0.6,1.5,1s0.8,0.9,1,1.5
			s0.4,1.2,0.4,1.8v1.9h1.9v9.4h-13.1v-9.4h1.9v-1.9c0-0.6,0.1-1.3,0.4-1.8s0.6-1.1,1-1.5s0.9-0.8,1.5-1S256.4,18.8,257.1,18.8z
			 M254.3,25.4h5.6v-1.9c0-0.4-0.1-0.8-0.2-1.1s-0.3-0.6-0.6-0.9s-0.6-0.5-0.9-0.6s-0.7-0.2-1.1-0.2s-0.8,0.1-1.1,0.2
			s-0.6,0.3-0.9,0.6s-0.5,0.6-0.6,0.9s-0.2,0.7-0.2,1.1L254.3,25.4L254.3,25.4z"/>
	</g>
</g>
<g class="st5">
	
		<linearGradient id="SVGID_1_" gradientUnits="userSpaceOnUse" x1="177.95" y1="-60" x2="177.95" y2="-126.4" gradientTransform="matrix(1 0 0 1 0 160)">
		<stop  offset="0" style="stop-color:#000000;stop-opacity:0"/>
		<stop  offset="1" style="stop-color:#000000"/>
	</linearGradient>
	<polygon class="st6" points="285,100 285,82.6 213,41.1 204.7,41.4 203.7,45.3 195,40.3 189.7,43.7 183.8,40.3 172.9,42.4 
		169.3,40.3 164.8,44.1 158.2,40.3 157.5,44.8 149.8,40.3 142.5,47 130.9,40.3 128.5,45.3 120.7,40.8 112.2,46.9 100.1,39.9 
		85.1,33.6 70.9,41.9 70.9,47.7 78.1,52.9 78.1,60.9 84.4,67.1 141.3,100 	"/>
</g>
<g>
	<g>
		<polygon class="st4" points="133.2,57.7 137.6,57.7 137.6,53.7 130.9,53.7 		"/>
		<polygon class="st4" points="126.9,40.3 126.9,57.7 130.9,57.7 130.9,53.7 130.9,40.3 		"/>
		<polygon class="st4" points="181.9,51.7 181.9,47.7 176.1,47.7 178.4,51.7 		"/>
		<polygon class="st4" points="172.1,57.7 176.1,57.7 176.1,47.7 176.1,44.3 183.8,44.3 183.8,40.3 172.1,40.3 		"/>
		<path class="st4" d="M147.9,40.3h-2.2h-1.8l-4.6,17.4h4l0.9-3.2h5.4l0.9,3.2h4l-4.6-17.4C149.9,40.3,147.9,40.3,147.9,40.3z
			 M145.1,51.1l1.8-6.7l1.8,6.7H145.1z"/>
		<polygon class="st4" points="161.8,47.3 158.2,40.3 154.2,40.3 159.8,51.2 159.8,57.7 163.8,57.7 163.8,51.2 169.3,40.3 
			165.3,40.3 		"/>
		<path class="st4" d="M193.2,40.3H191h-1.8l-4.6,17.4h4l0.9-3.2h5.4l0.9,3.2h4L195,40.3H193.2z M190.3,51.1l1.8-6.7l1.8,6.7H190.3z
			"/>
		<path class="st4" d="M118.2,40.3h-7.1v17.4h4v-5.9l3.1-0.1c3.2,0,5.7-2.6,5.7-5.7S121.4,40.3,118.2,40.3z M118.2,47.7h-3.1v-3.4
			h3.1c0.9,0,1.7,0.8,1.7,1.7C119.9,46.9,119.2,47.7,118.2,47.7z"/>
		<path class="st4" d="M214.1,48.2c0.8-0.8,1.2-1.9,1.2-3c0-2.7-2.6-4.9-5.7-4.9H203v0.5v14.4v2.5h7.1c3.2,0,5.7-2.5,5.7-5.5
			C215.8,50.6,215.2,49.2,214.1,48.2z M207,43.7h2.6c0.9,0,1.7,0.7,1.7,1.6c0,0.8-0.6,1.4-1.3,1.6l-3-0.1V43.7z M210.1,54H207v-3.7
			h3.1c0.9,0,1.7,0.8,1.7,1.8C211.8,53.2,211,54,210.1,54z"/>
	</g>
	<path class="st4" d="M84.4,30.9L68.7,40v9.8l7.5,4v8.7l8.1,4.7l15.7-9.1V39.9L84.4,30.9z M95.6,55.5L84.4,62l-4.2-2.4V56l4.2,2.4
		l8.1-4.7v-9.4l-8.1-4.7l-8.1,4.7v4.8l-3-1.7v-4.8l11.2-6.5l11.2,6.5L95.6,55.5L95.6,55.5z M80.3,51.4v-4.7l4.1-2.4l4.1,2.4v4.7
		l-4.1,2.4L80.3,51.4z"/>
</g>
</svg>
