<?xml version="1.0" encoding="utf-8"?>
<!-- Generator: Adobe Illustrator 23.0.6, SVG Export Plug-In . SVG Version: 6.00 Build 0)  -->
<svg version="1.1" id="Layer_1" xmlns="http://www.w3.org/2000/svg" xmlns:xlink="http://www.w3.org/1999/xlink" x="0px" y="0px"
	 viewBox="0 0 400 140" style="enable-background:new 0 0 400 140;" xml:space="preserve">
<style type="text/css">
	.st0{fill:#2F2F2F;}
	.st1{opacity:0.5;}
	.st2{fill:url(#SVGID_1_);}
	.st3{fill:#FFFFFF;}
</style>
<rect class="st0" width="400" height="140"/>
<g class="st1">
	
		<linearGradient id="SVGID_1_" gradientUnits="userSpaceOnUse" x1="283.25" y1="-180.9438" x2="283.25" y2="-259.6573" gradientTransform="matrix(1 0 0 1 0 320)">
		<stop  offset="0" style="stop-color:#000000;stop-opacity:0"/>
		<stop  offset="1" style="stop-color:#000000"/>
	</linearGradient>
	<polygon class="st2" points="399.8,140 400,137.2 232.7,40.7 219.2,36.2 201.2,34.2 181.9,36.5 166.5,41.9 167.3,63.5 171.6,82.4 
		183.8,96.9 200,110 251.6,140 	"/>
</g>
<g>
	<path class="st3" d="M234.7,42.1l-0.1-0.6l-0.5-0.3c-0.1-0.1-3.6-2-9.5-4c-5.5-1.8-14.2-4-24.6-4c-10.4,0-19.1,2.2-24.6,4
		c-5.9,2-9.4,3.9-9.5,4l-0.5,0.3l-0.1,0.6c0,0.2-1.6,15.9,3.4,33c3.4,11.7,11.6,20.5,17.9,25.8c6.8,5.7,12.7,8.7,12.9,8.8l0.5,0.2
		l0.5-0.2c0.2-0.1,6.2-3.1,12.9-8.8c6.3-5.3,14.5-14.1,17.9-25.8C236.3,58,234.7,42.3,234.7,42.1z M229.2,74.5
		C226,85.6,218.1,94,212.1,99.2c-5.5,4.6-10.5,7.5-12,8.3c-1.6-0.8-6.5-3.6-12-8.3c-6-5.1-13.9-13.6-17.2-24.7
		c-4.4-15-3.6-28.3-3.3-31.6c2.7-1.4,15.3-7.4,32.5-7.4s29.9,6,32.5,7.4C232.7,46.2,233.6,59.5,229.2,74.5z"/>
	<path class="st3" d="M188.8,52c-3.4-0.6-6.8-0.7-10.2,0c0,0.6,0,1.1,0,1.6c3.4,0,6.8,0,10.2,0c0-0.5,0-0.9,0-1.4
		C188.9,52.1,188.8,52.1,188.8,52z"/>
	<path class="st3" d="M200,38.1c-17.7,0-29.9,6.9-29.9,6.9s-1.5,13.3,3,28.5c5.7,19.6,26.9,30.2,26.9,30.2s21.2-10.5,26.9-30.2
		c4.5-15.3,3-28.5,3-28.5S217.7,38.1,200,38.1z M192.8,50.5c0-0.1,0.2-0.2,0.3-0.2c1.9-0.4,3.8-0.7,5.7-0.7c2.7-0.1,5.3,0.2,7.9,0.7
		c0.2,0.1,0.3,0.1,0.3,0.4c0,0.5,0,1.1,0,1.6c-2-0.3-3.9-0.7-6.1-0.7c0,2.9,0,5.5,0,8.3c-0.7,0-1.3,0-2,0c0-2.8,0-5.5,0-8.3
		c-2.1,0-4.1,0.4-6.1,0.8C192.8,51.7,192.8,51.1,192.8,50.5z M206.7,68C206.7,68.1,206.7,68.1,206.7,68
		C206.7,68.1,206.6,68.1,206.7,68c-0.2,0-0.4,0-0.5,0s-0.3,0-0.4,0c-0.4,0-0.8,0-1.2,0.1s-0.8,0.2-1.2,0.3c-0.4,0.1-0.8,0.3-1.2,0.4
		c-0.4,0.2-0.7,0.3-1,0.4s-0.5,0.3-0.7,0.4s-0.3,0.2-0.4,0.2l0,0l0,0c-0.2-0.1-0.5-0.3-0.9-0.5s-0.9-0.4-1.4-0.6s-1.1-0.4-1.7-0.5
		c-0.6-0.2-1.1-0.2-1.7-0.2c-0.3,0-0.6,0-0.9,0.1c0,0,0,0-0.1,0l0,0l0,0c1-0.6,2-1,3.1-1.4s2.3-0.5,3.6-0.5s2.5,0.2,3.6,0.5
		C204.6,67,205.7,67.4,206.7,68L206.7,68z M178.7,55.7c0,1.4,0,2.7,0,4.1c-0.7,0-1.3,0-2,0c0-1.4,0-2.8,0-4.2c-1,0-1.9,0-2.9,0
		c0-0.7,0-2,0-2h2.9c0,0,0-2.1,0-3c0-0.2,0.1-0.3,0.3-0.4c3.3-0.7,6.6-0.9,9.9-0.5c1.2,0.1,2.5,0.4,3.7,0.5c0.2,0,0.3,0.1,0.3,0.3
		c0,3,0,6.1,0,9.1v0.1c-0.6,0-1.3,0-2,0c0-1.4,0-2.7,0-4.1C185.4,55.7,182.1,55.7,178.7,55.7z M190.1,83.8c-0.2,0.7-0.3,1.3-0.3,1.9
		c0,0.2,0,0.3,0,0.5c0,0.1,0,0.3,0.1,0.4l0,0l0,0l0,0l0,0c-0.8-1.1-1.5-2.3-1.9-3.6c-0.5-1.3-0.7-2.7-0.7-4.2c0-0.9,0.1-1.7,0.3-2.6
		c0.2-0.8,0.4-1.6,0.8-2.4c0.3-0.8,0.7-1.5,1.2-2.2s1-1.3,1.6-1.9h0.1c0.1,0,0.2,0,0.3,0c0.2,0,0.4,0,0.6,0.1c0.3,0.1,0.6,0.2,1,0.5
		c0.4,0.2,0.9,0.6,1.5,1s1.2,1,2,1.8c0,0,0,0,0,0.1l0,0c-0.4,0.5-0.8,1-1.3,1.7c-0.5,0.6-1,1.3-1.5,2.1c-0.5,0.7-1,1.5-1.5,2.3
		s-0.9,1.6-1.3,2.4C190.6,82.4,190.3,83.1,190.1,83.8z M208.7,88.1c-0.1,0.2-0.1,0.3-0.3,0.4c-0.6,0.5-1.2,0.9-1.8,1.3s-1.3,0.7-2,1
		s-1.4,0.5-2.2,0.6s-1.6,0.2-2.4,0.2c-0.8,0-1.6-0.1-2.4-0.2c-0.8-0.1-1.5-0.3-2.2-0.6c-0.7-0.3-1.4-0.6-2-1s-1.2-0.8-1.8-1.3
		c-0.1-0.1-0.2-0.3-0.3-0.4c-0.1-0.2-0.1-0.4-0.1-0.6c0-0.5,0.1-1,0.4-1.6c0.3-0.6,0.6-1.3,1.1-1.9c0.5-0.7,1-1.4,1.6-2.1
		s1.2-1.4,1.9-2.1c0.6-0.7,1.3-1.3,1.9-1.9c0.6-0.6,1.2-1.1,1.8-1.5l0,0l0,0c0.4,0.3,0.9,0.7,1.3,1.1c0.5,0.4,1,0.9,1.4,1.3
		c0.5,0.5,1,1,1.5,1.5s0.9,1,1.4,1.6c0.4,0.5,0.9,1.1,1.2,1.6c0.4,0.5,0.7,1,1,1.5s0.5,0.9,0.7,1.4c0.2,0.4,0.2,0.8,0.2,1.2
		C208.8,87.7,208.7,87.9,208.7,88.1z M212.1,83.1c-0.5,1.3-1.1,2.5-1.9,3.6c0,0,0,0-0.1,0l0,0l0,0c0.1-0.3,0.1-0.6,0.1-0.9
		c0-0.6-0.1-1.2-0.3-1.9c-0.2-0.7-0.5-1.4-0.9-2.2c-0.4-0.8-0.8-1.5-1.3-2.3s-0.9-1.6-1.4-2.3c-0.5-0.7-1-1.4-1.5-2.1
		s-0.9-1.2-1.3-1.7l0,0l0,0c0.7-0.7,1.4-1.3,2-1.8c0.6-0.4,1-0.8,1.5-1c0.4-0.2,0.7-0.4,1-0.5s0.5-0.1,0.6-0.1s0.2,0,0.3,0
		s0.1,0,0.1,0.1c0.6,0.6,1.1,1.2,1.6,1.9c0.5,0.7,0.9,1.4,1.2,2.2c0.3,0.8,0.6,1.6,0.8,2.4s0.3,1.7,0.3,2.6
		C212.8,80.4,212.5,81.8,212.1,83.1z M223.4,58.6c0,0.4-0.1,0.5-0.5,0.6c-4.5,0.9-8.9,0.9-13.4,0c-0.3-0.1-0.4-0.1-0.4-0.4
		c0-2.7,0-5.4,0-8c0-0.3,0.1-0.4,0.3-0.4c4.5-1,9-0.9,13.6,0c0.3,0.1,0.3,0.2,0.3,0.4c0,0.6,0,1.1,0,1.7c-1.1-0.2-2.2-0.4-3.2-0.5
		c-2.4-0.4-4.9-0.4-7.3-0.1c-0.4,0.1-0.9,0.1-1.3,0.2c-0.2,0-0.3,0.1-0.3,0.3c0,1.7,0,3.4,0,5.1v0.1c3.4,0.6,6.7,0.7,10.2,0
		c0-0.3,0-1.8,0-1.8H218l0.5-2.1h7.4c0.4,0,0.4,0.1,0.4,0.4v1.6h-2.9V58.6z"/>
</g>
</svg>
