<?xml version="1.0" encoding="utf-8"?>
<!-- Generator: Adobe Illustrator 23.0.6, SVG Export Plug-In . SVG Version: 6.00 Build 0)  -->
<svg version="1.1" id="Layer_1" xmlns="http://www.w3.org/2000/svg" xmlns:xlink="http://www.w3.org/1999/xlink" x="0px" y="0px"
	 viewBox="0 0 285 100" style="enable-background:new 0 0 285 100;" xml:space="preserve">
<style type="text/css">
	.st0{fill:#2F2F2F;}
	.st1{display:none;}
	.st2{display:inline;}
	.st3{fill:#5DC21E;}
	.st4{fill:#FFFFFF;}
	.st5{opacity:0.5;}
	.st6{fill:url(#SVGID_1_);}
</style>
<g id="bg">
	<rect x="-0.3" class="st0" width="285" height="100"/>
</g>
<g class="st1">
	<g class="st2">
		<path class="st3" d="M187.7,61c-2.5-3.5-7.5-3.4-8.5-3.3h-32.5L132.4,49c0.1-0.8,0.3-1.6,0.6-2.4c0.4-1.2,0.9-2.4,1.4-3.6
			c1-2,1.7-4,2.2-6s0.7-4.2,0.7-6.4c0-0.9-0.2-1.8-0.5-2.6c-0.3-0.8-0.8-1.5-1.4-2.1c-0.6-0.6-1.3-1.1-2.1-1.4s-1.7-0.5-2.6-0.5
			c-1,0-1.8,0.2-2.5,0.6s-1.4,0.9-2.1,1.6l-23.2,25.7c-1.3,1.3-2.7,2.2-4.3,2.9c-1.6,0.7-2.5,1-4.3,1h-6.5v26.4l42.4,0.1
			c8.2,0,19.7-2.5,20.6-2.7c5.6-1.1,33.3-6.4,35.6-7.1c1.4-0.5,2.5-1.6,3-3.1C190.2,66.9,189.5,63.5,187.7,61z M184.5,67.5
			c-3,0.8-22.6,4.6-34.7,6.9h-0.1c-0.1,0-11.7,2.5-19.5,2.5H93.1V61.1h1.2c2.5,0,4.1-0.5,6.3-1.4c1.1-0.5,2.2-1,3.2-1.7
			s2-1.4,2.8-2.3l23.2-25.9c0.1-0.1,0.2-0.2,0.4-0.4c0.1-0.1,0.3-0.2,0.4-0.2c0.4,0,0.7,0.1,1,0.4c0.2,0.2,0.4,0.6,0.4,1
			c0,1.8-0.2,3.5-0.6,5.2c-0.4,1.7-1,3.3-1.8,4.9c-0.6,1.3-1.1,2.6-1.5,3.8c-0.4,1.2-0.7,2.4-0.9,3.6c-0.2,1.2-0.3,2.4-0.4,3.7
			s-0.1,2.6-0.1,4.1l2.6-2.6L145,63h34.2h0.2c0.8-0.1,3.2,0.1,4,1.1C184.4,65.3,184.6,66.9,184.5,67.5z"/>
		<g>
			<path class="st4" d="M197.6,40c-0.1-0.8-0.2-1.6-0.3-2.3c-0.1-0.8-0.3-1.7-0.6-2.7s-0.6-2-0.9-3c-0.4-1-0.7-2.1-1.2-3.2
				c-0.4-1.1-0.8-2.1-1.3-3.1c-0.4-1-0.9-2-1.3-2.9c-0.4-0.9-0.8-1.8-1.2-2.5c-0.2-0.4-0.4-0.7-0.7-1s-0.5-0.6-0.8-0.9
				c0-0.2,0-0.4,0-0.7c0-0.2,0-0.4-0.1-0.6c0-0.2-0.1-0.4-0.2-0.5c-0.1-0.2-0.3-0.3-0.5-0.5c-0.2-0.1-0.5-0.3-0.9-0.4
				c-0.4-0.1-0.9-0.3-1.4-0.4c-0.5-0.1-1-0.3-1.4-0.4c-0.5-0.1-0.8-0.2-1.1-0.3c-0.7-0.1-1.3-0.2-2-0.3s-1.4-0.1-2-0.1
				c-0.3,0-0.6,0-0.9,0c-0.3,0-0.6,0.1-0.9,0.2l0,0c-0.4,0.2-0.8,0.4-1.2,0.7c-0.4,0.2-0.8,0.5-1.2,0.7h-4.8h-0.8h-4
				c-0.4-0.2-0.8-0.4-1.2-0.7c-0.4-0.2-0.8-0.5-1.2-0.7l0,0c-0.2-0.1-0.5-0.2-0.9-0.2c-0.3,0-0.6,0-0.9,0c-0.7,0-1.3,0-2,0.1
				s-1.4,0.2-2,0.3c-0.2,0.1-0.6,0.1-1.1,0.3c-0.5,0.1-0.9,0.2-1.4,0.4s-0.9,0.3-1.4,0.4c-0.4,0.2-0.7,0.3-0.9,0.4
				c-0.2,0.1-0.4,0.3-0.5,0.5s-0.2,0.3-0.2,0.5s-0.1,0.4-0.1,0.6s0,0.4,0,0.7c-0.3,0.3-0.6,0.6-0.8,0.9c-0.3,0.3-0.5,0.6-0.7,1
				c-0.4,0.8-0.8,1.6-1.2,2.5s-0.9,1.9-1.3,2.9c-0.4,1-0.9,2.1-1.3,3.1c-0.4,1.1-0.8,2.1-1.2,3.2c-0.4,1-0.7,2-0.9,3
				c-0.3,1-0.5,1.8-0.6,2.7c-0.1,0.8-0.3,1.6-0.3,2.3c-0.1,0.8-0.1,1.6-0.1,2.4c0,1,0.1,2.1,0.3,3c0.2,1,0.6,1.9,1.2,2.8
				c0.3,0.4,0.6,0.8,1,1.2s0.8,0.7,1.3,1s1,0.5,1.5,0.7s1,0.3,1.5,0.3s1.2-0.2,1.8-0.7c0.7-0.5,1.4-1,2-1.7c0.7-0.7,1.3-1.3,1.9-2
				c0.6-0.7,1.1-1.2,1.4-1.6c0.4-0.4,0.8-0.9,1.2-1.4s0.9-1,1.4-1.3l0.6-0.4c0.4-0.2,0.7-0.4,1.1-0.6c0.4-0.1,0.8-0.2,1.2-0.3
				s0.8-0.1,1.3-0.1c0.4,0,0.8,0,1.2,0h5.1l0,0l0,0h5.1c0.4,0,0.8,0,1.2,0s0.8,0,1.3,0.1c0.4,0.1,0.8,0.1,1.2,0.3
				c0.4,0.1,0.8,0.3,1.1,0.6l0.6,0.4c0.5,0.4,0.9,0.8,1.4,1.3c0.4,0.5,0.8,1,1.2,1.4s0.8,1,1.4,1.6c0.6,0.7,1.2,1.4,1.9,2
				c0.7,0.7,1.3,1.2,2,1.7s1.3,0.7,1.8,0.7s1-0.1,1.5-0.3s1-0.4,1.5-0.7s0.9-0.6,1.3-1c0.4-0.4,0.7-0.8,1-1.2c0.6-0.9,1-1.8,1.2-2.8
				s0.3-2,0.3-3C197.7,41.6,197.7,40.8,197.6,40z M192.8,43.5c-0.1,0.6-0.3,1.1-0.5,1.6s-0.4,1.1-0.9,1.3c-1.3,0.4-6.5-7-7.9-8.1
				c-0.4-0.3-1.4-0.7-2-0.8c-0.5-0.1-1.1-0.1-1.6-0.2c-0.6,0-3.9,0-4.5,0h-1.5h-6.5h-1.5c-0.6,0-3.9,0-4.5,0s-1.1,0.1-1.6,0.2
				c-0.5,0.1-1.5,0.5-2,0.8c-1.4,1-6.6,8.5-7.9,8.1c-0.5-0.2-0.7-0.8-0.9-1.3s-0.4-1-0.5-1.6s-0.1-1.1-0.1-1.7c0-0.6,0-1.3,0.1-2
				s0.2-1.3,0.3-1.9c0.3-1.8,0.8-3.5,1.5-5.2c0.6-1.7,1.3-3.4,2-5c0.4-0.9,0.8-1.8,1.1-2.7c0.4-0.9,0.8-1.8,1.2-2.6
				c0.1-0.2,0.2-0.4,0.4-0.5c0.2-0.2,0.3-0.3,0.5-0.4c0.4-0.3,0.7-0.5,0.7-0.8c0.1-0.3,0.1-0.6,0.1-1.1c0.9-0.3,1.9-0.6,2.9-0.8
				s2-0.3,2.9-0.3c0.1,0,0.2,0,0.3,0s0.2,0,0.3,0c0.6,0.4,1.1,0.6,1.4,0.8c0.3,0.2,0.6,0.3,0.9,0.4c0.3,0.1,0.6,0.2,0.9,0.2
				c0.2,0,0.4,0,0.7,0h3.2h0.8h4c0.3,0,0.5,0,0.7,0c0.3,0,0.7-0.1,0.9-0.2c0.3-0.1,0.6-0.2,0.9-0.4c0.3-0.2,0.8-0.5,1.4-0.8
				c0.1,0,0.2,0,0.3,0s0.2,0,0.3,0c1,0,2,0.1,2.9,0.3c1,0.2,1.9,0.5,2.9,0.8c0,0.5,0,0.8,0.1,1.1c0.1,0.3,0.3,0.5,0.7,0.8
				c0.2,0.1,0.4,0.2,0.5,0.4c0.2,0.2,0.3,0.3,0.4,0.5c0.5,0.8,0.9,1.7,1.2,2.6c0.4,0.9,0.7,1.8,1.1,2.7c0.7,1.6,1.3,3.3,2,5
				c0.6,1.7,1.1,3.4,1.5,5.2c0.1,0.6,0.2,1.3,0.3,1.9c0.1,0.7,0.1,1.3,0.1,2C192.9,42.4,192.9,42.9,192.8,43.5z"/>
			<path class="st4" d="M170.6,23.1c-0.7,0-1.2,0.2-1.7,0.7s-0.7,1-0.7,1.7s0.2,1.2,0.7,1.7s1,0.7,1.7,0.7s1.2-0.2,1.7-0.7
				s0.7-1,0.7-1.7s-0.2-1.2-0.7-1.7C171.8,23.3,171.3,23.1,170.6,23.1z"/>
		</g>
	</g>
</g>
<g id="Layer_4" class="st1">
	<g class="st2">
		<g>
			<path class="st4" d="M172.9,30.9h11.4v40h-10v11.4l-11.4-11.4h-39.4l-5,5h42.2l18.6,18.6V75.9h10v-50h-16.4L172.9,30.9
				L172.9,30.9z"/>
		</g>
		<g>
			<g>
				<path class="st3" d="M138.4,34.8c-0.5-0.5-1-0.8-1.6-1.1s-1.3-0.4-2-0.4s-1.4,0.1-2,0.4c-0.6,0.3-1.1,0.6-1.6,1.1
					s-0.8,1-1.1,1.6s-0.4,1.3-0.4,2s0.1,1.4,0.4,2c0.3,0.6,0.6,1.1,1.1,1.6s1,0.8,1.6,1.1s1.3,0.4,2,0.4s1.4-0.1,2-0.4
					c0.6-0.3,1.1-0.6,1.6-1.1s0.8-1,1.1-1.6s0.4-1.3,0.4-2s-0.1-1.4-0.4-2C139.2,35.8,138.8,35.3,138.4,34.8z"/>
				<path class="st3" d="M159.5,36.4c-0.3-0.6-0.6-1.1-1.1-1.6s-1-0.8-1.6-1.1s-1.3-0.4-2-0.4s-1.4,0.1-2,0.4
					c-0.6,0.3-1.1,0.6-1.6,1.1s-0.8,1-1.1,1.6s-0.4,1.3-0.4,2s0.1,1.4,0.4,2c0.3,0.6,0.6,1.1,1.1,1.6s1,0.8,1.6,1.1s1.3,0.4,2,0.4
					s1.4-0.1,2-0.4c0.6-0.3,1.1-0.6,1.6-1.1s0.8-1,1.1-1.6s0.4-1.3,0.4-2S159.7,37,159.5,36.4z"/>
				<path class="st3" d="M118.4,34.8c-0.5-0.5-1-0.8-1.6-1.1s-1.3-0.4-2-0.4s-1.4,0.1-2,0.4c-0.6,0.3-1.1,0.6-1.6,1.1
					s-0.8,1-1.1,1.6c-0.3,0.6-0.4,1.3-0.4,2s0.1,1.4,0.4,2s0.6,1.1,1.1,1.6s1,0.8,1.6,1.1s1.3,0.4,2,0.4s1.4-0.1,2-0.4
					c0.6-0.3,1.1-0.6,1.6-1.1s0.8-1,1.1-1.6c0.3-0.6,0.4-1.3,0.4-2s-0.1-1.4-0.4-2S118.8,35.3,118.4,34.8z"/>
			</g>
			<path class="st3" d="M174.9,25.9V13.3h-80v50h10v18.6l18.6-18.6h51.4V30.9V25.9z M169.9,58.3h-48.6l-11.4,11.4V58.3h-10v-40h70
				V58.3z"/>
		</g>
	</g>
	<g class="st2">
		<path class="st4" d="M275,14.8v9.6c0,1.9-0.2,3.7-0.7,5.3s-1.1,3.2-2,4.7s-1.8,2.9-3,4.2s-2.4,2.5-3.7,3.7s-2.7,2.2-4.2,3.2
			s-2.9,1.9-4.4,2.8c-1.5-0.9-3-1.8-4.4-2.8s-2.9-2.1-4.2-3.2s-2.6-2.4-3.7-3.7s-2.1-2.7-3-4.2s-1.5-3.1-2-4.7s-0.7-3.4-0.7-5.3
			v-9.6c1,0,2,0,3-0.1s1.9-0.2,2.8-0.4s1.8-0.5,2.7-0.8s1.8-0.8,2.7-1.4c1.1-0.7,2.1-1.2,3.2-1.5s2.2-0.5,3.5-0.5
			c0.6,0,1.2,0,1.8,0.1s1.1,0.2,1.7,0.4s1.1,0.4,1.6,0.6s1.1,0.6,1.6,0.9c0.9,0.6,1.8,1,2.7,1.4s1.8,0.6,2.7,0.8s1.9,0.3,2.8,0.4
			S274,14.8,275,14.8z M272.9,24.3v-7.4c-1.9-0.1-3.7-0.4-5.4-0.9s-3.4-1.3-5-2.3c-0.9-0.6-1.7-1-2.6-1.2s-1.8-0.4-2.8-0.4
			s-2,0.1-2.8,0.4s-1.7,0.7-2.6,1.2c-1.6,1-3.3,1.8-5,2.3s-3.5,0.8-5.4,0.9v7.4c0,1.6,0.2,3.2,0.6,4.6s1,2.9,1.7,4.2
			s1.6,2.6,2.6,3.8s2.1,2.3,3.3,3.4s2.4,2,3.7,2.9s2.6,1.7,3.9,2.5c1.3-0.7,2.6-1.6,3.9-2.5s2.5-1.9,3.7-2.9s2.3-2.2,3.3-3.4
			s1.9-2.5,2.6-3.8s1.3-2.8,1.7-4.2S272.9,25.9,272.9,24.3z M257.1,18.8c0.6,0,1.3,0.1,1.8,0.4s1.1,0.6,1.5,1s0.8,0.9,1,1.5
			s0.4,1.2,0.4,1.8v1.9h1.9v9.4h-13.1v-9.4h1.9v-1.9c0-0.6,0.1-1.3,0.4-1.8s0.6-1.1,1-1.5s0.9-0.8,1.5-1S256.4,18.8,257.1,18.8z
			 M254.3,25.4h5.6v-1.9c0-0.4-0.1-0.8-0.2-1.1s-0.3-0.6-0.6-0.9s-0.6-0.5-0.9-0.6s-0.7-0.2-1.1-0.2s-0.8,0.1-1.1,0.2
			s-0.6,0.3-0.9,0.6s-0.5,0.6-0.6,0.9s-0.2,0.7-0.2,1.1L254.3,25.4L254.3,25.4z"/>
	</g>
</g>
<g id="Layer_5" class="st1">
	<g class="st2">
		<path class="st3" d="M102.5,16.6h80v55h-51.4l-18.6,18.6V71.6h-10C102.5,71.6,102.5,16.6,102.5,16.6z M177.5,66.6v-45h-70v45h10
			V78l11.4-11.4H177.5z"/>
		<rect x="117.5" y="31.6" class="st4" width="50" height="5"/>
		<rect x="117.5" y="41.6" class="st4" width="50" height="5"/>
		<rect x="117.5" y="51.6" class="st4" width="26" height="5"/>
	</g>
	<g class="st2">
		<path class="st4" d="M275,14.8v9.6c0,1.9-0.2,3.7-0.7,5.3s-1.1,3.2-2,4.7s-1.8,2.9-3,4.2s-2.4,2.5-3.7,3.7s-2.7,2.2-4.2,3.2
			s-2.9,1.9-4.4,2.8c-1.5-0.9-3-1.8-4.4-2.8s-2.9-2.1-4.2-3.2s-2.6-2.4-3.7-3.7s-2.1-2.7-3-4.2s-1.5-3.1-2-4.7s-0.7-3.4-0.7-5.3
			v-9.6c1,0,2,0,3-0.1s1.9-0.2,2.8-0.4s1.8-0.5,2.7-0.8s1.8-0.8,2.7-1.4c1.1-0.7,2.1-1.2,3.2-1.5s2.2-0.5,3.5-0.5
			c0.6,0,1.2,0,1.8,0.1s1.1,0.2,1.7,0.4s1.1,0.4,1.6,0.6s1.1,0.6,1.6,0.9c0.9,0.6,1.8,1,2.7,1.4s1.8,0.6,2.7,0.8s1.9,0.3,2.8,0.4
			S274,14.8,275,14.8z M272.9,24.3v-7.4c-1.9-0.1-3.7-0.4-5.4-0.9s-3.4-1.3-5-2.3c-0.9-0.6-1.7-1-2.6-1.2s-1.8-0.4-2.8-0.4
			s-2,0.1-2.8,0.4s-1.7,0.7-2.6,1.2c-1.6,1-3.3,1.8-5,2.3s-3.5,0.8-5.4,0.9v7.4c0,1.6,0.2,3.2,0.6,4.6s1,2.9,1.7,4.2
			s1.6,2.6,2.6,3.8s2.1,2.3,3.3,3.4s2.4,2,3.7,2.9s2.6,1.7,3.9,2.5c1.3-0.7,2.6-1.6,3.9-2.5s2.5-1.9,3.7-2.9s2.3-2.2,3.3-3.4
			s1.9-2.5,2.6-3.8s1.3-2.8,1.7-4.2S272.9,25.9,272.9,24.3z M257.1,18.8c0.6,0,1.3,0.1,1.8,0.4s1.1,0.6,1.5,1s0.8,0.9,1,1.5
			s0.4,1.2,0.4,1.8v1.9h1.9v9.4h-13.1v-9.4h1.9v-1.9c0-0.6,0.1-1.3,0.4-1.8s0.6-1.1,1-1.5s0.9-0.8,1.5-1S256.4,18.8,257.1,18.8z
			 M254.3,25.4h5.6v-1.9c0-0.4-0.1-0.8-0.2-1.1s-0.3-0.6-0.6-0.9s-0.6-0.5-0.9-0.6s-0.7-0.2-1.1-0.2s-0.8,0.1-1.1,0.2
			s-0.6,0.3-0.9,0.6s-0.5,0.6-0.6,0.9s-0.2,0.7-0.2,1.1L254.3,25.4L254.3,25.4z"/>
	</g>
</g>
<g class="st5">
	
		<linearGradient id="SVGID_1_" gradientUnits="userSpaceOnUse" x1="176.8" y1="-60" x2="176.8" y2="-124.8" gradientTransform="matrix(1 0 0 1 0 160)">
		<stop  offset="0" style="stop-color:#000000;stop-opacity:0"/>
		<stop  offset="1" style="stop-color:#000000"/>
	</linearGradient>
	<polygon class="st6" points="285,100 285,85 207.6,40.3 196.3,41.2 194.7,40.3 191.1,45.7 182.1,40.3 181,41.7 178.7,40.3 
		177.2,46.8 166.2,40.3 165,44.1 158.6,40.3 154.2,44.8 146.7,40.3 148.5,44.8 141.6,40.7 135.4,41 131.5,44 126.4,40.9 116.8,41.7 
		114.5,40.3 110.1,44.8 102.5,40.3 106.8,47.5 88.1,36.6 80.9,35.2 73.5,36.6 70.8,38.7 68.6,54.1 73.9,60.8 141.3,100 	"/>
</g>
<g>
	<path class="st4" d="M80.9,45.7c1,0.9,2,1.7,2.9,2.6c2,1.9,3.8,3.9,5.3,6.2c0.5,0.8,0.9,1.6,1.2,2.5c0.4,1,0.1,1.8-0.8,2.5
		c-5.2,4.1-12.7,4-17.7-0.2c-0.6-0.5-0.8-1.1-0.6-1.8c0.2-1.2,0.8-2.3,1.5-3.3c2.2-3.2,4.8-5.9,7.8-8.3
		C80.7,45.8,80.8,45.8,80.9,45.7z"/>
	<path class="st4" d="M126.3,48.2c1.1,0.6,1.9,1.3,2.3,2.5c0.7,2.5-0.2,5.4-3.7,6.2c-0.6,0.1-1.2,0.2-1.7,0.2c-2.3,0-4.5,0-6.8,0
		c-0.1,0-0.2,0-0.3,0c0-1.3,0-2.6,0-3.9c0-1.3,0-2.6,0-3.9c-1.2,0-2.3,0-3.5,0c0.4-0.6,0.8-1.1,1.2-1.6c0.1-0.1,0.3-0.1,0.4-0.1
		c0.6,0,1.2,0,1.9,0c0-2.4,0-4.8,0-7.2c0.2,0,0.3,0,0.5,0c2.2,0,4.3,0,6.5,0c0.8,0,1.7,0.1,2.5,0.4c1.8,0.6,2.7,1.9,2.9,3.7
		C128.4,46,127.8,47.3,126.3,48.2z M117.9,55.3c0.1,0,0.2,0,0.2,0c1.6,0,3.3,0,4.9,0c0.8,0,1.7-0.2,2.4-0.6c1.8-1,2-3.9,0.2-4.9
		c-0.6-0.3-1.2-0.5-1.9-0.6c-1.7-0.1-3.4-0.1-5.2-0.1c-0.2,0-0.5,0-0.7,0C117.9,51.3,117.9,53.3,117.9,55.3z M117.9,47.5
		c1.9,0,3.8,0,5.7,0c0.5,0,1-0.2,1.4-0.4c1-0.5,1.3-1.4,1.3-2.4c0-1.1-0.6-1.9-1.6-2.2c-0.5-0.2-1-0.3-1.4-0.3c-1.7,0-3.5,0-5.2,0
		c-0.1,0-0.1,0-0.2,0C117.9,43.9,117.9,45.7,117.9,47.5z"/>
	<path class="st4" d="M77.1,42.1c-0.7,1-1.4,1.8-2.1,2.7c-1.8,2.5-3.5,5.2-4.7,8.1c-0.4,1-0.7,2.1-0.7,3.2c0,0.3,0.1,0.6,0.1,0.8
		L69.6,57c0-0.1-0.1-0.2-0.1-0.3c-4-5.4-3.5-13.3,1.3-18.1c0.4-0.4,0.8-0.3,1.1-0.2c0.6,0.2,1.2,0.5,1.8,0.9
		C74.9,40.3,76,41.2,77.1,42.1z"/>
	<path class="st4" d="M84.6,42.2c1.5-1.4,2.9-2.8,4.8-3.6c0.8-0.3,1.1-0.2,1.8,0.5c4.4,4.9,4.8,12.1,1.1,17.5
		c-0.1,0.1-0.2,0.3-0.4,0.5c0.4-2.5-0.6-4.5-1.7-6.5c-1.5-2.9-3.3-5.5-5.3-8C84.9,42.5,84.8,42.4,84.6,42.2z"/>
	<path class="st4" d="M145.7,48.7c0,2.4-0.7,4.6-2.4,6.4c-3.3,3.5-10.5,3.3-12.9-2.4c-1.4-3.4-1.2-6.8,0.9-9.8
		c1.9-2.6,4.6-3.4,7.7-3c3,0.5,5,2.3,6.1,5.1C145.6,46.3,145.7,47.5,145.7,48.7z M131.6,48.7h-0.1c0.2,1,0.3,2.1,0.7,3
		c0.8,2.3,2.5,3.7,5,3.9c2.4,0.2,4.4-0.7,5.6-2.8c1.5-2.7,1.5-5.4,0.1-8.1c-1.9-3.5-6.6-4.1-9.4-1.2C132.1,45,131.6,46.7,131.6,48.7
		z"/>
	<path class="st4" d="M206.9,47.6c0,0.6,0,1.1,0,1.7c-3.1,0-6.2,0-9.2,0c0,2.1,0,4.1,0,6.2c3.3,0,6.6,0,10,0c0,0.6,0,1.1,0,1.6
		c-3.9,0-7.9,0-11.8,0c0-5.6,0-11.2,0-16.8c3.9,0,7.8,0,11.7,0c0,0.5,0,1,0,1.6c-3.3,0-6.5,0-9.8,0c0,1.9,0,3.8,0,5.7
		C200.8,47.6,203.8,47.6,206.9,47.6z"/>
	<path class="st4" d="M151.6,49.9c-0.8,1.1-1.6,2.1-2.3,3.1c-0.9,1.3-1.9,2.5-2.8,3.8c-0.2,0.2-0.3,0.3-0.6,0.3c-0.6,0-1.2,0-1.9,0
		c0.1-0.2,0.2-0.3,0.3-0.5c1.9-2.7,3.9-5.3,5.9-8c0.2-0.3,0.2-0.5,0-0.8c-1.7-2.3-3.5-4.7-5.2-7c-0.1-0.2-0.2-0.3-0.4-0.6
		c0.8,0,1.5,0,2.1,0c0.1,0,0.2,0.2,0.3,0.3c1.4,1.9,2.7,3.7,4.1,5.6c0.1,0.2,0.3,0.4,0.5,0.6c0.5-0.7,0.9-1.3,1.4-1.9
		c1.1-1.4,2.1-2.9,3.1-4.3c0.2-0.2,0.4-0.4,0.7-0.3c0.6,0,1.2,0,1.8,0c-2,2.7-4,5.4-5.9,8c2.1,2.9,4.3,5.8,6.5,8.8
		c-0.8,0-1.5,0-2.2,0c-0.1,0-0.3-0.2-0.4-0.4c-1.6-2.2-3.2-4.4-4.8-6.5C151.7,50.1,151.7,50,151.6,49.9z"/>
	<path class="st4" d="M106.3,48.3c-2-2.7-3.9-5.3-5.9-8c0.8,0,1.5,0,2.1,0c0.1,0,0.2,0.2,0.3,0.3c1.4,1.9,2.8,3.7,4.1,5.6
		c0.1,0.2,0.3,0.4,0.4,0.6c0.2-0.2,0.3-0.4,0.4-0.6c1.4-1.9,2.7-3.7,4.1-5.6c0.2-0.3,0.4-0.4,0.8-0.4c0.5,0,1.1,0,1.8,0
		c-2,2.7-4,5.4-5.9,8c2.1,2.9,4.3,5.8,6.5,8.8c-0.8,0-1.4,0-2.1,0c-0.1,0-0.3-0.2-0.4-0.3c-1.6-2.2-3.2-4.3-4.8-6.5
		c-0.1-0.1-0.2-0.3-0.4-0.5c-0.7,0.9-1.3,1.8-2,2.7c-1.1,1.4-2.1,2.9-3.2,4.3c-0.2,0.2-0.3,0.3-0.6,0.3c-0.6,0-1.2,0-1.9,0
		C102,54.1,104.2,51.2,106.3,48.3z"/>
	<path class="st4" d="M180.2,40.3c0.6,0,1.3,0,1.9,0c0.1,0,0.3,0.2,0.4,0.4c1.3,3.5,2.5,7,3.7,10.6c0.4,1.2,0.8,2.4,1.3,3.6
		c0.1-0.2,0.2-0.4,0.2-0.5c1.6-4.5,3.2-9.1,4.8-13.6c0.1-0.4,0.3-0.5,0.7-0.5c0.5,0,1,0,1.6,0c-0.4,1.1-0.8,2.2-1.1,3.2
		c-1.6,4.4-3.1,8.7-4.7,13.1c-0.1,0.4-0.3,0.6-0.8,0.5c-0.6-0.1-1.1,0-1.7,0c-0.3,0-0.4-0.1-0.5-0.3c-1.9-5.4-3.8-10.8-5.7-16.3
		C180.3,40.5,180.3,40.4,180.2,40.3z"/>
	<path class="st4" d="M164.3,40.3c0.7,0,1.3,0,1.9,0c0,5,0,10,0,15c3.1,0,6.1,0,9.2,0c0,0.6,0,1.2,0,1.8c-3.7,0-7.4,0-11.1,0
		C164.3,51.5,164.3,45.9,164.3,40.3z"/>
	<path class="st4" d="M178.7,57.1c-0.7,0-1.3,0-1.9,0c0-5.6,0-11.2,0-16.8c0.6,0,1.3,0,1.9,0C178.7,45.9,178.7,51.5,178.7,57.1z"/>
	<path class="st4" d="M88.1,36.6c-2.5-0.2-4.7,0.8-6.9,1.9c-0.3,0.2-0.5,0.2-0.8,0c-1.6-0.9-3.2-1.6-5.1-1.8c-0.6-0.1-1.2,0-1.9,0
		c2.3-1.4,4.7-2.1,7.4-2.1C83.4,34.5,85.9,35.2,88.1,36.6z"/>
</g>
</svg>
