<?xml version="1.0" encoding="utf-8"?>
<!-- Generator: Adobe Illustrator 21.1.0, SVG Export Plug-In . SVG Version: 6.00 Build 0)  -->
<svg version="1.1" id="Layer_1" xmlns="http://www.w3.org/2000/svg" xmlns:xlink="http://www.w3.org/1999/xlink" x="0px" y="0px"
	 viewBox="0 0 400 140" style="enable-background:new 0 0 400 140;" xml:space="preserve">
<style type="text/css">
	.st0{fill:#2F2F2F;}
	.st1{display:none;}
	.st2{display:inline;}
	.st3{clip-path:url(#SVGID_2_);fill:none;stroke:#008077;stroke-width:2.3421;stroke-miterlimit:10;}
	.st4{clip-path:url(#SVGID_4_);fill:none;stroke:#008077;stroke-width:2.3661;stroke-miterlimit:10;}
	.st5{clip-path:url(#SVGID_6_);fill:none;stroke:#5CC3B9;stroke-width:2.3421;stroke-miterlimit:10;}
	.st6{clip-path:url(#SVGID_8_);fill:none;stroke:#5CC3B9;stroke-width:2.3661;stroke-miterlimit:10;}
	.st7{clip-path:url(#SVGID_10_);}
	.st8{fill:none;stroke:#515050;stroke-width:2.3661;stroke-miterlimit:10;}
	.st9{fill:none;stroke:#737374;stroke-width:2.3661;stroke-miterlimit:10;}
	.st10{clip-path:url(#SVGID_12_);}
	.st11{clip-path:url(#SVGID_14_);}
	.st12{fill:none;stroke:#008077;stroke-width:2.3661;stroke-miterlimit:10;}
	.st13{fill:none;stroke:#5CC3B9;stroke-width:2.3661;stroke-miterlimit:10;}
	.st14{clip-path:url(#SVGID_16_);}
	.st15{display:inline;fill:#5CC3B9;}
	.st16{font-family:'ArialMT';}
	.st17{font-size:32px;}
	.st18{clip-path:url(#SVGID_18_);fill:none;stroke:#008076;stroke-width:2.3747;stroke-miterlimit:10;}
	.st19{clip-path:url(#SVGID_20_);fill:none;stroke:#D73B02;stroke-width:2.3991;stroke-miterlimit:10;}
	.st20{clip-path:url(#SVGID_22_);fill:none;stroke:#31DEC9;stroke-width:2.3747;stroke-miterlimit:10;}
	.st21{clip-path:url(#SVGID_24_);fill:none;stroke:#FE9249;stroke-width:2.3991;stroke-miterlimit:10;}
	.st22{clip-path:url(#SVGID_26_);}
	.st23{fill:none;stroke:#505050;stroke-width:2.3991;stroke-miterlimit:10;}
	.st24{fill:none;stroke:#737373;stroke-width:2.3991;stroke-miterlimit:10;}
	.st25{clip-path:url(#SVGID_28_);}
	.st26{fill:none;stroke:#D73B02;stroke-width:2.3991;stroke-miterlimit:10;}
	.st27{fill:none;stroke:#FE9249;stroke-width:2.3991;stroke-miterlimit:10;}
	.st28{clip-path:url(#SVGID_30_);}
	.st29{clip-path:url(#SVGID_32_);}
	.st30{display:inline;fill:#FE9249;}
	.st31{clip-path:url(#SVGID_34_);fill:none;stroke:#008076;stroke-width:2.3747;stroke-miterlimit:10;}
	.st32{clip-path:url(#SVGID_36_);fill:none;stroke:#117D10;stroke-width:2.3991;stroke-miterlimit:10;}
	.st33{clip-path:url(#SVGID_38_);fill:none;stroke:#31DEC9;stroke-width:2.3747;stroke-miterlimit:10;}
	.st34{clip-path:url(#SVGID_40_);fill:none;stroke:#9AF00B;stroke-width:2.3991;stroke-miterlimit:10;}
	.st35{clip-path:url(#SVGID_42_);}
	.st36{clip-path:url(#SVGID_44_);}
	.st37{fill:none;stroke:#117D10;stroke-width:2.3991;stroke-miterlimit:10;}
	.st38{fill:none;stroke:#9AF00B;stroke-width:2.3991;stroke-miterlimit:10;}
	.st39{clip-path:url(#SVGID_46_);}
	.st40{clip-path:url(#SVGID_48_);}
	.st41{fill:#9AF00B;}
	.st42{clip-path:url(#SVGID_50_);fill:none;stroke:#008076;stroke-width:2.3715;stroke-miterlimit:10;}
	.st43{clip-path:url(#SVGID_52_);fill:none;stroke:#117D10;stroke-width:2.3958;stroke-miterlimit:10;}
	.st44{clip-path:url(#SVGID_54_);fill:none;stroke:#31DEC9;stroke-width:2.3715;stroke-miterlimit:10;}
	.st45{clip-path:url(#SVGID_56_);fill:none;stroke:#9AF00B;stroke-width:2.3958;stroke-miterlimit:10;}
	.st46{clip-path:url(#SVGID_58_);}
	.st47{fill:none;stroke:#117D10;stroke-width:2.3958;stroke-miterlimit:10;}
	.st48{fill:none;stroke:#9AF00B;stroke-width:2.3958;stroke-miterlimit:10;}
	.st49{clip-path:url(#SVGID_60_);}
	.st50{clip-path:url(#SVGID_62_);}
	.st51{clip-path:url(#SVGID_64_);}
	.st52{fill:none;stroke:#505050;stroke-width:2.3958;stroke-miterlimit:10;}
	.st53{fill:none;stroke:#737373;stroke-width:2.3958;stroke-miterlimit:10;}
	.st54{clip-path:url(#SVGID_66_);}
	.st55{clip-path:url(#SVGID_68_);}
	.st56{display:inline;fill:#9AF00B;}
	.st57{clip-path:url(#SVGID_70_);fill:none;stroke:#008076;stroke-width:2.3715;stroke-miterlimit:10;}
	.st58{clip-path:url(#SVGID_72_);fill:none;stroke:#0178D4;stroke-width:2.3958;stroke-miterlimit:10;}
	.st59{clip-path:url(#SVGID_74_);fill:none;stroke:#31DEC9;stroke-width:2.3715;stroke-miterlimit:10;}
	.st60{clip-path:url(#SVGID_76_);fill:none;stroke:#51E5FF;stroke-width:2.3958;stroke-miterlimit:10;}
	.st61{clip-path:url(#SVGID_78_);}
	.st62{fill:none;stroke:#0178D4;stroke-width:2.3958;stroke-miterlimit:10;}
	.st63{fill:none;stroke:#51E5FF;stroke-width:2.3958;stroke-miterlimit:10;}
	.st64{clip-path:url(#SVGID_80_);}
	.st65{clip-path:url(#SVGID_82_);}
	.st66{clip-path:url(#SVGID_84_);}
	.st67{clip-path:url(#SVGID_86_);}
	.st68{clip-path:url(#SVGID_88_);}
	.st69{display:inline;fill:#51E5FF;}
	.st70{clip-path:url(#SVGID_90_);fill:none;stroke:#008076;stroke-width:2.3715;stroke-miterlimit:10;}
	.st71{clip-path:url(#SVGID_92_);fill:none;stroke:#0178D4;stroke-width:2.3958;stroke-miterlimit:10;}
	.st72{clip-path:url(#SVGID_94_);fill:none;stroke:#31DEC9;stroke-width:2.3715;stroke-miterlimit:10;}
	.st73{clip-path:url(#SVGID_96_);fill:none;stroke:#51E5FF;stroke-width:2.3958;stroke-miterlimit:10;}
	.st74{clip-path:url(#SVGID_98_);}
	.st75{clip-path:url(#SVGID_100_);}
	.st76{clip-path:url(#SVGID_102_);}
	.st77{clip-path:url(#SVGID_104_);}
	.st78{clip-path:url(#SVGID_106_);}
	.st79{fill:#D29AFF;}
	.st80{fill:none;stroke:#8661C5;stroke-width:2.3;stroke-miterlimit:10;}
	.st81{fill:none;stroke:#D59DFF;stroke-width:2.3;stroke-miterlimit:10;}
	.st82{fill:none;stroke:#505050;stroke-width:2.3;stroke-miterlimit:10;}
	.st83{fill:none;stroke:#737373;stroke-width:2.3;stroke-miterlimit:10;}
</style>
<g id="bg">
	<rect class="st0" width="400" height="140"/>
</g>
<g id="game_stack" class="st1">
	<g class="st2">
		<g>
			<g>
				<g>
					<g>
						<defs>
							<rect id="SVGID_1_" x="203.4" y="0.2" width="196.7" height="139.8"/>
						</defs>
						<clipPath id="SVGID_2_">
							<use xlink:href="#SVGID_1_"  style="overflow:visible;"/>
						</clipPath>
						<path class="st3" d="M418.2,129.6"/>
					</g>
				</g>
			</g>
		</g>
		<g>
			<g>
				<g>
					<g>
						<defs>
							<rect id="SVGID_3_" x="203.4" y="0.2" width="196.7" height="139.8"/>
						</defs>
						<clipPath id="SVGID_4_">
							<use xlink:href="#SVGID_3_"  style="overflow:visible;"/>
						</clipPath>
						<polyline class="st4" points="299.5,-29.1 349.3,0 321.6,16 349.4,31.9 321.5,48 349.5,64.2 377.2,48.2 404.5,63.9 376.6,80 
							406.1,96.9 						"/>
					</g>
				</g>
			</g>
		</g>
		<g>
			<g>
				<g>
					<g>
						<defs>
							<rect id="SVGID_5_" x="203.4" y="0.2" width="196.7" height="139.8"/>
						</defs>
						<clipPath id="SVGID_6_">
							<use xlink:href="#SVGID_5_"  style="overflow:visible;"/>
						</clipPath>
						<path class="st5" d="M418.2,121.6"/>
					</g>
				</g>
			</g>
		</g>
		<g>
			<g>
				<g>
					<g>
						<defs>
							<rect id="SVGID_7_" x="203.4" y="0.2" width="196.7" height="139.8"/>
						</defs>
						<clipPath id="SVGID_8_">
							<use xlink:href="#SVGID_7_"  style="overflow:visible;"/>
						</clipPath>
						<polyline class="st6" points="299.5,-37.4 349.3,-8.3 321.6,7.6 349.4,23.6 321.5,39.7 349.5,55.8 377.2,39.9 404.5,55.6 
							376.6,71.6 406.1,88.6 						"/>
					</g>
				</g>
			</g>
		</g>
		<g>
			<g>
				<g>
					<g>
						<defs>
							<rect id="SVGID_9_" x="203.4" y="0.2" width="196.7" height="139.8"/>
						</defs>
						<clipPath id="SVGID_10_">
							<use xlink:href="#SVGID_9_"  style="overflow:visible;"/>
						</clipPath>
						<g class="st7">
							<polygon class="st8" points="349.1,127.9 376.9,111.9 349.1,96 321.4,111.9 							"/>
							<polygon class="st9" points="349.1,119.6 376.9,103.6 349.1,87.7 321.4,103.6 							"/>
						</g>
					</g>
				</g>
			</g>
		</g>
		<g>
			<g>
				<g>
					<g>
						<defs>
							<rect id="SVGID_11_" x="203.4" y="0.2" width="196.7" height="139.8"/>
						</defs>
						<clipPath id="SVGID_12_">
							<use xlink:href="#SVGID_11_"  style="overflow:visible;"/>
						</clipPath>
						<g class="st10">
							<polygon class="st8" points="404.6,159.8 432.3,143.9 404.6,127.9 376.8,143.9 							"/>
							<polygon class="st9" points="404.6,151.5 432.3,135.5 404.6,119.6 376.8,135.5 							"/>
						</g>
					</g>
				</g>
			</g>
		</g>
		<g>
			<g>
				<g>
					<g>
						<defs>
							<rect id="SVGID_13_" x="203.4" y="0.2" width="196.7" height="139.8"/>
						</defs>
						<clipPath id="SVGID_14_">
							<use xlink:href="#SVGID_13_"  style="overflow:visible;"/>
						</clipPath>
						<g class="st11">
							<polygon class="st12" points="293.6,63.9 321.3,48 293.6,32 265.9,48 							"/>
							<polygon class="st13" points="293.6,55.6 321.3,39.7 293.6,23.7 265.9,39.7 							"/>
						</g>
					</g>
				</g>
			</g>
		</g>
		<g>
			<g>
				<g>
					<g>
						<defs>
							<rect id="SVGID_15_" x="203.4" y="0.2" width="196.7" height="139.8"/>
						</defs>
						<clipPath id="SVGID_16_">
							<use xlink:href="#SVGID_15_"  style="overflow:visible;"/>
						</clipPath>
						<g class="st14">
							<polygon class="st8" points="238,32 265.8,16.1 238,0.1 210.3,16.1 							"/>
							<polygon class="st9" points="238,23.7 265.8,7.8 238,-8.2 210.3,7.8 							"/>
						</g>
					</g>
				</g>
			</g>
		</g>
	</g>
	<text transform="matrix(1 0 0 1 28.5762 78.1912)" class="st15 st16 st17">Game Stack</text>
</g>
<g id="PlayFab" class="st1">
	<g class="st2">
		<g>
			<g>
				<g>
					<g>
						<defs>
							<rect id="SVGID_17_" x="200.6" y="0.2" width="199.5" height="139.8"/>
						</defs>
						<clipPath id="SVGID_18_">
							<use xlink:href="#SVGID_17_"  style="overflow:visible;"/>
						</clipPath>
						<path class="st18" d="M418.4,131.8"/>
					</g>
				</g>
			</g>
		</g>
		<g>
			<g>
				<g>
					<g>
						<defs>
							<rect id="SVGID_19_" x="200.6" y="0.2" width="199.5" height="139.8"/>
						</defs>
						<clipPath id="SVGID_20_">
							<use xlink:href="#SVGID_19_"  style="overflow:visible;"/>
						</clipPath>
						<polyline class="st19" points="301.4,-14.9 352,14.7 323.9,30.8 352.1,47 380.1,30.6 408.6,46.9 380.2,63.5 407.9,79.5 
							379.7,95.7 409.6,112.9 						"/>
					</g>
				</g>
			</g>
		</g>
		<g>
			<g>
				<g>
					<g>
						<defs>
							<rect id="SVGID_21_" x="200.6" y="0.2" width="199.5" height="139.8"/>
						</defs>
						<clipPath id="SVGID_22_">
							<use xlink:href="#SVGID_21_"  style="overflow:visible;"/>
						</clipPath>
						<path class="st20" d="M418.4,123.7"/>
					</g>
				</g>
			</g>
		</g>
		<g>
			<g>
				<g>
					<g>
						<defs>
							<rect id="SVGID_23_" x="200.6" y="0.2" width="199.5" height="139.8"/>
						</defs>
						<clipPath id="SVGID_24_">
							<use xlink:href="#SVGID_23_"  style="overflow:visible;"/>
						</clipPath>
						<polyline class="st21" points="301.4,-23.3 352,6.2 323.9,22.4 352.1,38.5 380.1,22.1 408.6,38.5 380.2,55.1 407.9,71 
							379.7,87.2 409.6,104.4 						"/>
					</g>
				</g>
			</g>
		</g>
		<g>
			<g>
				<g>
					<g>
						<defs>
							<rect id="SVGID_25_" x="200.6" y="0.2" width="199.5" height="139.8"/>
						</defs>
						<clipPath id="SVGID_26_">
							<use xlink:href="#SVGID_25_"  style="overflow:visible;"/>
						</clipPath>
						<g class="st22">
							<polygon class="st23" points="379.3,160.2 407.4,144 379.3,127.8 351.2,144 							"/>
							<polygon class="st24" points="379.3,151.7 407.4,135.5 379.3,119.4 351.2,135.5 							"/>
						</g>
					</g>
				</g>
			</g>
		</g>
		<g>
			<g>
				<g>
					<g>
						<defs>
							<rect id="SVGID_27_" x="200.6" y="0.2" width="199.5" height="139.8"/>
						</defs>
						<clipPath id="SVGID_28_">
							<use xlink:href="#SVGID_27_"  style="overflow:visible;"/>
						</clipPath>
						<g class="st25">
							<polygon class="st26" points="351.7,111.9 379.8,95.7 351.7,79.5 323.5,95.7 							"/>
							<polygon class="st27" points="351.7,103.5 379.8,87.3 351.7,71.1 323.5,87.3 							"/>
						</g>
					</g>
				</g>
			</g>
		</g>
		<g>
			<g>
				<g>
					<g>
						<defs>
							<rect id="SVGID_29_" x="200.6" y="0.2" width="199.5" height="139.8"/>
						</defs>
						<clipPath id="SVGID_30_">
							<use xlink:href="#SVGID_29_"  style="overflow:visible;"/>
						</clipPath>
						<g class="st28">
							<polygon class="st23" points="296.3,79.2 324.4,63 296.3,46.9 268.2,63 							"/>
							<polygon class="st24" points="296.3,70.8 324.4,54.6 296.3,38.4 268.2,54.6 							"/>
						</g>
					</g>
				</g>
			</g>
		</g>
		<g>
			<g>
				<g>
					<g>
						<defs>
							<rect id="SVGID_31_" x="200.6" y="0.2" width="199.5" height="139.8"/>
						</defs>
						<clipPath id="SVGID_32_">
							<use xlink:href="#SVGID_31_"  style="overflow:visible;"/>
						</clipPath>
						<g class="st29">
							<polygon class="st23" points="267.6,30.6 295.7,14.4 267.6,-1.7 239.5,14.4 							"/>
							<polygon class="st24" points="267.6,22.2 295.7,6 267.6,-10.2 239.5,6 							"/>
						</g>
					</g>
				</g>
			</g>
		</g>
	</g>
	<text transform="matrix(1 0 0 1 28.5762 78.1912)" class="st30 st16 st17">PlayFab</text>
</g>
<g id="Xbox_Live" class="st1">
	<g class="st2">
		<g>
			<g>
				<g>
					<g>
						<defs>
							<rect id="SVGID_33_" x="200.6" y="0.2" width="199.5" height="139.8"/>
						</defs>
						<clipPath id="SVGID_34_">
							<use xlink:href="#SVGID_33_"  style="overflow:visible;"/>
						</clipPath>
						<path class="st31" d="M418.4,131.8"/>
					</g>
				</g>
			</g>
		</g>
		<g>
			<g>
				<g>
					<g>
						<defs>
							<rect id="SVGID_35_" x="200.6" y="0.2" width="199.5" height="139.8"/>
						</defs>
						<clipPath id="SVGID_36_">
							<use xlink:href="#SVGID_35_"  style="overflow:visible;"/>
						</clipPath>
						<polyline class="st32" points="301.4,-14.9 352,14.7 323.9,30.8 352.1,47 380.1,30.6 408.6,46.9 380.2,63.5 407.9,79.5 
							379.7,95.7 409.6,112.9 						"/>
					</g>
				</g>
			</g>
		</g>
		<g>
			<g>
				<g>
					<g>
						<defs>
							<rect id="SVGID_37_" x="200.6" y="0.2" width="199.5" height="139.8"/>
						</defs>
						<clipPath id="SVGID_38_">
							<use xlink:href="#SVGID_37_"  style="overflow:visible;"/>
						</clipPath>
						<path class="st33" d="M418.4,123.7"/>
					</g>
				</g>
			</g>
		</g>
		<g>
			<g>
				<g>
					<g>
						<defs>
							<rect id="SVGID_39_" x="200.6" y="0.2" width="199.5" height="139.8"/>
						</defs>
						<clipPath id="SVGID_40_">
							<use xlink:href="#SVGID_39_"  style="overflow:visible;"/>
						</clipPath>
						<polyline class="st34" points="301.4,-23.3 352,6.2 323.9,22.4 352.1,38.5 380.1,22.1 408.6,38.5 380.2,55.1 407.9,71 
							379.7,87.2 409.6,104.4 						"/>
					</g>
				</g>
			</g>
		</g>
		<g>
			<g>
				<g>
					<g>
						<defs>
							<rect id="SVGID_41_" x="200.6" y="0.2" width="199.5" height="139.8"/>
						</defs>
						<clipPath id="SVGID_42_">
							<use xlink:href="#SVGID_41_"  style="overflow:visible;"/>
						</clipPath>
						<g class="st35">
							<polygon class="st23" points="379.3,160.2 407.4,144 379.3,127.8 351.2,144 							"/>
							<polygon class="st24" points="379.3,151.7 407.4,135.5 379.3,119.4 351.2,135.5 							"/>
						</g>
					</g>
				</g>
			</g>
		</g>
		<g>
			<g>
				<g>
					<g>
						<defs>
							<rect id="SVGID_43_" x="200.6" y="0.2" width="199.5" height="139.8"/>
						</defs>
						<clipPath id="SVGID_44_">
							<use xlink:href="#SVGID_43_"  style="overflow:visible;"/>
						</clipPath>
						<g class="st36">
							<polygon class="st37" points="351.7,111.9 379.8,95.7 351.7,79.5 323.5,95.7 							"/>
							<polygon class="st38" points="351.7,103.5 379.8,87.3 351.7,71.1 323.5,87.3 							"/>
						</g>
					</g>
				</g>
			</g>
		</g>
		<g>
			<g>
				<g>
					<g>
						<defs>
							<rect id="SVGID_45_" x="200.6" y="0.2" width="199.5" height="139.8"/>
						</defs>
						<clipPath id="SVGID_46_">
							<use xlink:href="#SVGID_45_"  style="overflow:visible;"/>
						</clipPath>
						<g class="st39">
							<polygon class="st23" points="296.3,79.2 324.4,63 296.3,46.9 268.2,63 							"/>
							<polygon class="st24" points="296.3,70.8 324.4,54.6 296.3,38.4 268.2,54.6 							"/>
						</g>
					</g>
				</g>
			</g>
		</g>
		<g>
			<g>
				<g>
					<g>
						<defs>
							<rect id="SVGID_47_" x="200.6" y="0.2" width="199.5" height="139.8"/>
						</defs>
						<clipPath id="SVGID_48_">
							<use xlink:href="#SVGID_47_"  style="overflow:visible;"/>
						</clipPath>
						<g class="st40">
							<polygon class="st23" points="267.6,30.6 295.7,14.4 267.6,-1.7 239.5,14.4 							"/>
							<polygon class="st24" points="267.6,22.2 295.7,6 267.6,-10.2 239.5,6 							"/>
						</g>
					</g>
				</g>
			</g>
		</g>
	</g>
	<g class="st2">
		<text transform="matrix(1 0 0 1 28.5762 78.1912)" class="st41 st16 st17">Xbox Live</text>
	</g>
</g>
<g id="Xbox_One" class="st1">
	<g class="st2">
		<g>
			<g>
				<g>
					<g>
						<defs>
							<rect id="SVGID_49_" x="200.6" y="0.2" width="199.5" height="139.8"/>
						</defs>
						<clipPath id="SVGID_50_">
							<use xlink:href="#SVGID_49_"  style="overflow:visible;"/>
						</clipPath>
						<path class="st42" d="M417.9,130.7"/>
					</g>
				</g>
			</g>
		</g>
		<g>
			<g>
				<g>
					<g>
						<defs>
							<rect id="SVGID_51_" x="200.6" y="0.2" width="199.5" height="139.8"/>
						</defs>
						<clipPath id="SVGID_52_">
							<use xlink:href="#SVGID_51_"  style="overflow:visible;"/>
						</clipPath>
						<polyline class="st43" points="297.6,-29.9 348.1,-0.4 320.1,15.7 348.2,31.8 319.9,48.2 348.3,64.5 376.3,48.4 404,64.3 
							375.8,80.5 405.6,97.7 						"/>
					</g>
				</g>
			</g>
		</g>
		<g>
			<g>
				<g>
					<g>
						<defs>
							<rect id="SVGID_53_" x="200.6" y="0.2" width="199.5" height="139.8"/>
						</defs>
						<clipPath id="SVGID_54_">
							<use xlink:href="#SVGID_53_"  style="overflow:visible;"/>
						</clipPath>
						<path class="st44" d="M417.9,122.6"/>
					</g>
				</g>
			</g>
		</g>
		<g>
			<g>
				<g>
					<g>
						<defs>
							<rect id="SVGID_55_" x="200.6" y="0.2" width="199.5" height="139.8"/>
						</defs>
						<clipPath id="SVGID_56_">
							<use xlink:href="#SVGID_55_"  style="overflow:visible;"/>
						</clipPath>
						<polyline class="st45" points="297.6,-38.4 348.1,-8.9 320.1,7.3 348.2,23.4 319.9,39.7 348.3,56 376.3,39.9 404,55.8 
							375.8,72 405.6,89.2 						"/>
					</g>
				</g>
			</g>
		</g>
		<g>
			<g>
				<g>
					<g>
						<defs>
							<rect id="SVGID_57_" x="200.6" y="0.2" width="199.5" height="139.8"/>
						</defs>
						<clipPath id="SVGID_58_">
							<use xlink:href="#SVGID_57_"  style="overflow:visible;"/>
						</clipPath>
						<g class="st46">
							<polygon class="st47" points="347.9,129 376,112.9 347.9,96.7 319.8,112.9 							"/>
							<polygon class="st48" points="347.9,120.6 376,104.4 347.9,88.3 319.8,104.4 							"/>
						</g>
					</g>
				</g>
			</g>
		</g>
		<g>
			<g>
				<g>
					<g>
						<defs>
							<rect id="SVGID_59_" x="200.6" y="0.2" width="199.5" height="139.8"/>
						</defs>
						<clipPath id="SVGID_60_">
							<use xlink:href="#SVGID_59_"  style="overflow:visible;"/>
						</clipPath>
						<g class="st49">
							<polygon class="st47" points="403.9,129 432,112.9 403.9,96.7 375.8,112.9 							"/>
							<polygon class="st48" points="403.9,120.6 432,104.4 403.9,88.3 375.8,104.4 							"/>
						</g>
					</g>
				</g>
			</g>
		</g>
		<g>
			<g>
				<g>
					<g>
						<defs>
							<rect id="SVGID_61_" x="200.6" y="0.2" width="199.5" height="139.8"/>
						</defs>
						<clipPath id="SVGID_62_">
							<use xlink:href="#SVGID_61_"  style="overflow:visible;"/>
						</clipPath>
						<g class="st50">
							<polygon class="st47" points="291.7,64.3 319.8,48.1 291.7,32 263.6,48.1 							"/>
							<polygon class="st48" points="291.7,55.9 319.8,39.7 291.7,23.6 263.6,39.7 							"/>
						</g>
					</g>
				</g>
			</g>
		</g>
		<g>
			<g>
				<g>
					<g>
						<defs>
							<rect id="SVGID_63_" x="200.6" y="0.2" width="199.5" height="139.8"/>
						</defs>
						<clipPath id="SVGID_64_">
							<use xlink:href="#SVGID_63_"  style="overflow:visible;"/>
						</clipPath>
						<g class="st51">
							<polygon class="st52" points="235.4,32 263.5,15.8 235.4,-0.3 207.3,15.8 							"/>
							<polygon class="st53" points="235.4,23.5 263.5,7.4 235.4,-8.8 207.3,7.4 							"/>
						</g>
					</g>
				</g>
			</g>
		</g>
		<g>
			<g>
				<g>
					<g>
						<defs>
							<rect id="SVGID_65_" x="200.6" y="0.2" width="199.5" height="139.8"/>
						</defs>
						<clipPath id="SVGID_66_">
							<use xlink:href="#SVGID_65_"  style="overflow:visible;"/>
						</clipPath>
						<g class="st54">
							<polygon class="st52" points="291.6,161.3 319.7,145.2 291.6,129 263.5,145.2 							"/>
							<polygon class="st53" points="291.6,152.9 319.7,136.8 291.6,120.6 263.5,136.8 							"/>
						</g>
					</g>
				</g>
			</g>
		</g>
		<g>
			<g>
				<g>
					<g>
						<defs>
							<rect id="SVGID_67_" x="200.6" y="0.2" width="199.5" height="139.8"/>
						</defs>
						<clipPath id="SVGID_68_">
							<use xlink:href="#SVGID_67_"  style="overflow:visible;"/>
						</clipPath>
						<g class="st55">
							<polygon class="st52" points="347.9,193.6 376,177.4 347.9,161.3 319.8,177.4 							"/>
							<polygon class="st53" points="347.9,185.2 376,169 347.9,152.9 319.8,169 							"/>
						</g>
					</g>
				</g>
			</g>
		</g>
	</g>
	<text transform="matrix(1 0 0 1 28.5762 78.1912)" class="st56 st16 st17">Xbox One</text>
</g>
<g id="Azure" class="st1">
	<g class="st2">
		<g>
			<g>
				<g>
					<g>
						<defs>
							<rect id="SVGID_69_" x="200.6" y="0.2" width="199.5" height="139.8"/>
						</defs>
						<clipPath id="SVGID_70_">
							<use xlink:href="#SVGID_69_"  style="overflow:visible;"/>
						</clipPath>
						<path class="st57" d="M417.9,130.7"/>
					</g>
				</g>
			</g>
		</g>
		<g>
			<g>
				<g>
					<g>
						<defs>
							<rect id="SVGID_71_" x="200.6" y="0.2" width="199.5" height="139.8"/>
						</defs>
						<clipPath id="SVGID_72_">
							<use xlink:href="#SVGID_71_"  style="overflow:visible;"/>
						</clipPath>
						<polyline class="st58" points="297.6,-29.9 348.1,-0.4 320.1,15.7 348.2,31.8 319.9,48.2 348.3,64.5 376.3,48.4 404,64.3 
							375.8,80.5 405.6,97.7 						"/>
					</g>
				</g>
			</g>
		</g>
		<g>
			<g>
				<g>
					<g>
						<defs>
							<rect id="SVGID_73_" x="200.6" y="0.2" width="199.5" height="139.8"/>
						</defs>
						<clipPath id="SVGID_74_">
							<use xlink:href="#SVGID_73_"  style="overflow:visible;"/>
						</clipPath>
						<path class="st59" d="M417.9,122.6"/>
					</g>
				</g>
			</g>
		</g>
		<g>
			<g>
				<g>
					<g>
						<defs>
							<rect id="SVGID_75_" x="200.6" y="0.2" width="199.5" height="139.8"/>
						</defs>
						<clipPath id="SVGID_76_">
							<use xlink:href="#SVGID_75_"  style="overflow:visible;"/>
						</clipPath>
						<polyline class="st60" points="297.6,-38.4 348.1,-8.9 320.1,7.3 348.2,23.4 319.9,39.7 348.3,56 376.3,39.9 404,55.8 
							375.8,72 405.6,89.2 						"/>
					</g>
				</g>
			</g>
		</g>
		<g>
			<g>
				<g>
					<g>
						<defs>
							<rect id="SVGID_77_" x="200.6" y="0.2" width="199.5" height="139.8"/>
						</defs>
						<clipPath id="SVGID_78_">
							<use xlink:href="#SVGID_77_"  style="overflow:visible;"/>
						</clipPath>
						<g class="st61">
							<polygon class="st62" points="403.9,129 432,112.9 403.9,96.7 375.8,112.9 							"/>
							<polygon class="st63" points="403.9,120.6 432,104.4 403.9,88.3 375.8,104.4 							"/>
						</g>
					</g>
				</g>
			</g>
		</g>
		<g>
			<g>
				<g>
					<g>
						<defs>
							<rect id="SVGID_79_" x="200.6" y="0.2" width="199.5" height="139.8"/>
						</defs>
						<clipPath id="SVGID_80_">
							<use xlink:href="#SVGID_79_"  style="overflow:visible;"/>
						</clipPath>
						<g class="st64">
							<polygon class="st62" points="291.7,64.3 319.8,48.1 291.7,32 263.6,48.1 							"/>
							<polygon class="st63" points="291.7,55.9 319.8,39.7 291.7,23.6 263.6,39.7 							"/>
						</g>
					</g>
				</g>
			</g>
		</g>
		<g>
			<g>
				<g>
					<g>
						<defs>
							<rect id="SVGID_81_" x="200.6" y="0.2" width="199.5" height="139.8"/>
						</defs>
						<clipPath id="SVGID_82_">
							<use xlink:href="#SVGID_81_"  style="overflow:visible;"/>
						</clipPath>
						<g class="st65">
							<polygon class="st52" points="235.4,32 263.5,15.8 235.4,-0.3 207.3,15.8 							"/>
							<polygon class="st53" points="235.4,23.5 263.5,7.4 235.4,-8.8 207.3,7.4 							"/>
						</g>
					</g>
				</g>
			</g>
		</g>
		<g>
			<g>
				<g>
					<g>
						<defs>
							<rect id="SVGID_83_" x="200.6" y="0.2" width="199.5" height="139.8"/>
						</defs>
						<clipPath id="SVGID_84_">
							<use xlink:href="#SVGID_83_"  style="overflow:visible;"/>
						</clipPath>
						<g class="st66">
							<polygon class="st52" points="291.6,161.3 319.7,145.2 291.6,129 263.5,145.2 							"/>
							<polygon class="st53" points="291.6,152.9 319.7,136.8 291.6,120.6 263.5,136.8 							"/>
						</g>
					</g>
				</g>
			</g>
		</g>
		<g>
			<g>
				<g>
					<g>
						<defs>
							<rect id="SVGID_85_" x="200.6" y="0.2" width="199.5" height="139.8"/>
						</defs>
						<clipPath id="SVGID_86_">
							<use xlink:href="#SVGID_85_"  style="overflow:visible;"/>
						</clipPath>
						<g class="st67">
							<polygon class="st52" points="320.5,112.9 348.6,96.7 320.5,80.6 292.4,96.7 							"/>
							<polygon class="st53" points="320.5,104.4 348.6,88.3 320.5,72.1 292.4,88.3 							"/>
						</g>
					</g>
				</g>
			</g>
		</g>
		<g>
			<g>
				<g>
					<g>
						<defs>
							<rect id="SVGID_87_" x="200.6" y="0.2" width="199.5" height="139.8"/>
						</defs>
						<clipPath id="SVGID_88_">
							<use xlink:href="#SVGID_87_"  style="overflow:visible;"/>
						</clipPath>
						<g class="st68">
							<polygon class="st52" points="347.9,193.6 376,177.4 347.9,161.3 319.8,177.4 							"/>
							<polygon class="st53" points="347.9,185.2 376,169 347.9,152.9 319.8,169 							"/>
						</g>
					</g>
				</g>
			</g>
		</g>
	</g>
	<text transform="matrix(1 0 0 1 28.5762 78.1912)" class="st69 st16 st17">Azure</text>
</g>
<g id="Windows" class="st1">
	<g class="st2">
		<g>
			<g>
				<g>
					<g>
						<defs>
							<rect id="SVGID_89_" x="200.6" y="0.2" width="199.5" height="139.8"/>
						</defs>
						<clipPath id="SVGID_90_">
							<use xlink:href="#SVGID_89_"  style="overflow:visible;"/>
						</clipPath>
						<path class="st70" d="M417.9,131.6"/>
					</g>
				</g>
			</g>
		</g>
		<g>
			<g>
				<g>
					<g>
						<defs>
							<rect id="SVGID_91_" x="200.6" y="0.2" width="199.5" height="139.8"/>
						</defs>
						<clipPath id="SVGID_92_">
							<use xlink:href="#SVGID_91_"  style="overflow:visible;"/>
						</clipPath>
						<polyline class="st71" points="297.6,-29 348.1,0.5 320.1,16.6 348.2,32.8 319.9,49.1 348.3,65.4 376.3,49.3 404,65.2 
							375.8,81.4 405.6,98.6 						"/>
					</g>
				</g>
			</g>
		</g>
		<g>
			<g>
				<g>
					<g>
						<defs>
							<rect id="SVGID_93_" x="200.6" y="0.2" width="199.5" height="139.8"/>
						</defs>
						<clipPath id="SVGID_94_">
							<use xlink:href="#SVGID_93_"  style="overflow:visible;"/>
						</clipPath>
						<path class="st72" d="M417.9,123.5"/>
					</g>
				</g>
			</g>
		</g>
		<g>
			<g>
				<g>
					<g>
						<defs>
							<rect id="SVGID_95_" x="200.6" y="0.2" width="199.5" height="139.8"/>
						</defs>
						<clipPath id="SVGID_96_">
							<use xlink:href="#SVGID_95_"  style="overflow:visible;"/>
						</clipPath>
						<polyline class="st73" points="297.6,-37.4 348.1,-7.9 320.1,8.2 348.2,24.3 319.9,40.6 348.3,57 376.3,40.8 404,56.8 
							375.8,73 405.6,90.2 						"/>
					</g>
				</g>
			</g>
		</g>
		<g>
			<g>
				<g>
					<g>
						<defs>
							<rect id="SVGID_97_" x="200.6" y="0.2" width="199.5" height="139.8"/>
						</defs>
						<clipPath id="SVGID_98_">
							<use xlink:href="#SVGID_97_"  style="overflow:visible;"/>
						</clipPath>
						<g class="st74">
							<polygon class="st62" points="347.9,130 376,113.8 347.9,97.7 319.8,113.8 							"/>
							<polygon class="st63" points="347.9,121.5 376,105.4 347.9,89.2 319.8,105.4 							"/>
						</g>
					</g>
				</g>
			</g>
		</g>
		<g>
			<g>
				<g>
					<g>
						<defs>
							<rect id="SVGID_99_" x="200.6" y="0.2" width="199.5" height="139.8"/>
						</defs>
						<clipPath id="SVGID_100_">
							<use xlink:href="#SVGID_99_"  style="overflow:visible;"/>
						</clipPath>
						<g class="st75">
							<polygon class="st62" points="403.9,130 432,113.8 403.9,97.7 375.8,113.8 							"/>
							<polygon class="st63" points="403.9,121.5 432,105.4 403.9,89.2 375.8,105.4 							"/>
						</g>
					</g>
				</g>
			</g>
		</g>
		<g>
			<g>
				<g>
					<g>
						<defs>
							<rect id="SVGID_101_" x="200.6" y="0.2" width="199.5" height="139.8"/>
						</defs>
						<clipPath id="SVGID_102_">
							<use xlink:href="#SVGID_101_"  style="overflow:visible;"/>
						</clipPath>
						<g class="st76">
							<polygon class="st62" points="264.3,17.1 292.4,0.9 264.3,-15.2 236.2,0.9 							"/>
							<polygon class="st63" points="264.3,8.6 292.4,-7.5 264.3,-23.7 236.2,-7.5 							"/>
						</g>
					</g>
				</g>
			</g>
		</g>
		<g>
			<g>
				<g>
					<g>
						<defs>
							<rect id="SVGID_103_" x="200.6" y="0.2" width="199.5" height="139.8"/>
						</defs>
						<clipPath id="SVGID_104_">
							<use xlink:href="#SVGID_103_"  style="overflow:visible;"/>
						</clipPath>
						<g class="st77">
							<polygon class="st52" points="291.6,162.3 319.7,146.1 291.6,130 263.5,146.1 							"/>
							<polygon class="st53" points="291.6,153.8 319.7,137.7 291.6,121.5 263.5,137.7 							"/>
						</g>
					</g>
				</g>
			</g>
		</g>
		<g>
			<g>
				<g>
					<g>
						<defs>
							<rect id="SVGID_105_" x="200.6" y="0.2" width="199.5" height="139.8"/>
						</defs>
						<clipPath id="SVGID_106_">
							<use xlink:href="#SVGID_105_"  style="overflow:visible;"/>
						</clipPath>
						<g class="st78">
							<polygon class="st52" points="292.9,97.6 321,81.4 292.9,65.3 264.9,81.4 							"/>
							<polygon class="st53" points="292.9,89.2 321,73 292.9,56.9 264.9,73 							"/>
						</g>
					</g>
				</g>
			</g>
		</g>
	</g>
	<text transform="matrix(1 0 0 1 28.5762 78.1912)" class="st69 st16 st17">Windows</text>
</g>
<g>
	<path class="st79" d="M46.8,58.4l-8.5,22.8h-2.9l-8.3-22.8h3l6.3,18.1c0.2,0.6,0.4,1.3,0.5,2H37c0.1-0.6,0.3-1.3,0.5-2.1L44,58.3
		L46.8,58.4L46.8,58.4z"/>
	<path class="st79" d="M51,60.8c-0.5,0-0.9-0.2-1.2-0.5s-0.5-0.7-0.5-1.2s0.2-0.9,0.5-1.2s0.7-0.5,1.2-0.5s0.9,0.2,1.2,0.5
		s0.5,0.7,0.5,1.2s-0.2,0.9-0.5,1.2S51.5,60.8,51,60.8z M52.3,81.3h-2.6V65h2.6V81.3z"/>
	<path class="st79" d="M56.6,80.7v-2.8c1.4,1.1,3,1.6,4.7,1.6c2.3,0,3.4-0.8,3.4-2.3c0-0.4-0.1-0.8-0.3-1.1
		c-0.2-0.3-0.5-0.6-0.8-0.8s-0.7-0.4-1.2-0.6s-0.9-0.4-1.5-0.6c-0.7-0.3-1.4-0.6-1.9-0.9s-1-0.6-1.4-1s-0.6-0.8-0.8-1.3
		s-0.3-1-0.3-1.6c0-0.8,0.2-1.4,0.5-2c0.4-0.6,0.8-1.1,1.4-1.5c0.6-0.4,1.3-0.7,2-0.9c0.7-0.2,1.5-0.3,2.3-0.3
		c1.4,0,2.7,0.2,3.8,0.7V68c-1.2-0.8-2.6-1.2-4.1-1.2c-0.5,0-0.9,0.1-1.3,0.2c-0.4,0.1-0.7,0.3-1,0.5s-0.5,0.4-0.7,0.7
		c-0.2,0.3-0.2,0.6-0.2,0.9c0,0.4,0.1,0.8,0.2,1.1c0.2,0.3,0.4,0.5,0.7,0.8s0.7,0.4,1.1,0.6s0.9,0.4,1.4,0.6
		c0.7,0.3,1.4,0.6,1.9,0.9c0.6,0.3,1.1,0.6,1.5,1s0.7,0.8,0.9,1.3c0.2,0.5,0.3,1,0.3,1.7c0,0.8-0.2,1.5-0.5,2.1
		c-0.4,0.6-0.8,1.1-1.4,1.5s-1.3,0.7-2.1,0.9s-1.6,0.3-2.4,0.3C59.3,81.7,57.8,81.3,56.6,80.7z"/>
	<path class="st79" d="M84.6,81.3H82v-2.6l0,0c-1.1,2-2.8,3-5,3c-3.9,0-5.8-2.3-5.8-6.9V65h2.6v9.3c0,3.4,1.3,5.2,4,5.2
		c1.3,0,2.3-0.5,3.1-1.4c0.8-0.9,1.2-2.2,1.2-3.7V65h2.6L84.6,81.3L84.6,81.3z"/>
	<path class="st79" d="M101.6,81.3H99v-2.5h-0.1c-1.1,2-2.8,2.9-5,2.9c-1.6,0-2.9-0.4-3.8-1.3s-1.4-2-1.4-3.4c0-3,1.8-4.8,5.4-5.3
		L99,71c0-2.8-1.1-4.2-3.4-4.2c-2,0-3.7,0.7-5.3,2v-2.7c1.6-1,3.5-1.5,5.5-1.5c3.8,0,5.7,2,5.7,6.1v10.6H101.6z M99,73l-4,0.6
		c-1.2,0.2-2.1,0.5-2.7,0.9s-0.9,1.2-0.9,2.3c0,0.8,0.3,1.4,0.9,2c0.6,0.5,1.3,0.8,2.3,0.8c1.3,0,2.4-0.5,3.2-1.4
		c0.8-0.9,1.3-2.1,1.3-3.4V73H99z"/>
	<path class="st79" d="M109.1,81.3h-2.6V57.1h2.6V81.3z"/>
	<path class="st79" d="M122.6,80.4v-3.2c0.4,0.3,0.8,0.6,1.3,0.9s1,0.5,1.6,0.6c0.6,0.2,1.1,0.3,1.7,0.4s1.1,0.1,1.6,0.1
		c1.6,0,2.9-0.3,3.7-0.9s1.2-1.5,1.2-2.6c0-0.6-0.1-1.2-0.4-1.6c-0.3-0.5-0.6-0.9-1.1-1.3s-1-0.7-1.7-1.1c-0.7-0.3-1.4-0.7-2.1-1.1
		c-0.8-0.4-1.5-0.8-2.2-1.2s-1.3-0.9-1.8-1.4s-0.9-1.1-1.2-1.7s-0.4-1.4-0.4-2.2c0-1,0.2-1.9,0.7-2.7s1.1-1.4,1.8-1.9
		s1.6-0.9,2.5-1.1c1-0.2,1.9-0.4,2.9-0.4c2.3,0,3.9,0.3,4.9,0.8v3c-1.3-0.9-3.1-1.4-5.2-1.4c-0.6,0-1.2,0.1-1.8,0.2
		c-0.6,0.1-1.1,0.3-1.6,0.6s-0.8,0.6-1.1,1.1c-0.3,0.4-0.4,1-0.4,1.6c0,0.6,0.1,1.1,0.3,1.5c0.2,0.4,0.5,0.8,1,1.2
		c0.4,0.4,0.9,0.7,1.6,1c0.6,0.3,1.3,0.7,2.1,1.1s1.6,0.8,2.3,1.3c0.7,0.4,1.4,0.9,1.9,1.5c0.6,0.5,1,1.1,1.3,1.8
		c0.3,0.7,0.5,1.4,0.5,2.3c0,1.1-0.2,2.1-0.7,2.9c-0.4,0.8-1,1.4-1.8,1.9c-0.7,0.5-1.6,0.8-2.6,1.1c-1,0.2-2,0.3-3.1,0.3
		c-0.4,0-0.8,0-1.3-0.1s-1.1-0.1-1.6-0.3s-1.1-0.3-1.6-0.4C123.3,80.8,122.9,80.6,122.6,80.4z"/>
	<path class="st79" d="M147.2,81.1c-0.6,0.3-1.4,0.5-2.4,0.5c-2.9,0-4.3-1.6-4.3-4.8v-9.7h-2.8V65h2.8v-4l2.6-0.8V65h4.1v2.2h-4.1
		v9.2c0,1.1,0.2,1.9,0.6,2.3c0.4,0.5,1,0.7,1.8,0.7c0.7,0,1.2-0.2,1.7-0.5L147.2,81.1L147.2,81.1z"/>
	<path class="st79" d="M163.9,81.3h-2.6v-2.6h-0.1c-1.1,2-2.8,3-5,3c-3.9,0-5.8-2.3-5.8-6.9V65h2.6v9.3c0,3.4,1.3,5.2,4,5.2
		c1.3,0,2.3-0.5,3.1-1.4s1.2-2.2,1.2-3.7V65h2.6V81.3z"/>
	<path class="st79" d="M183,81.3h-2.6v-2.8h-0.1c-1.2,2.1-3.1,3.2-5.6,3.2c-2,0-3.7-0.7-4.9-2.2s-1.8-3.4-1.8-6c0-2.7,0.7-4.9,2-6.5
		c1.4-1.6,3.2-2.4,5.4-2.4s3.9,0.9,4.9,2.6h0.1V57.1h2.6L183,81.3L183,81.3z M180.4,73.9v-2.4c0-1.3-0.4-2.4-1.3-3.3
		c-0.9-0.9-2-1.4-3.3-1.4c-1.6,0-2.8,0.6-3.8,1.8c-0.9,1.2-1.4,2.8-1.4,4.8c0,1.9,0.4,3.4,1.3,4.5s2.1,1.6,3.5,1.6
		c1.5,0,2.6-0.5,3.5-1.6S180.4,75.5,180.4,73.9z"/>
	<path class="st79" d="M189.7,60.8c-0.5,0-0.9-0.2-1.2-0.5s-0.5-0.7-0.5-1.2s0.2-0.9,0.5-1.2s0.7-0.5,1.2-0.5s0.9,0.2,1.2,0.5
		s0.5,0.7,0.5,1.2s-0.2,0.9-0.5,1.2S190.1,60.8,189.7,60.8z M190.9,81.3h-2.6V65h2.6V81.3z"/>
	<path class="st79" d="M203.1,81.7c-2.4,0-4.3-0.8-5.8-2.3c-1.4-1.5-2.2-3.5-2.2-6.1c0-2.7,0.7-4.9,2.2-6.4s3.5-2.3,6.1-2.3
		c2.4,0,4.3,0.7,5.7,2.2s2,3.6,2,6.2s-0.7,4.7-2.2,6.3S205.5,81.7,203.1,81.7z M203.2,66.8c-1.7,0-3,0.6-4,1.7s-1.5,2.7-1.5,4.7
		c0,1.9,0.5,3.5,1.5,4.6s2.3,1.7,4,1.7s3-0.5,3.9-1.6s1.4-2.6,1.4-4.7c0-2-0.5-3.6-1.4-4.7C206.2,67.3,204.9,66.8,203.2,66.8z"/>
</g>
<g id="Group_38274_4_" transform="translate(0 -103)">
	<path id="Path_109693_4_" class="st80" d="M361.4,137.3l24.4,13.9l-24.4,13.9l-24.4-13.9L361.4,137.3z"/>
	<path id="Path_109694_4_" class="st81" d="M361.4,130l24.5,13.9l-24.4,13.9l-24.5-13.9L361.4,130z"/>
	<path id="Path_109695_4_" class="st80" d="M361.4,165l24.4,13.9l-24.4,13.9L337.1,179L361.4,165z"/>
	<path id="Path_109696_4_" class="st81" d="M361.4,157.8l24.4,13.9l-24.4,13.9l-24.4-13.9L361.4,157.8z"/>
	<path id="Path_109697_4_" class="st80" d="M312.6,165l24.4,13.9l-24.4,13.9L288.2,179L312.6,165z"/>
	<path id="Path_109698_4_" class="st81" d="M312.6,157.8l24.4,13.9l-24.4,13.9l-24.4-13.9L312.6,157.8z"/>
</g>
<g id="Group_38335_20_" transform="translate(58 -72)">
	<path id="Path_109701_20_" class="st82" d="M231,92.5l-24.6,14l24.6,14l24.6-14L231,92.5z"/>
	<path id="Path_109702_20_" class="st83" d="M231,85.3l-24.6,14l24.6,14l24.6-14L231,85.3z"/>
</g>
<g id="Group_38335_22_" transform="translate(58 -72)">
	<path id="Path_109701_22_" class="st82" d="M279.3,175.4l-24.6,14l24.6,14l24.6-14L279.3,175.4z"/>
	<path id="Path_109702_22_" class="st83" d="M279.3,168.1l-24.6,14l24.6,14l24.6-14L279.3,168.1z"/>
</g>
</svg>
