<?xml version="1.0" encoding="utf-8"?>
<!-- Generator: Adobe Illustrator 21.1.0, SVG Export Plug-In . SVG Version: 6.00 Build 0)  -->
<svg version="1.1" id="Layer_1" xmlns="http://www.w3.org/2000/svg" xmlns:xlink="http://www.w3.org/1999/xlink" x="0px" y="0px"
	 viewBox="0 0 400 140" style="enable-background:new 0 0 400 140;" xml:space="preserve">
<style type="text/css">
	.st0{fill:#2F2F2F;}
	.st1{fill:url(#SVGID_1_);}
	.st2{fill:#FFFFFF;}
</style>
<g id="Layer_1_1_">
	<rect class="st0" width="400" height="140"/>
	<g>
		
			<linearGradient id="SVGID_1_" gradientUnits="userSpaceOnUse" x1="124.7" y1="60" x2="124.7" y2="-18.9" gradientTransform="matrix(1 0 0 1 0 80)">
			<stop  offset="0" style="stop-color:#231F20;stop-opacity:0"/>
			<stop  offset="1" style="stop-color:#231F20"/>
		</linearGradient>
		<polygon class="st1" points="215.7,140 88.6,66.6 87.8,66.3 78.7,61.1 74,64.2 68.7,61.1 67.1,66.9 59.3,62.4 49.1,62 49,64.4 
			44,61.4 38.7,62.1 36.3,62.4 34.9,65.6 37.3,69.6 42.8,72 43.2,77 39,78.8 33.7,76.1 33.7,78.6 140.1,140 212.9,140 		"/>
	</g>
	<g>
		<path class="st2" d="M33.7,78.6v-2.5c0.3,0.3,0.6,0.5,1,0.7s0.8,0.4,1.3,0.5s0.9,0.2,1.3,0.3s0.9,0.1,1.2,0.1
			c1.3,0,2.3-0.2,2.9-0.7s1-1.2,1-2.1c0-0.5-0.1-0.9-0.3-1.3s-0.5-0.7-0.9-1s-0.8-0.6-1.4-0.9s-1.1-0.6-1.7-0.9
			c-0.6-0.3-1.2-0.6-1.8-1s-1-0.7-1.4-1.1s-0.7-0.8-1-1.4s-0.3-1.1-0.3-1.8c0-0.8,0.2-1.6,0.5-2.2s0.8-1.1,1.4-1.5s1.3-0.7,2-0.9
			s1.5-0.3,2.3-0.3c1.8,0,3.1,0.2,3.9,0.6v2.4c-1.1-0.7-2.5-1.1-4.1-1.1c-0.5,0-0.9,0-1.4,0.1s-0.9,0.3-1.2,0.5
			c-0.4,0.2-0.7,0.5-0.9,0.9s-0.3,0.8-0.3,1.3s0.1,0.9,0.3,1.2s0.4,0.6,0.8,0.9s0.8,0.6,1.2,0.8s1,0.6,1.7,0.9s1.3,0.7,1.9,1
			s1.1,0.7,1.5,1.2s0.8,0.9,1,1.4s0.4,1.1,0.4,1.8c0,0.9-0.2,1.7-0.5,2.3s-0.8,1.1-1.4,1.5s-1.3,0.7-2.1,0.8s-1.6,0.3-2.5,0.3
			c-0.3,0-0.6,0-1.1-0.1s-0.9-0.1-1.3-0.2s-0.7,0-1.1-0.1S33.9,78.7,33.7,78.6z"/>
		<path class="st2" d="M48.3,79.3V61.1h5c6.4,0,9.6,3,9.6,8.9c0,2.8-0.9,5.1-2.7,6.8S56,79.4,53,79.4L48.3,79.3L48.3,79.3z M50.5,63
			v14.3h2.7c2.4,0,4.2-0.6,5.6-1.9s2-3.1,2-5.4c0-4.7-2.5-7-7.4-7H50.5z"/>
		<path class="st2" d="M79.2,79.3h-3l-7-8.3c-0.3-0.3-0.4-0.5-0.5-0.6h-0.1v9h-2.1V61.1h2.1v8.6h0.1c0.1-0.2,0.3-0.4,0.5-0.6
			l6.8-7.9h2.7l-7.8,8.7L79.2,79.3z"/>
		<path class="st2" d="M80.6,78.8v-2.2c1.1,0.8,2.4,1.3,3.7,1.3c1.8,0,2.7-0.6,2.7-1.8c0-0.3-0.1-0.6-0.2-0.9s-0.4-0.5-0.6-0.6
			s-0.6-0.4-0.9-0.5s-0.7-0.3-1.2-0.5c-0.6-0.2-1.1-0.5-1.5-0.7s-0.8-0.5-1.1-0.8s-0.5-0.6-0.7-1s-0.2-0.8-0.2-1.3
			c0-0.6,0.1-1.1,0.4-1.6s0.7-0.9,1.1-1.2s1-0.6,1.6-0.7S85,66,85.6,66c1.1,0,2.1,0.2,3,0.6v2.1c-1-0.6-2.1-0.9-3.3-0.9
			c-0.4,0-0.7,0-1.1,0.1s-0.6,0.2-0.8,0.4s-0.4,0.4-0.5,0.6s-0.2,0.5-0.2,0.7c0,0.3,0.1,0.6,0.2,0.9s0.3,0.4,0.5,0.6
			s0.5,0.3,0.9,0.5s0.7,0.3,1.2,0.5c0.6,0.2,1.1,0.4,1.5,0.7s0.8,0.5,1.2,0.8s0.6,0.6,0.7,1s0.3,0.8,0.3,1.4s-0.1,1.2-0.4,1.7
			s-0.7,0.9-1.1,1.2s-1,0.5-1.6,0.7s-1.3,0.2-1.9,0.2C82.7,79.6,81.6,79.4,80.6,78.8z"/>
	</g>
</g>
<g id="Layer_2">
</g>
<g>
	<path class="st2" d="M383.7,21.2v9.7c0,1.9-0.2,3.7-0.7,5.4c-0.5,1.6-1.1,3.2-2,4.7c-0.9,1.5-1.8,2.9-3,4.2
		c-1.2,1.3-2.4,2.5-3.7,3.7c-1.3,1.2-2.7,2.2-4.2,3.2c-1.5,1-2.9,1.9-4.4,2.8c-1.5-0.9-3-1.8-4.4-2.8c-1.4-1-2.9-2.1-4.2-3.2
		c-1.3-1.1-2.6-2.4-3.7-3.7c-1.1-1.3-2.1-2.7-3-4.2c-0.9-1.5-1.5-3.1-2-4.7c-0.5-1.6-0.7-3.4-0.7-5.4v-9.7c1,0,2,0,3-0.1
		c1-0.1,1.9-0.2,2.8-0.4c0.9-0.2,1.8-0.5,2.7-0.8c0.9-0.3,1.8-0.8,2.7-1.4c1.1-0.7,2.1-1.2,3.2-1.5c1.1-0.3,2.2-0.5,3.5-0.5
		c0.6,0,1.2,0,1.8,0.1c0.6,0.1,1.1,0.2,1.7,0.4c0.6,0.2,1.1,0.4,1.6,0.6c0.5,0.2,1.1,0.6,1.6,0.9c0.9,0.6,1.8,1,2.7,1.4
		c0.9,0.4,1.8,0.6,2.7,0.8c0.9,0.2,1.9,0.3,2.8,0.4C381.4,21.2,382.7,21.2,383.7,21.2z M381.6,30.7v-7.4c-1.9-0.1-3.7-0.4-5.4-0.9
		s-3.4-1.3-5.1-2.3c-0.9-0.6-1.7-1-2.6-1.2c-0.9-0.2-1.8-0.4-2.8-0.4s-2,0.1-2.8,0.4c-0.8,0.3-1.7,0.7-2.6,1.2
		c-1.6,1-3.3,1.8-5.1,2.3c-1.7,0.5-3.5,0.8-5.4,0.9v7.4c0,1.6,0.2,3.2,0.6,4.6c0.4,1.4,1,2.9,1.7,4.2c0.7,1.3,1.6,2.6,2.6,3.8
		c1,1.2,2.1,2.3,3.3,3.4c1.2,1.1,2.4,2,3.7,2.9s2.6,1.7,3.9,2.5c1.3-0.7,2.6-1.6,3.9-2.5c1.3-0.9,2.5-1.9,3.7-2.9
		c1.2-1,2.3-2.2,3.3-3.4c1-1.2,1.9-2.5,2.6-3.8c0.7-1.3,1.3-2.8,1.7-4.2C381.4,33.9,381.6,32.3,381.6,30.7z"/>
</g>
<path class="st2" d="M370.4,31.8v-2c0-2.5-2.1-4.6-4.6-4.6c-2.5,0-4.6,2.1-4.6,4.6v2h-2v9.4h13.1v-9.4H370.4z M363,29.8
	c0-1.5,1.2-2.8,2.8-2.8c1.5,0,2.8,1.2,2.8,2.8v2H363V29.8z"/>
</svg>
