<?xml version="1.0" encoding="utf-8"?>
<!-- Generator: Adobe Illustrator 21.1.0, SVG Export Plug-In . SVG Version: 6.00 Build 0)  -->
<svg version="1.1" id="Layer_1" xmlns="http://www.w3.org/2000/svg" xmlns:xlink="http://www.w3.org/1999/xlink" x="0px" y="0px"
	 viewBox="0 0 400 140" style="enable-background:new 0 0 400 140;" xml:space="preserve">
<style type="text/css">
	.st0{fill:#2F2F2F;}
	.st1{opacity:0.5;}
	.st2{fill:url(#SVGID_1_);}
	.st3{fill:#FFFFFF;}
</style>
<g id="Layer_2">
</g>
<rect class="st0" width="400" height="140"/>
<g class="st1">
	<linearGradient id="SVGID_1_" gradientUnits="userSpaceOnUse" x1="186.0051" y1="140" x2="186.0051" y2="61.4482">
		<stop  offset="0" style="stop-color:#231F20;stop-opacity:0"/>
		<stop  offset="1" style="stop-color:#231F20"/>
	</linearGradient>
	<polygon class="st2" points="338.3,140 204.1,62.5 203,67 199.8,68.1 202.3,69.6 202.3,70.7 194.8,66.3 190.4,67.3 188.7,66.3 
		186.9,70.2 180.7,66.6 175.2,67.2 166.9,62.5 165.7,66.5 162.6,68.1 165.2,69.6 165.3,70.7 158,66.5 153,67.2 151.6,66.3 
		149.8,70.5 143.3,66.8 139,66.6 130.8,61.5 122,62.3 118.5,68.5 118.1,74.1 105.3,66.6 101.2,66.6 98.6,68.3 95.2,66.3 92.1,67.3 
		90.5,66.3 88.8,69 84.2,66.3 82.7,70.5 75.5,66.3 74.7,69.1 70.6,66.6 64.5,67.3 61.9,70.2 55.2,66.3 52,66.1 44,61.4 38.7,62.1 
		36.3,62.4 34.9,65.6 37.3,69.6 42.8,72 43.2,77 39,78.8 33.7,76.1 33.7,78.6 140.1,140 	"/>
</g>
<g>
	<path class="st3" d="M383.7,21.3v9.6c0,1.9-0.2,3.7-0.7,5.3s-1.1,3.2-2,4.7s-1.8,2.9-3,4.2s-2.4,2.5-3.7,3.7s-2.7,2.2-4.2,3.2
		s-2.9,1.9-4.4,2.8c-1.5-0.9-3-1.8-4.4-2.8s-2.9-2.1-4.2-3.2s-2.6-2.4-3.7-3.7s-2.1-2.7-3-4.2s-1.5-3.1-2-4.7s-0.7-3.4-0.7-5.3v-9.6
		c1,0,2,0,3-0.1s1.9-0.2,2.8-0.4s1.8-0.5,2.7-0.8s1.8-0.8,2.7-1.4c1.1-0.7,2.1-1.2,3.2-1.5s2.2-0.5,3.5-0.5c0.6,0,1.2,0,1.8,0.1
		s1.1,0.2,1.7,0.4s1.1,0.4,1.6,0.6s1.1,0.6,1.6,0.9c0.9,0.6,1.8,1,2.7,1.4s1.8,0.6,2.7,0.8s1.9,0.3,2.8,0.4S382.6,21.3,383.7,21.3z
		 M381.6,30.8v-7.4c-1.9-0.1-3.7-0.4-5.4-0.9s-3.4-1.3-5-2.3c-0.9-0.6-1.7-1-2.6-1.2s-1.8-0.4-2.8-0.4s-2,0.1-2.8,0.4
		s-1.7,0.7-2.6,1.2c-1.6,1-3.3,1.8-5,2.3s-3.5,0.8-5.4,0.9v7.4c0,1.6,0.2,3.2,0.6,4.6s1,2.9,1.7,4.2s1.6,2.6,2.6,3.8
		s2.1,2.3,3.3,3.4s2.4,2,3.7,2.9s2.6,1.7,3.9,2.5c1.3-0.7,2.6-1.6,3.9-2.5s2.5-1.9,3.7-2.9s2.3-2.2,3.3-3.4s1.9-2.5,2.6-3.8
		s1.3-2.8,1.7-4.2S381.6,32.4,381.6,30.8z M365.7,25.4c0.6,0,1.3,0.1,1.8,0.4s1.1,0.6,1.5,1s0.8,0.9,1,1.5s0.4,1.2,0.4,1.8v1.9h1.9
		v9.4h-13.1v-9.4h1.9V30c0-0.6,0.1-1.3,0.4-1.8s0.6-1.1,1-1.5s0.9-0.8,1.5-1S365.1,25.4,365.7,25.4z M362.9,31.9h5.6V30
		c0-0.4-0.1-0.8-0.2-1.1s-0.3-0.6-0.6-0.9s-0.6-0.5-0.9-0.6s-0.7-0.2-1.1-0.2s-0.8,0.1-1.1,0.2s-0.6,0.3-0.9,0.6s-0.5,0.6-0.6,0.9
		s-0.2,0.7-0.2,1.1V31.9z"/>
</g>
<g>
	<path class="st3" d="M33.7,78.6v-2.5c0.3,0.3,0.6,0.5,1,0.7s0.8,0.4,1.3,0.5s0.9,0.2,1.3,0.3s0.9,0.1,1.2,0.1
		c1.3,0,2.3-0.2,2.9-0.7s1-1.2,1-2.1c0-0.5-0.1-0.9-0.3-1.3s-0.5-0.7-0.9-1s-0.8-0.6-1.4-0.9s-1.1-0.6-1.7-0.9
		c-0.6-0.3-1.2-0.6-1.8-1s-1-0.7-1.4-1.1s-0.7-0.8-1-1.4s-0.3-1.1-0.3-1.8c0-0.8,0.2-1.6,0.5-2.2s0.8-1.1,1.4-1.5s1.3-0.7,2-0.9
		s1.5-0.3,2.3-0.3c1.8,0,3.1,0.2,3.9,0.6v2.4c-1.1-0.7-2.5-1.1-4.1-1.1c-0.5,0-0.9,0-1.4,0.1s-0.9,0.3-1.2,0.5s-0.7,0.5-0.9,0.9
		s-0.3,0.8-0.3,1.3c0,0.5,0.1,0.9,0.3,1.2s0.4,0.6,0.8,0.9s0.8,0.6,1.2,0.8s1,0.6,1.7,0.9c0.7,0.3,1.3,0.7,1.9,1s1.1,0.7,1.5,1.2
		s0.8,0.9,1,1.4s0.4,1.1,0.4,1.8c0,0.9-0.2,1.7-0.5,2.3s-0.8,1.1-1.4,1.5s-1.3,0.7-2.1,0.8s-1.6,0.3-2.5,0.3c-0.3,0-0.6,0-1.1-0.1
		s-0.9-0.1-1.3-0.2S35,79.1,34.6,79S33.9,78.7,33.7,78.6z"/>
	<path class="st3" d="M58.5,73.3h-9.2c0,1.4,0.4,2.6,1.2,3.4s1.8,1.2,3.1,1.2c1.5,0,2.8-0.5,4-1.4v2c-1.1,0.8-2.7,1.2-4.5,1.2
		c-1.8,0-3.3-0.6-4.3-1.8s-1.6-2.8-1.6-5c0-2,0.6-3.7,1.7-4.9s2.6-1.9,4.3-1.9s3,0.6,3.9,1.7s1.4,2.6,1.4,4.6V73.3z M56.4,71.6
		c0-1.2-0.3-2.1-0.9-2.8s-1.4-1-2.4-1c-1,0-1.8,0.4-2.5,1.1s-1.1,1.6-1.3,2.8H56.4z"/>
	<path class="st3" d="M70.5,78.7c-1,0.6-2.2,0.9-3.6,0.9c-1.9,0-3.3-0.6-4.5-1.8s-1.7-2.8-1.7-4.7c0-2.1,0.6-3.9,1.8-5.2
		s2.9-1.9,4.9-1.9c1.1,0,2.1,0.2,3,0.6v2.1c-1-0.7-2-1-3.1-1c-1.3,0-2.4,0.5-3.3,1.4s-1.3,2.2-1.3,3.8c0,1.5,0.4,2.7,1.2,3.6
		s1.9,1.3,3.2,1.3c1.1,0,2.2-0.4,3.2-1.1V78.7z"/>
	<path class="st3" d="M84.2,79.3h-2.1v-2.1h-0.1c-0.9,1.6-2.2,2.4-4,2.4c-3.1,0-4.6-1.8-4.6-5.5v-7.8h2.1v7.4c0,2.7,1,4.1,3.1,4.1
		c1,0,1.9-0.4,2.5-1.1s1-1.7,1-2.9v-7.5h2.1V79.3z"/>
	<path class="st3" d="M95.2,68.4c-0.4-0.3-0.9-0.4-1.6-0.4c-0.9,0-1.6,0.4-2.2,1.3s-0.9,2-0.9,3.4v6.6h-2.1v-13h2.1V69h0.1
		c0.3-0.9,0.7-1.6,1.4-2.1s1.3-0.8,2-0.8c0.5,0,1,0.1,1.2,0.2V68.4z"/>
	<path class="st3" d="M107.9,73.3h-9.2c0,1.4,0.4,2.6,1.2,3.4s1.8,1.2,3.1,1.2c1.5,0,2.8-0.5,4-1.4v2c-1.1,0.8-2.7,1.2-4.5,1.2
		c-1.8,0-3.3-0.6-4.3-1.8s-1.6-2.8-1.6-5c0-2,0.6-3.7,1.7-4.9s2.6-1.9,4.3-1.9s3,0.6,3.9,1.7s1.4,2.6,1.4,4.6V73.3z M105.7,71.6
		c0-1.2-0.3-2.1-0.9-2.8s-1.4-1-2.4-1c-1,0-1.8,0.4-2.5,1.1s-1.1,1.6-1.3,2.8H105.7z"/>
	<path class="st3" d="M130.8,78.5c-1.3,0.7-3,1.1-5,1.1c-2.6,0-4.7-0.8-6.2-2.5s-2.3-3.9-2.3-6.6c0-2.9,0.9-5.3,2.6-7.1
		s4-2.7,6.7-2.7c1.7,0,3.2,0.2,4.3,0.7v2.3c-1.3-0.7-2.7-1.1-4.3-1.1c-2.1,0-3.8,0.7-5.1,2.1s-1.9,3.3-1.9,5.6c0,2.2,0.6,4,1.8,5.3
		s2.8,2,4.8,2c1.8,0,3.4-0.4,4.7-1.2V78.5z"/>
	<path class="st3" d="M139.7,79.6c-1.9,0-3.5-0.6-4.6-1.8s-1.7-2.8-1.7-4.8c0-2.2,0.6-3.9,1.8-5.1S138,66,140,66
		c1.9,0,3.5,0.6,4.5,1.8s1.6,2.8,1.6,5c0,2.1-0.6,3.7-1.8,5S141.7,79.6,139.7,79.6z M139.8,67.8c-1.3,0-2.4,0.5-3.2,1.4
		s-1.2,2.2-1.2,3.8c0,1.5,0.4,2.8,1.2,3.6s1.8,1.3,3.2,1.3c1.3,0,2.4-0.4,3.1-1.3s1.1-2.1,1.1-3.7c0-1.6-0.4-2.9-1.1-3.8
		S141.2,67.8,139.8,67.8z"/>
	<path class="st3" d="M160.3,79.3h-2.1v-7.4c0-2.8-1-4.1-3-4.1c-1,0-1.9,0.4-2.6,1.2s-1,1.8-1,3v7.4h-2.1v-13h2.1v2.2h0.1
		c1-1.6,2.4-2.5,4.3-2.5c1.4,0,2.5,0.5,3.3,1.4s1.1,2.2,1.1,4V79.3z"/>
	<path class="st3" d="M170.2,79.2c-0.5,0.3-1.1,0.4-1.9,0.4c-2.3,0-3.4-1.3-3.4-3.8v-7.7h-2.2v-1.8h2.2v-3.2l2.1-0.7v3.8h3.3v1.8
		h-3.3v7.3c0,0.9,0.1,1.5,0.4,1.9s0.8,0.6,1.5,0.6c0.5,0,1-0.1,1.4-0.4V79.2z"/>
	<path class="st3" d="M183.5,73.3h-9.2c0,1.4,0.4,2.6,1.2,3.4s1.8,1.2,3.1,1.2c1.5,0,2.8-0.5,4-1.4v2c-1.1,0.8-2.7,1.2-4.5,1.2
		c-1.8,0-3.3-0.6-4.3-1.8s-1.6-2.8-1.6-5c0-2,0.6-3.7,1.7-4.9s2.6-1.9,4.3-1.9s3,0.6,3.9,1.7s1.4,2.6,1.4,4.6V73.3z M181.3,71.6
		c0-1.2-0.3-2.1-0.9-2.8s-1.4-1-2.4-1c-1,0-1.8,0.4-2.5,1.1s-1.1,1.6-1.3,2.8H181.3z"/>
	<path class="st3" d="M197.4,79.3h-2.1v-7.4c0-2.8-1-4.1-3-4.1c-1,0-1.9,0.4-2.6,1.2s-1,1.8-1,3v7.4h-2.1v-13h2.1v2.2h0.1
		c1-1.6,2.4-2.5,4.3-2.5c1.4,0,2.5,0.5,3.3,1.4s1.1,2.2,1.1,4V79.3z"/>
	<path class="st3" d="M207.3,79.2c-0.5,0.3-1.1,0.4-1.9,0.4c-2.3,0-3.4-1.3-3.4-3.8v-7.7h-2.2v-1.8h2.2v-3.2l2.1-0.7v3.8h3.3v1.8
		h-3.3v7.3c0,0.9,0.1,1.5,0.4,1.9s0.8,0.6,1.5,0.6c0.5,0,1-0.1,1.4-0.4V79.2z"/>
</g>
</svg>
