<?xml version="1.0" encoding="utf-8"?>
<!-- Generator: Adobe Illustrator 21.1.0, SVG Export Plug-In . SVG Version: 6.00 Build 0)  -->
<svg version="1.1" id="Layer_2" xmlns="http://www.w3.org/2000/svg" xmlns:xlink="http://www.w3.org/1999/xlink" x="0px" y="0px"
	 viewBox="0 0 400 140" style="enable-background:new 0 0 400 140;" xml:space="preserve">
<style type="text/css">
	.st0{fill:#2F2F2F;}
	.st1{fill:url(#SVGID_1_);}
	.st2{fill:#FFFFFF;}
</style>
<rect class="st0" width="400" height="140"/>
<g>
	
		<linearGradient id="SVGID_1_" gradientUnits="userSpaceOnUse" x1="183.6" y1="59.2928" x2="183.6" y2="0.31" gradientTransform="matrix(1 0 0 1 0 80)">
		<stop  offset="0" style="stop-color:#231F20;stop-opacity:0"/>
		<stop  offset="1" style="stop-color:#231F20"/>
	</linearGradient>
	<polygon class="st1" points="332.7,139.8 205,66 201.5,67.6 199.6,66.3 198.9,69.8 198.5,71 190.6,66.4 188.9,67 178,60.7 
		176.1,62.6 184.8,67.9 183.2,69.5 178.1,66.3 177.1,66.7 169.9,62.5 168.7,66.6 165.6,68.1 168.8,70 168.8,71 161,66.5 156.6,67.3 
		147.9,62.5 146.5,67 143.6,68.1 146.7,70 146.6,71 138.5,66.3 134.6,67.3 132.5,66.3 131.1,70.2 124.7,66.5 119.8,67.1 117.2,70.2 
		110.3,66.2 105.2,68.2 102,66.2 98.1,67.5 96.5,66.3 95,69.1 90.2,66.3 89.4,71 81.5,66.3 79.9,68.8 76.6,66.6 71.1,67 67.3,70.2 
		59.9,66 54.9,68 44.5,62 40.5,61.1 34.5,61.1 34.5,79.3 139.7,140 265.2,140 	"/>
</g>
<g>
	<path class="st2" d="M34.5,79.3V61.1h5c6.4,0,9.6,3,9.6,8.9c0,2.8-0.9,5.1-2.7,6.8s-4.2,2.6-7.2,2.6L34.5,79.3L34.5,79.3z M36.7,63
		v14.3h2.7c2.4,0,4.2-0.6,5.6-1.9s2-3.1,2-5.4c0-4.7-2.5-7-7.4-7H36.7z"/>
	<path class="st2" d="M57.9,79.6c-1.9,0-3.5-0.6-4.6-1.8S51.6,75,51.6,73c0-2.2,0.6-3.9,1.8-5.1s2.8-1.8,4.8-1.8
		c1.9,0,3.5,0.6,4.5,1.8s1.6,2.8,1.6,5c0,2.1-0.6,3.7-1.8,5S59.9,79.6,57.9,79.6z M58.1,67.8c-1.3,0-2.4,0.5-3.2,1.4
		s-1.2,2.2-1.2,3.8c0,1.5,0.4,2.8,1.2,3.6s1.8,1.3,3.2,1.3c1.3,0,2.4-0.4,3.1-1.3s1.1-2.1,1.1-3.7s-0.4-2.9-1.1-3.8
		S59.4,67.8,58.1,67.8z"/>
	<path class="st2" d="M76.6,78.7c-1,0.6-2.2,0.9-3.6,0.9c-1.9,0-3.3-0.6-4.5-1.8s-1.7-2.8-1.7-4.7c0-2.1,0.6-3.9,1.8-5.2
		s2.9-1.9,4.9-1.9c1.1,0,2.1,0.2,3,0.6v2.1c-1-0.7-2-1-3.1-1c-1.3,0-2.4,0.5-3.3,1.4S69,71.4,69,72.9s0.4,2.7,1.2,3.6
		s1.9,1.3,3.2,1.3c1.1,0,2.2-0.4,3.2-1.1C76.6,76.7,76.6,78.7,76.6,78.7z"/>
	<path class="st2" d="M90.2,79.3h-2.1v-2.1H88c-0.9,1.6-2.2,2.4-4,2.4c-3.1,0-4.6-1.8-4.6-5.5v-7.8h2.1v7.4c0,2.7,1,4.1,3.1,4.1
		c1,0,1.9-0.4,2.5-1.1s1-1.7,1-2.9v-7.5h2.1V79.3z"/>
	<path class="st2" d="M112.9,79.3h-2.1v-7.5c0-1.4-0.2-2.5-0.7-3.1s-1.2-1-2.2-1c-0.9,0-1.6,0.4-2.3,1.2s-0.9,1.8-0.9,2.9v7.4h-2.1
		v-7.7c0-2.6-1-3.8-3-3.8c-0.9,0-1.7,0.4-2.3,1.1s-0.9,1.8-0.9,3v7.4h-2.1v-13h2.1v2.1h0.1c0.9-1.6,2.3-2.4,4-2.4
		c0.9,0,1.7,0.2,2.3,0.7s1.1,1.1,1.4,1.9c1-1.8,2.4-2.7,4.3-2.7c2.9,0,4.3,1.8,4.3,5.3L112.9,79.3L112.9,79.3z"/>
	<path class="st2" d="M127.3,73.3h-9.2c0,1.4,0.4,2.6,1.2,3.4s1.8,1.2,3.1,1.2c1.5,0,2.8-0.5,4-1.4v2c-1.1,0.8-2.7,1.2-4.5,1.2
		s-3.3-0.6-4.3-1.8s-1.6-2.8-1.6-5c0-2,0.6-3.7,1.7-4.9s2.6-1.9,4.3-1.9s3,0.6,3.9,1.7s1.4,2.6,1.4,4.6V73.3z M125.2,71.6
		c0-1.2-0.3-2.1-0.9-2.8s-1.4-1-2.4-1s-1.8,0.4-2.5,1.1s-1.1,1.6-1.3,2.8L125.2,71.6L125.2,71.6z"/>
	<path class="st2" d="M141.2,79.3h-2.1v-7.4c0-2.8-1-4.1-3-4.1c-1,0-1.9,0.4-2.6,1.2s-1,1.8-1,3v7.4h-2.1v-13h2.1v2.2h0.1
		c1-1.6,2.4-2.5,4.3-2.5c1.4,0,2.5,0.5,3.3,1.4s1.1,2.2,1.1,4v7.8H141.2z"/>
	<path class="st2" d="M151.2,79.2c-0.5,0.3-1.1,0.4-1.9,0.4c-2.3,0-3.4-1.3-3.4-3.8v-7.7h-2.2v-1.8h2.2v-3.2l2.1-0.7v3.8h3.3V68H148
		v7.3c0,0.9,0.1,1.5,0.4,1.9s0.8,0.6,1.5,0.6c0.5,0,1-0.1,1.4-0.4L151.2,79.2C151.3,79.2,151.2,79.2,151.2,79.2z"/>
	<path class="st2" d="M163.3,79.3h-2.1v-2h-0.1c-0.9,1.6-2.2,2.3-4,2.3c-1.3,0-2.3-0.3-3-1S153,77,153,75.9c0-2.4,1.4-3.8,4.3-4.2
		l3.9-0.5c0-2.2-0.9-3.3-2.7-3.3c-1.6,0-3,0.5-4.2,1.6v-2.1c1.3-0.8,2.8-1.2,4.4-1.2c3.1,0,4.6,1.6,4.6,4.8V79.3z M161.2,72.7
		l-3.1,0.4c-1,0.1-1.7,0.4-2.2,0.7s-0.7,1-0.7,1.8c0,0.6,0.2,1.2,0.7,1.6s1.1,0.6,1.8,0.6c1,0,1.9-0.4,2.6-1.1s1-1.6,1-2.7v-1.3
		H161.2z"/>
	<path class="st2" d="M173.2,79.2c-0.5,0.3-1.1,0.4-1.9,0.4c-2.3,0-3.4-1.3-3.4-3.8v-7.7h-2.2v-1.8h2.2v-3.2l2.1-0.7v3.8h3.3V68H170
		v7.3c0,0.9,0.1,1.5,0.4,1.9s0.8,0.6,1.5,0.6c0.5,0,1-0.1,1.4-0.4L173.2,79.2C173.3,79.2,173.2,79.2,173.2,79.2z"/>
	<path class="st2" d="M177.1,63c-0.4,0-0.7-0.1-1-0.4s-0.4-0.6-0.4-1s0.1-0.7,0.4-1s0.6-0.4,1-0.4s0.7,0.1,1,0.4s0.4,0.6,0.4,1
		s-0.1,0.7-0.4,1S177.4,63,177.1,63z M178.1,79.3H176v-13h2.1V79.3z"/>
	<path class="st2" d="M187.7,79.6c-1.9,0-3.5-0.6-4.6-1.8s-1.7-2.8-1.7-4.8c0-2.2,0.6-3.9,1.8-5.1S186,66,188,66
		c1.9,0,3.5,0.6,4.5,1.8s1.6,2.8,1.6,5c0,2.1-0.6,3.7-1.8,5S189.7,79.6,187.7,79.6z M187.9,67.8c-1.3,0-2.4,0.5-3.2,1.4
		s-1.2,2.2-1.2,3.8c0,1.5,0.4,2.8,1.2,3.6s1.8,1.3,3.2,1.3c1.3,0,2.4-0.4,3.1-1.3s1.1-2.1,1.1-3.7s-0.4-2.9-1.1-3.8
		S189.2,67.8,187.9,67.8z"/>
	<path class="st2" d="M208.3,79.3h-2.1v-7.4c0-2.8-1-4.1-3-4.1c-1,0-1.9,0.4-2.6,1.2s-1,1.8-1,3v7.4h-2.1v-13h2.1v2.2h0.1
		c1-1.6,2.4-2.5,4.3-2.5c1.4,0,2.5,0.5,3.3,1.4s1.1,2.2,1.1,4v7.8H208.3z"/>
</g>
<g>
	<path class="st2" d="M34.5,79.3V61.1h5c6.4,0,9.6,3,9.6,8.9c0,2.8-0.9,5.1-2.7,6.8s-4.2,2.6-7.2,2.6L34.5,79.3L34.5,79.3z M36.7,63
		v14.3h2.7c2.4,0,4.2-0.6,5.6-1.9s2-3.1,2-5.4c0-4.7-2.5-7-7.4-7H36.7z"/>
	<path class="st2" d="M57.9,79.6c-1.9,0-3.5-0.6-4.6-1.8S51.6,75,51.6,73c0-2.2,0.6-3.9,1.8-5.1s2.8-1.8,4.8-1.8
		c1.9,0,3.5,0.6,4.5,1.8s1.6,2.8,1.6,5c0,2.1-0.6,3.7-1.8,5S59.9,79.6,57.9,79.6z M58.1,67.8c-1.3,0-2.4,0.5-3.2,1.4
		s-1.2,2.2-1.2,3.8c0,1.5,0.4,2.8,1.2,3.6s1.8,1.3,3.2,1.3c1.3,0,2.4-0.4,3.1-1.3s1.1-2.1,1.1-3.7s-0.4-2.9-1.1-3.8
		S59.4,67.8,58.1,67.8z"/>
	<path class="st2" d="M76.6,78.7c-1,0.6-2.2,0.9-3.6,0.9c-1.9,0-3.3-0.6-4.5-1.8s-1.7-2.8-1.7-4.7c0-2.1,0.6-3.9,1.8-5.2
		s2.9-1.9,4.9-1.9c1.1,0,2.1,0.2,3,0.6v2.1c-1-0.7-2-1-3.1-1c-1.3,0-2.4,0.5-3.3,1.4S69,71.4,69,72.9s0.4,2.7,1.2,3.6
		s1.9,1.3,3.2,1.3c1.1,0,2.2-0.4,3.2-1.1C76.6,76.7,76.6,78.7,76.6,78.7z"/>
	<path class="st2" d="M90.2,79.3h-2.1v-2.1H88c-0.9,1.6-2.2,2.4-4,2.4c-3.1,0-4.6-1.8-4.6-5.5v-7.8h2.1v7.4c0,2.7,1,4.1,3.1,4.1
		c1,0,1.9-0.4,2.5-1.1s1-1.7,1-2.9v-7.5h2.1V79.3z"/>
	<path class="st2" d="M112.9,79.3h-2.1v-7.5c0-1.4-0.2-2.5-0.7-3.1s-1.2-1-2.2-1c-0.9,0-1.6,0.4-2.3,1.2s-0.9,1.8-0.9,2.9v7.4h-2.1
		v-7.7c0-2.6-1-3.8-3-3.8c-0.9,0-1.7,0.4-2.3,1.1s-0.9,1.8-0.9,3v7.4h-2.1v-13h2.1v2.1h0.1c0.9-1.6,2.3-2.4,4-2.4
		c0.9,0,1.7,0.2,2.3,0.7s1.1,1.1,1.4,1.9c1-1.8,2.4-2.7,4.3-2.7c2.9,0,4.3,1.8,4.3,5.3L112.9,79.3L112.9,79.3z"/>
	<path class="st2" d="M127.3,73.3h-9.2c0,1.4,0.4,2.6,1.2,3.4s1.8,1.2,3.1,1.2c1.5,0,2.8-0.5,4-1.4v2c-1.1,0.8-2.7,1.2-4.5,1.2
		s-3.3-0.6-4.3-1.8s-1.6-2.8-1.6-5c0-2,0.6-3.7,1.7-4.9s2.6-1.9,4.3-1.9s3,0.6,3.9,1.7s1.4,2.6,1.4,4.6V73.3z M125.2,71.6
		c0-1.2-0.3-2.1-0.9-2.8s-1.4-1-2.4-1s-1.8,0.4-2.5,1.1s-1.1,1.6-1.3,2.8L125.2,71.6L125.2,71.6z"/>
	<path class="st2" d="M141.2,79.3h-2.1v-7.4c0-2.8-1-4.1-3-4.1c-1,0-1.9,0.4-2.6,1.2s-1,1.8-1,3v7.4h-2.1v-13h2.1v2.2h0.1
		c1-1.6,2.4-2.5,4.3-2.5c1.4,0,2.5,0.5,3.3,1.4s1.1,2.2,1.1,4v7.8H141.2z"/>
	<path class="st2" d="M151.2,79.2c-0.5,0.3-1.1,0.4-1.9,0.4c-2.3,0-3.4-1.3-3.4-3.8v-7.7h-2.2v-1.8h2.2v-3.2l2.1-0.7v3.8h3.3V68H148
		v7.3c0,0.9,0.1,1.5,0.4,1.9s0.8,0.6,1.5,0.6c0.5,0,1-0.1,1.4-0.4L151.2,79.2C151.3,79.2,151.2,79.2,151.2,79.2z"/>
	<path class="st2" d="M163.3,79.3h-2.1v-2h-0.1c-0.9,1.6-2.2,2.3-4,2.3c-1.3,0-2.3-0.3-3-1S153,77,153,75.9c0-2.4,1.4-3.8,4.3-4.2
		l3.9-0.5c0-2.2-0.9-3.3-2.7-3.3c-1.6,0-3,0.5-4.2,1.6v-2.1c1.3-0.8,2.8-1.2,4.4-1.2c3.1,0,4.6,1.6,4.6,4.8V79.3z M161.2,72.7
		l-3.1,0.4c-1,0.1-1.7,0.4-2.2,0.7s-0.7,1-0.7,1.8c0,0.6,0.2,1.2,0.7,1.6s1.1,0.6,1.8,0.6c1,0,1.9-0.4,2.6-1.1s1-1.6,1-2.7v-1.3
		H161.2z"/>
	<path class="st2" d="M173.2,79.2c-0.5,0.3-1.1,0.4-1.9,0.4c-2.3,0-3.4-1.3-3.4-3.8v-7.7h-2.2v-1.8h2.2v-3.2l2.1-0.7v3.8h3.3V68H170
		v7.3c0,0.9,0.1,1.5,0.4,1.9s0.8,0.6,1.5,0.6c0.5,0,1-0.1,1.4-0.4L173.2,79.2C173.3,79.2,173.2,79.2,173.2,79.2z"/>
	<path class="st2" d="M177.1,63c-0.4,0-0.7-0.1-1-0.4s-0.4-0.6-0.4-1s0.1-0.7,0.4-1s0.6-0.4,1-0.4s0.7,0.1,1,0.4s0.4,0.6,0.4,1
		s-0.1,0.7-0.4,1S177.4,63,177.1,63z M178.1,79.3H176v-13h2.1V79.3z"/>
	<path class="st2" d="M187.7,79.6c-1.9,0-3.5-0.6-4.6-1.8s-1.7-2.8-1.7-4.8c0-2.2,0.6-3.9,1.8-5.1S186,66,188,66
		c1.9,0,3.5,0.6,4.5,1.8s1.6,2.8,1.6,5c0,2.1-0.6,3.7-1.8,5S189.7,79.6,187.7,79.6z M187.9,67.8c-1.3,0-2.4,0.5-3.2,1.4
		s-1.2,2.2-1.2,3.8c0,1.5,0.4,2.8,1.2,3.6s1.8,1.3,3.2,1.3c1.3,0,2.4-0.4,3.1-1.3s1.1-2.1,1.1-3.7s-0.4-2.9-1.1-3.8
		S189.2,67.8,187.9,67.8z"/>
	<path class="st2" d="M208.3,79.3h-2.1v-7.4c0-2.8-1-4.1-3-4.1c-1,0-1.9,0.4-2.6,1.2s-1,1.8-1,3v7.4h-2.1v-13h2.1v2.2h0.1
		c1-1.6,2.4-2.5,4.3-2.5c1.4,0,2.5,0.5,3.3,1.4s1.1,2.2,1.1,4v7.8H208.3z"/>
</g>
<g>
	<path class="st2" d="M383.7,21.2v9.7c0,1.9-0.2,3.7-0.7,5.4c-0.5,1.6-1.1,3.2-2,4.7c-0.9,1.5-1.8,2.9-3,4.2
		c-1.2,1.3-2.4,2.5-3.7,3.7c-1.3,1.2-2.7,2.2-4.2,3.2c-1.5,1-2.9,1.9-4.4,2.8c-1.5-0.9-3-1.8-4.4-2.8c-1.4-1-2.9-2.1-4.2-3.2
		c-1.3-1.1-2.6-2.4-3.7-3.7c-1.1-1.3-2.1-2.7-3-4.2c-0.9-1.5-1.5-3.1-2-4.7c-0.5-1.6-0.7-3.4-0.7-5.4v-9.7c1,0,2,0,3-0.1
		c1-0.1,1.9-0.2,2.8-0.4c0.9-0.2,1.8-0.5,2.7-0.8c0.9-0.3,1.8-0.8,2.7-1.4c1.1-0.7,2.1-1.2,3.2-1.5c1.1-0.3,2.2-0.5,3.5-0.5
		c0.6,0,1.2,0,1.8,0.1c0.6,0.1,1.1,0.2,1.7,0.4c0.6,0.2,1.1,0.4,1.6,0.6c0.5,0.2,1.1,0.6,1.6,0.9c0.9,0.6,1.8,1,2.7,1.4
		c0.9,0.4,1.8,0.6,2.7,0.8c0.9,0.2,1.9,0.3,2.8,0.4C381.4,21.2,382.7,21.2,383.7,21.2z M381.6,30.7v-7.4c-1.9-0.1-3.7-0.4-5.4-0.9
		s-3.4-1.3-5.1-2.3c-0.9-0.6-1.7-1-2.6-1.2c-0.9-0.2-1.8-0.4-2.8-0.4s-2,0.1-2.8,0.4c-0.8,0.3-1.7,0.7-2.6,1.2
		c-1.6,1-3.3,1.8-5.1,2.3c-1.7,0.5-3.5,0.8-5.4,0.9v7.4c0,1.6,0.2,3.2,0.6,4.6c0.4,1.4,1,2.9,1.7,4.2c0.7,1.3,1.6,2.6,2.6,3.8
		c1,1.2,2.1,2.3,3.3,3.4c1.2,1.1,2.4,2,3.7,2.9s2.6,1.7,3.9,2.5c1.3-0.7,2.6-1.6,3.9-2.5c1.3-0.9,2.5-1.9,3.7-2.9
		c1.2-1,2.3-2.2,3.3-3.4c1-1.2,1.9-2.5,2.6-3.8c0.7-1.3,1.3-2.8,1.7-4.2C381.4,33.9,381.6,32.3,381.6,30.7z"/>
</g>
<path class="st2" d="M370.4,31.8v-2c0-2.5-2.1-4.6-4.6-4.6c-2.5,0-4.6,2.1-4.6,4.6v2h-2v9.4h13.1v-9.4H370.4z M363,29.8
	c0-1.5,1.2-2.8,2.8-2.8c1.5,0,2.8,1.2,2.8,2.8v2H363V29.8z"/>
</svg>
