<?xml version="1.0" encoding="utf-8"?>
<!-- Generator: Adobe Illustrator 21.1.0, SVG Export Plug-In . SVG Version: 6.00 Build 0)  -->
<svg version="1.1" id="Layer_1" xmlns="http://www.w3.org/2000/svg" xmlns:xlink="http://www.w3.org/1999/xlink" x="0px" y="0px"
	 viewBox="0 0 400 140" style="enable-background:new 0 0 400 140;" xml:space="preserve">
<style type="text/css">
	.st0{fill:#2F2F2F;}
	.st1{fill:url(#SVGID_1_);}
	.st2{fill:#FFFFFF;}
</style>
<rect class="st0" width="400" height="140"/>
<g>
	
		<linearGradient id="SVGID_1_" gradientUnits="userSpaceOnUse" x1="143.2" y1="-9.094947e-13" x2="143.2" y2="79.9" gradientTransform="matrix(1 0 0 -1 0 140)">
		<stop  offset="0" style="stop-color:#221F1F;stop-opacity:0"/>
		<stop  offset="1" style="stop-color:#221F1F"/>
	</linearGradient>
	<polygon class="st1" points="252.7,139.8 126.1,66.6 120.6,67.2 118.8,70 113.4,66.9 111.9,66.3 101.1,60.1 100,61.8 100.2,70.8 
		93.1,66.7 87.9,67.5 85.8,66.3 84.6,70.5 77.9,66.6 72,68 69.8,66.7 65,67.3 63.4,66.3 61.9,66.9 61.7,70.2 55.8,66.8 52.4,66.3 
		44,61.4 36.9,62.1 34.6,66 36.6,69.1 43.5,73.2 43.3,76.8 38.6,78.9 34.7,77.7 33.7,78.6 140,140 224.9,140 	"/>
</g>
<g>
	<path class="st2" d="M33.7,78.6v-2.5c0.3,0.3,0.6,0.5,1,0.7s0.8,0.4,1.3,0.5s0.9,0.2,1.3,0.3s0.9,0.1,1.2,0.1
		c1.3,0,2.3-0.2,2.9-0.7s1-1.2,1-2.1c0-0.5-0.1-0.9-0.3-1.3s-0.5-0.7-0.9-1s-0.8-0.6-1.4-0.9s-1.1-0.6-1.7-0.9
		c-0.6-0.3-1.2-0.6-1.8-1s-1-0.7-1.4-1.1s-0.7-0.8-1-1.4s-0.3-1.1-0.3-1.8c0-0.8,0.2-1.6,0.5-2.2s0.8-1.1,1.4-1.5s1.3-0.7,2-0.9
		s1.5-0.3,2.3-0.3c1.8,0,3.1,0.2,3.9,0.6v2.4c-1.1-0.7-2.5-1.1-4.1-1.1c-0.5,0-0.9,0-1.4,0.1s-0.9,0.3-1.2,0.5s-0.7,0.5-0.9,0.9
		s-0.3,0.8-0.3,1.3s0.1,0.9,0.3,1.2s0.4,0.6,0.8,0.9s0.8,0.6,1.2,0.8s1,0.6,1.7,0.9s1.3,0.7,1.9,1s1.1,0.7,1.5,1.2s0.8,0.9,1,1.4
		s0.4,1.1,0.4,1.8c0,0.9-0.2,1.7-0.5,2.3s-0.8,1.1-1.4,1.5s-1.3,0.7-2.1,0.8s-1.6,0.3-2.5,0.3c-0.3,0-0.6,0-1.1-0.1
		s-0.9-0.1-1.3-0.2s-0.7,0-1.1-0.1S33.9,78.7,33.7,78.6z"/>
	<path class="st2" d="M57.4,79.3h-2.1v-2h-0.1c-0.9,1.6-2.2,2.3-4,2.3c-1.3,0-2.3-0.3-3-1s-1.1-1.6-1.1-2.7c0-2.4,1.4-3.8,4.3-4.2
		l3.9-0.5c0-2.2-0.9-3.3-2.7-3.3c-1.6,0-3,0.5-4.2,1.6v-2.1c1.3-0.8,2.8-1.2,4.4-1.2c3.1,0,4.6,1.6,4.6,4.8
		C57.4,71,57.4,79.3,57.4,79.3z M55.3,72.7l-3.1,0.4c-1,0.1-1.7,0.4-2.2,0.7s-0.7,1-0.7,1.8c0,0.6,0.2,1.2,0.7,1.6s1.1,0.6,1.8,0.6
		c1,0,1.9-0.4,2.6-1.1s1-1.6,1-2.7L55.3,72.7L55.3,72.7z"/>
	<path class="st2" d="M79.8,79.3h-2.1v-7.5c0-1.4-0.2-2.5-0.7-3.1s-1.2-1-2.2-1c-0.9,0-1.6,0.4-2.3,1.2s-0.9,1.8-0.9,2.9v7.4h-2.1
		v-7.7c0-2.6-1-3.8-3-3.8c-0.9,0-1.7,0.4-2.3,1.1s-0.9,1.8-0.9,3v7.4h-2.1v-13h2.1v2.1h0.1c0.9-1.6,2.3-2.4,4-2.4
		c0.9,0,1.7,0.2,2.3,0.7s1.1,1.1,1.4,1.9c1-1.8,2.4-2.7,4.3-2.7c2.9,0,4.3,1.8,4.3,5.3L79.8,79.3L79.8,79.3z"/>
	<path class="st2" d="M85.8,77.4L85.8,77.4l-0.1,7.9h-2.1v-19h2.1v2.3h0.1c1-1.7,2.5-2.6,4.5-2.6c1.7,0,3,0.6,3.9,1.7
		s1.4,2.7,1.4,4.7c0,2.2-0.5,3.9-1.6,5.2s-2.5,2-4.3,2C88,79.6,86.7,78.9,85.8,77.4z M85.8,72.2V74c0,1.1,0.3,2,1,2.7
		s1.6,1.1,2.7,1.1c1.3,0,2.2-0.5,3-1.4s1.1-2.3,1.1-4c0-1.4-0.3-2.6-1-3.4s-1.6-1.2-2.7-1.2c-1.2,0-2.2,0.4-2.9,1.3
		S85.8,70.9,85.8,72.2z"/>
	<path class="st2" d="M101.1,79.3H99V60.1h2.1V79.3z"/>
	<path class="st2" d="M115.7,73.3h-9.2c0,1.4,0.4,2.6,1.2,3.4s1.8,1.2,3.1,1.2c1.5,0,2.8-0.5,4-1.4v2c-1.1,0.8-2.7,1.2-4.5,1.2
		s-3.3-0.6-4.3-1.8s-1.6-2.8-1.6-5c0-2,0.6-3.7,1.7-4.9s2.6-1.9,4.3-1.9s3,0.6,3.9,1.7s1.4,2.6,1.4,4.6V73.3z M113.6,71.6
		c0-1.2-0.3-2.1-0.9-2.8s-1.4-1-2.4-1s-1.8,0.4-2.5,1.1s-1.1,1.6-1.3,2.8L113.6,71.6L113.6,71.6z"/>
	<path class="st2" d="M118.1,78.8v-2.2c1.1,0.8,2.4,1.3,3.7,1.3c1.8,0,2.7-0.6,2.7-1.8c0-0.3-0.1-0.6-0.2-0.9s-0.4-0.5-0.6-0.6
		s-0.6-0.4-0.9-0.5s-0.7-0.3-1.2-0.5c-0.6-0.2-1.1-0.5-1.5-0.7s-0.8-0.5-1.1-0.8s-0.5-0.6-0.7-1s-0.2-0.8-0.2-1.3
		c0-0.6,0.1-1.1,0.4-1.6s0.7-0.9,1.1-1.2s1-0.6,1.6-0.7s1.2-0.2,1.8-0.2c1.1,0,2.1,0.2,3,0.6v2.1c-1-0.6-2.1-0.9-3.3-0.9
		c-0.4,0-0.7,0-1.1,0.1s-0.6,0.2-0.8,0.4s-0.4,0.4-0.5,0.6s-0.2,0.5-0.2,0.7c0,0.3,0.1,0.6,0.2,0.9s0.3,0.4,0.5,0.6s0.5,0.3,0.9,0.5
		s0.7,0.3,1.2,0.5c0.6,0.2,1.1,0.4,1.5,0.7s0.8,0.5,1.2,0.8s0.6,0.6,0.7,1s0.3,0.8,0.3,1.4s-0.1,1.2-0.4,1.7s-0.7,0.9-1.1,1.2
		s-1,0.5-1.6,0.7s-1.3,0.2-1.9,0.2C120.2,79.6,119.1,79.4,118.1,78.8z"/>
</g>
</svg>
