<svg width="84" height="26" viewBox="0 0 84 26" fill="none" xmlns="http://www.w3.org/2000/svg">
<g clip-path="url(#clip0_8012_1309)">
<path d="M83.5229 20.4867L77.7615 12.7239L83.0256 5.67676H81.0485L76.7669 11.4261L72.4852 5.67676H70.5203L75.7723 12.736L70.0229 20.4988H72L76.7669 14.0703L81.5458 20.4988H83.5229" fill="#127C10"/>
<path d="M44.2724 20.4867L38.5231 12.7239L43.7751 5.67676H41.8102L37.5285 11.4261L33.2468 5.67676H31.2698L36.5339 12.736L30.7725 20.4988H32.7495L37.5285 14.0703L42.2953 20.4988H44.2724" fill="#127C10"/>
<path d="M51.1735 18.9341C51.1735 18.9341 47.4619 18.9341 46.7705 18.9341V13.5487C47.4497 13.5487 51.1735 13.5487 51.1735 13.5487C52.8473 13.5487 54.8365 13.9975 54.8365 16.1201C54.8365 18.5703 52.5319 18.9341 51.1735 18.9341ZM46.7705 7.21718C47.4497 7.21718 51.1735 7.21718 51.1735 7.21718C52.3621 7.21718 54.3635 7.50829 54.3635 9.57028C54.3635 11.1228 53.1991 12.0568 51.1735 12.0568C51.1735 12.0568 47.4619 12.0568 46.7705 12.0568V7.21718ZM55.2125 13.2819C54.8972 13.015 54.5697 12.8088 54.2301 12.6633C55.3096 12.0811 56.0252 10.9773 56.0252 9.7037C56.0252 8.75761 55.6734 5.67676 51.1613 5.67676H45.0845V12.0689C45.0845 12.0689 43.1196 12.0689 43.0589 12.0689C42.7921 12.4085 42.1977 13.2212 41.9673 13.5487C42.1856 13.5487 45.0845 13.5487 45.0845 13.5487V20.4867H51.1613C54.4605 20.4867 56.5104 18.825 56.5104 16.1565C56.5225 14.9921 56.0737 13.9975 55.2125 13.2819Z" fill="#127C10"/>
<path d="M64.418 19.2493C61.2038 19.2493 58.9598 16.7142 58.9598 13.0754C58.9598 9.43663 61.2038 6.9016 64.418 6.9016C67.6202 6.9016 69.852 9.43663 69.852 13.0754C69.852 16.7021 67.6202 19.2493 64.418 19.2493ZM64.418 5.33691C60.197 5.33691 57.2617 8.5148 57.2617 13.0754C57.2617 17.6361 60.197 20.814 64.418 20.814C68.6148 20.814 71.5501 17.6361 71.5501 13.0754C71.5501 8.5148 68.6148 5.33691 64.418 5.33691Z" fill="#127C10"/>
<path d="M11.3192 25.2429C9.3798 25.0579 7.41517 24.3601 5.72519 23.2559C4.30987 22.331 3.99037 21.9526 3.99037 21.1931C3.99037 19.6713 5.66353 17.0032 8.5222 13.9652C10.1477 12.2388 12.4094 10.2153 12.6533 10.2685C13.1297 10.375 16.9328 14.0913 18.3566 15.8373C20.6099 18.6063 21.6468 20.8708 21.12 21.8798C20.7192 22.6477 18.2389 24.1471 16.4172 24.7216C14.915 25.1981 12.9419 25.3999 11.3192 25.2429ZM2.08179 19.6125C0.907498 17.8076 0.313344 16.0279 0.0246749 13.4579C-0.070614 12.6087 -0.0369826 12.1239 0.240476 10.3806C0.585198 8.20862 1.81835 5.69748 3.30373 4.15043C3.93712 3.49182 3.99318 3.475 4.7639 3.73565C5.69997 4.05234 6.6977 4.74179 8.24755 6.14589L9.15279 6.96426L8.65953 7.57243C6.36419 10.3919 3.94553 14.3884 3.03468 16.8603C2.53862 18.2027 2.33963 19.5536 2.55263 20.1141C2.69557 20.4925 2.56384 20.3523 2.08179 19.6125ZM22.709 19.9179C22.8239 19.3518 22.6782 18.3092 22.3335 17.2583C21.5908 14.9825 19.0993 10.745 16.8123 7.8667L16.0921 6.96145L16.8712 6.24399C17.8885 5.30791 18.5948 4.74739 19.3571 4.27375C19.9597 3.8982 20.8173 3.56749 21.1872 3.56749C21.4142 3.56749 22.2158 4.39987 22.8632 5.31072C23.8665 6.71763 24.6036 8.42722 24.9764 10.2041C25.2174 11.3532 25.237 13.811 25.0156 14.9545C24.8334 15.8934 24.4467 17.1125 24.0711 17.9421C23.788 18.5615 23.0874 19.7638 22.7791 20.1562C22.6222 20.3523 22.6222 20.3523 22.709 19.9179ZM11.5266 3.13589C10.47 2.59779 8.8417 2.02325 7.94206 1.8663C7.62537 1.81305 7.09007 1.78222 6.74534 1.79904C6.00265 1.83547 6.03628 1.79904 7.22739 1.23571C8.21672 0.767678 9.04349 0.493022 10.1645 0.257603C11.4257 -0.00864559 13.7939 -0.0114482 15.0355 0.251998C16.3751 0.535062 17.953 1.12361 18.8414 1.67012L19.1049 1.83267L18.4995 1.80184C17.2944 1.74019 15.5399 2.22784 13.6538 3.1471C13.0849 3.42456 12.5916 3.64596 12.5552 3.63755C12.5215 3.63195 12.0563 3.40494 11.5266 3.13589Z" fill="#127C10"/>
</g>
<defs>
<clipPath id="clip0_8012_1309">
<rect width="83.4014" height="25.3503" fill="white"/>
</clipPath>
</defs>
</svg>
