<svg width="33" height="33" viewBox="0 0 33 33" fill="none" xmlns="http://www.w3.org/2000/svg">
<path d="M11.4926 2.35449H20.4178L11.1529 29.8061C11.0576 30.0883 10.8763 30.3334 10.6344 30.5071C10.3925 30.6808 10.1022 30.7742 9.80439 30.7742H2.85854C2.63293 30.7742 2.41056 30.7205 2.20983 30.6175C2.00909 30.5145 1.83577 30.3652 1.70419 30.182C1.57261 29.9987 1.48656 29.7867 1.45316 29.5636C1.41976 29.3405 1.43997 29.1126 1.51211 28.8989L10.1441 3.32258C10.2393 3.04041 10.4206 2.79523 10.6625 2.62155C10.9045 2.44788 11.1948 2.35448 11.4926 2.35449V2.35449Z" fill="url(#paint0_linear_11_141)"/>
<path d="M24.4628 20.7676H10.3096C10.1781 20.7676 10.0496 20.8071 9.94085 20.8811C9.83211 20.9552 9.74816 21.0602 9.69993 21.1826C9.6517 21.305 9.64142 21.439 9.67043 21.5673C9.69945 21.6956 9.7664 21.8122 9.8626 21.902L18.9572 30.39C19.2219 30.6371 19.5705 30.7745 19.9326 30.7746H27.9463L24.4628 20.7676Z" fill="#0078D4"/>
<path d="M11.4935 2.3545C11.1925 2.35338 10.899 2.44852 10.6559 2.62602C10.4128 2.80352 10.2328 3.0541 10.1422 3.34115L1.5238 28.8757C1.44683 29.0902 1.42266 29.3201 1.45335 29.546C1.48403 29.7719 1.56866 29.987 1.70008 30.1732C1.8315 30.3595 2.00584 30.5113 2.20835 30.6159C2.41086 30.7205 2.63559 30.7748 2.86353 30.7742H9.98869C10.2541 30.7268 10.5022 30.6098 10.7076 30.4351C10.913 30.2603 11.0684 30.0342 11.1577 29.7798L12.8761 24.7151L19.0152 30.4409C19.2725 30.6537 19.5952 30.7714 19.929 30.7742H27.9131L24.4112 20.7672L14.2032 20.7695L20.4512 2.3545H11.4935Z" fill="url(#paint1_linear_11_141)"/>
<path d="M22.8928 3.32103C22.7978 3.03933 22.6167 2.79455 22.3752 2.62115C22.1337 2.44776 21.8438 2.3545 21.5465 2.35449H11.5996C11.8969 2.35449 12.1868 2.44775 12.4283 2.62114C12.6699 2.79453 12.8509 3.03932 12.946 3.32103L21.5785 28.8987C21.6506 29.1125 21.6708 29.3404 21.6374 29.5635C21.604 29.7866 21.518 29.9986 21.3864 30.1819C21.2548 30.3652 21.0815 30.5145 20.8808 30.6175C20.6801 30.7205 20.4577 30.7742 20.2321 30.7742H30.179C30.4046 30.7742 30.627 30.7204 30.8277 30.6174C31.0284 30.5144 31.2017 30.3651 31.3333 30.1818C31.4648 29.9986 31.5509 29.7866 31.5842 29.5635C31.6176 29.3404 31.5974 29.1125 31.5253 28.8987L22.8928 3.32103Z" fill="url(#paint2_linear_11_141)"/>
<defs>
<linearGradient id="paint0_linear_11_141" x1="14.7456" y1="4.46043" x2="5.47663" y2="31.8433" gradientUnits="userSpaceOnUse">
<stop stop-color="#114A8B"/>
<stop offset="1" stop-color="#0669BC"/>
</linearGradient>
<linearGradient id="paint1_linear_11_141" x1="17.6421" y1="17.2215" x2="15.4979" y2="17.9465" gradientUnits="userSpaceOnUse">
<stop stop-opacity="0.3"/>
<stop offset="0.071" stop-opacity="0.2"/>
<stop offset="0.321" stop-opacity="0.1"/>
<stop offset="0.623" stop-opacity="0.05"/>
<stop offset="1" stop-opacity="0"/>
</linearGradient>
<linearGradient id="paint2_linear_11_141" x1="16.4625" y1="3.6616" x2="26.6369" y2="30.7688" gradientUnits="userSpaceOnUse">
<stop stop-color="#3CCBF4"/>
<stop offset="1" stop-color="#2892DF"/>
</linearGradient>
</defs>
</svg>
