<?xml version="1.0" encoding="UTF-8"?>
<svg width="20px" height="20px" viewBox="0 0 20 20" version="1.1" xmlns="http://www.w3.org/2000/svg" xmlns:xlink="http://www.w3.org/1999/xlink">
    <title>Group 6</title>
    <defs>
        <polygon id="path-1" points="0 0 20 0 20 20 0 20"></polygon>
    </defs>
    <g id="Kevin" stroke="none" stroke-width="1" fill="none" fill-rule="evenodd">
        <g id="Mainstreet-Desktop-P" transform="translate(-566.000000, -6473.000000)">
            <g id="Group-6" transform="translate(566.000000, 6473.000000)">
                <g id="Group-3">
                    <mask id="mask-2" fill="white">
                        <use xlink:href="#path-1"></use>
                    </mask>
                    <g id="Clip-2"></g>
                    <path d="M10.2083473,16.6065314 C10.4487282,16.5881331 10.6901408,16.5789339 10.9284583,16.5503143 C12.6750886,16.3448664 14.120469,15.566004 15.2026989,14.2024838 C16.681093,12.3411867 17.0483702,10.2417335 16.3117524,7.99202739 C15.3326903,5.00127766 12.273766,3.11749374 9.09000872,3.69193029 C7.38877225,3.99856902 6.01354593,4.8479583 5.01900866,6.239076 C3.6406873,8.16681147 3.38379957,10.2723974 4.21223673,12.4832626 C5.13455656,14.9445495 7.56725249,16.595288 10.2083473,16.6065314 M-0.000103167766,11.9456227 C0.461056747,11.8791843 0.90570982,11.8178566 1.34933121,11.7493739 C1.94048252,11.6584045 2.53472885,11.5725456 3.08770808,11.3313231 C3.23833302,11.2648848 3.37451447,11.1544948 3.49934746,11.0441049 C3.56846987,10.9837993 3.60561026,10.8897634 3.49728411,10.8008381 C2.64511836,10.1006797 2.13134288,9.19405121 1.89715205,8.13512547 C1.72898859,7.37261716 1.57939533,6.60499821 1.46487911,5.83431287 C1.3730598,5.22103542 1.33076102,4.59958093 1.39782007,3.95870598 C1.60106056,4.09362703 1.79501597,4.22445955 1.99000304,4.35222569 C2.56980589,4.73450197 3.14341867,5.12495528 3.73147494,5.49292176 C4.00796455,5.6666837 4.31643617,5.78627281 4.65069974,5.81387029 C4.73632898,5.8210252 4.82298991,5.81489242 4.90242909,5.81489242 C4.92306264,5.55527163 4.93131606,5.31302704 4.96226639,5.07384883 C5.04273725,4.45852711 5.28827653,3.90044463 5.59881151,3.36791537 C6.02179935,2.64220371 6.56136677,2.00337303 7.10093418,1.36249808 C7.45995801,0.936270251 7.81485513,0.504931773 8.1718156,0.0766596821 C8.1903858,0.054172842 8.21101935,0.0347523892 8.24403303,0 C8.58861337,1.04052742 8.92803532,2.06470077 9.27055231,3.10011754 C9.3076927,3.08274135 9.33864303,3.07149793 9.36649833,3.05412174 C10.3754791,2.43675576 11.4762792,2.06265651 12.6348532,1.83881024 C13.5303494,1.66607042 14.434099,1.57305668 15.3440387,1.52603874 C15.5225189,1.51683958 15.7009992,1.50457403 15.9052714,1.49230848 C15.4131611,2.50523841 14.930336,3.49772576 14.4506059,4.4861246 C14.6301178,4.4861246 14.8003446,4.48101395 14.9705714,4.48714673 C15.653542,4.51167782 16.2673902,4.74676752 16.8461614,5.08918076 C17.4517562,5.44794808 17.9789435,5.90586191 18.5009724,6.37093065 C19.0095894,6.82475597 19.4851928,7.31026729 19.932941,7.82337609 C19.9577012,7.85199571 19.9803981,7.88265958 20,7.90821281 C19.0147478,8.35283896 18.0356857,8.79644299 17.0473385,9.24311341 C17.4146158,9.77870905 17.6921371,10.3357694 17.8953776,10.9286043 C18.1326634,11.6205857 18.2915418,12.3309654 18.3410623,13.0587213 C18.4008996,13.9377523 18.4277232,14.8188276 18.4679587,15.6988808 C18.4689903,15.7101242 18.463832,15.7223897 18.4576419,15.7550979 C18.3833611,15.7029693 18.3173337,15.6569735 18.2513064,15.6109777 C17.8293502,15.3155824 17.4053307,15.0222313 16.9163155,14.8413145 C16.5799885,14.7176368 16.2333449,14.6603976 15.874321,14.6747074 C15.8021036,14.6777738 15.743298,14.6859508 15.717506,14.7748761 C15.3976859,15.8665099 14.8189148,16.8201564 14.1256274,17.7124751 C13.5035258,18.5128022 12.8009533,19.2415802 12.1004441,19.9724025 C12.0921907,19.9805795 12.0798106,19.9856902 12.059177,20 C12.0385435,19.7597997 12.0230683,19.5287985 11.9972764,19.2988194 C11.9333124,18.7427812 11.8270496,18.1959421 11.4442971,17.7564266 C11.3029573,17.5949302 11.1172553,17.4712526 10.9521869,17.3312209 C10.8871912,17.276026 10.8242589,17.2852251 10.7479147,17.3179333 C9.86892535,17.6930546 8.97136579,18.0170696 8.04388757,18.2562478 C7.04419191,18.5148464 6.02902109,18.6589666 4.99528007,18.6579445 C4.76934267,18.6569224 4.54340526,18.6395462 4.2875492,18.6283028 C4.40412877,18.5240456 4.50110647,18.440231 4.59602082,18.3523279 C5.09844784,17.8882813 5.51421394,17.3659733 5.71539108,16.698523 C5.81443214,16.3724638 5.82371724,16.0423161 5.81236878,15.7070578 C5.81030543,15.6314202 5.77832342,15.59769 5.70507431,15.5884908 C4.37421012,15.4300608 3.26102992,14.7994072 2.25927091,13.9673941 C1.49686112,13.3346962 0.774686757,12.6539582 0.0360055504,11.9936628 C0.0267204515,11.9854858 0.0205303855,11.9732202 -0.000103167766,11.9456227" id="Fill-1" fill="#FEB913" mask="url(#mask-2)"></path>
                </g>
                <path d="M11.0758851,10.1736597 C11.0789801,9.71983442 10.7199563,9.35084581 10.2732398,9.34880155 C9.81517495,9.34573517 9.44996105,9.70756887 9.44788892,10.1644606 C9.44583434,10.6152195 9.8079532,10.9893188 10.2505429,10.9934073 C10.7034494,10.9985179 11.07279,10.6305514 11.0758851,10.1736597 M14.201869,10.0878009 C14.2029,11.9910053 12.9298098,13.6376552 11.0686633,14.0485511 C9.55519218,14.3838095 8.25837335,13.9279399 7.23288576,12.7841774 C6.4550008,11.9163898 6.14343415,10.8768846 6.23834849,9.72494506 C6.3765933,8.05274186 7.54548409,6.57269893 9.24259384,6.15464813 C11.2182566,5.66811468 13.169159,6.69433229 13.9129986,8.57607196 C14.1048907,9.06158328 14.19671,9.56651505 14.201869,10.0878009" id="Fill-4" fill="#FEB913"></path>
            </g>
        </g>
    </g>
</svg>