<svg width="36" height="44" viewBox="0 0 36 44" fill="none" xmlns="http://www.w3.org/2000/svg">
<path fill-rule="evenodd" clip-rule="evenodd" d="M32.0625 38.5859C32.0625 38.1133 32.0332 37.5977 31.9746 37.0391C31.916 36.4805 31.7988 35.972 31.623 35.5137L28.0415 25.9961C28.0122 25.9245 27.9463 25.86 27.8438 25.8027C27.7412 25.7454 27.6313 25.6882 27.5142 25.6309C27.397 25.5736 27.2798 25.5306 27.1626 25.502C27.0454 25.4733 26.9575 25.4375 26.8989 25.3945V24.3633C26.3862 24.1628 25.8589 24.0267 25.3169 23.9551C24.7749 23.8835 24.2256 23.8405 23.6689 23.8262C23.5225 23.8262 23.354 23.8763 23.1636 23.9766C22.9731 24.0768 22.7461 24.1914 22.4824 24.3203C22.2188 24.4492 21.9331 24.5638 21.6255 24.6641C21.3179 24.7643 20.9663 24.8216 20.5708 24.8359H15.4292C15.0483 24.8359 14.7041 24.7858 14.3965 24.6855C14.0889 24.5853 13.8032 24.4707 13.5396 24.3418C13.2759 24.2129 13.0488 24.0983 12.8584 23.998C12.668 23.8978 12.4922 23.8405 12.3311 23.8262C11.7744 23.8262 11.2251 23.862 10.6831 23.9336C10.1411 24.0052 9.61377 24.1484 9.10107 24.3633V25.3945C9.04248 25.4232 8.95459 25.4518 8.8374 25.4805C8.72021 25.5091 8.60303 25.5592 8.48584 25.6309C8.36865 25.7025 8.25879 25.7598 8.15625 25.8027C8.05371 25.8457 7.98779 25.9102 7.9585 25.9961L4.37695 35.5352C4.21582 35.9935 4.10596 36.4948 4.04736 37.0391C3.98877 37.5833 3.95215 38.099 3.9375 38.5859C3.9375 38.8151 3.9668 39.0801 4.02539 39.3809C4.08398 39.6816 4.1792 39.9681 4.31104 40.2402C4.44287 40.5124 4.61133 40.7415 4.81641 40.9277C5.02148 41.1139 5.27783 41.2214 5.58545 41.25L10.3755 37.0176C10.8882 36.5592 11.5181 36.237 12.2651 36.0508C13.0122 35.8646 13.7227 35.7643 14.3965 35.75H21.6035C21.9404 35.75 22.292 35.7715 22.6582 35.8145C23.0244 35.8574 23.3833 35.9362 23.7349 36.0508C24.0864 36.1654 24.4307 36.2943 24.7676 36.4375C25.1045 36.5807 25.3975 36.7813 25.6465 37.0391L30.4146 41.25C30.7075 41.2357 30.9565 41.1354 31.1616 40.9492C31.3667 40.763 31.5425 40.5267 31.689 40.2402C31.8354 39.9538 31.9307 39.6673 31.9746 39.3809C32.0186 39.0944 32.0479 38.8294 32.0625 38.5859ZM18.9888 26.5332C18.7104 26.2611 18.3809 26.125 18 26.125C17.6191 26.125 17.2896 26.2611 17.0112 26.5332C16.7329 26.8053 16.5938 27.1276 16.5938 27.5C16.5938 27.8724 16.7329 28.1947 17.0112 28.4668C17.2896 28.7389 17.6191 28.875 18 28.875C18.3809 28.875 18.7104 28.7389 18.9888 28.4668C19.2671 28.1947 19.4062 27.8724 19.4062 27.5C19.4062 27.1276 19.2671 26.8053 18.9888 26.5332Z" fill="#32B7A7"/>
<path fill-rule="evenodd" clip-rule="evenodd" d="M34.5894 40.498C34.7798 39.8535 34.875 39.2161 34.875 38.5859C34.875 37.9414 34.8311 37.2682 34.7432 36.5664C34.6553 35.8646 34.5015 35.2129 34.2817 34.6113L30.6562 25.0078C30.5537 24.7643 30.4219 24.528 30.2607 24.2988C30.0996 24.0697 29.9165 23.8763 29.7114 23.7188V22.6445C28.7007 22.1146 27.7266 21.7207 26.7891 21.4629C25.8516 21.2051 24.8115 21.0762 23.6689 21.0762C23.127 21.0762 22.6509 21.1764 22.2407 21.377C21.8306 21.5775 21.3911 21.7852 20.9224 22L20.8784 22.043C20.7612 22.0716 20.6587 22.0859 20.5708 22.0859H15.4292C15.3413 22.0859 15.2388 22.0716 15.1216 22.043L15.0776 22C14.5942 21.7852 14.1475 21.5775 13.7373 21.377C13.3271 21.1764 12.8584 21.0762 12.3311 21.0762C11.1885 21.0762 10.1411 21.2051 9.18896 21.4629C8.23682 21.7207 7.27002 22.1146 6.28857 22.6445V23.7188C6.06885 23.8763 5.87842 24.0697 5.71729 24.2988C5.55615 24.528 5.43164 24.7572 5.34375 24.9863L1.71826 34.5898V34.6113C1.52783 35.2845 1.38135 35.9434 1.27881 36.5879C1.17627 37.2324 1.125 37.8984 1.125 38.5859C1.13965 39.2161 1.24219 39.8535 1.43262 40.498C1.62305 41.1426 1.90869 41.7227 2.28955 42.2383C2.67041 42.7539 3.13916 43.1764 3.6958 43.5059C4.25244 43.8353 4.89697 44 5.62939 44C5.92236 43.9857 6.22266 43.9355 6.53027 43.8496C6.83789 43.7637 7.10156 43.6204 7.32129 43.4199L12.1992 39.123C12.4775 38.8796 12.8291 38.7148 13.2539 38.6289C13.6787 38.543 14.0596 38.5 14.3965 38.5H21.6035C21.9551 38.5 22.3433 38.543 22.7681 38.6289C23.1929 38.7148 23.5371 38.8796 23.8008 39.123L28.6567 43.3984C28.8911 43.599 29.1621 43.7493 29.4697 43.8496C29.7773 43.9499 30.0776 44 30.3706 44C31.1177 44 31.7622 43.8353 32.3042 43.5059C32.8462 43.1764 33.3149 42.7539 33.7104 42.2383C34.106 41.7227 34.3989 41.1426 34.5894 40.498ZM31.9746 37.0391C32.0332 37.5977 32.0625 38.1133 32.0625 38.5859C32.0479 38.8294 32.0186 39.0944 31.9746 39.3809C31.9307 39.6673 31.8354 39.9538 31.689 40.2402C31.5425 40.5267 31.3667 40.763 31.1616 40.9492C30.9565 41.1354 30.7075 41.2357 30.4146 41.25L25.6465 37.0391C25.3975 36.7813 25.1045 36.5807 24.7676 36.4375C24.4307 36.2943 24.0864 36.1654 23.7349 36.0508C23.3833 35.9362 23.0244 35.8574 22.6582 35.8145C22.292 35.7715 21.9404 35.75 21.6035 35.75H14.3965C13.7227 35.7643 13.0122 35.8646 12.2651 36.0508C11.5181 36.237 10.8882 36.5592 10.3755 37.0176L5.58545 41.25C5.27783 41.2214 5.02148 41.1139 4.81641 40.9277C4.61133 40.7415 4.44287 40.5124 4.31104 40.2402C4.1792 39.9681 4.08398 39.6816 4.02539 39.3809C3.9668 39.0801 3.9375 38.8151 3.9375 38.5859C3.95215 38.099 3.98877 37.5833 4.04736 37.0391C4.10596 36.4948 4.21582 35.9935 4.37695 35.5352L7.9585 25.9961C7.98779 25.9102 8.05371 25.8457 8.15625 25.8027C8.25879 25.7598 8.36865 25.7025 8.48584 25.6309C8.60303 25.5592 8.72021 25.5091 8.8374 25.4805C8.95459 25.4518 9.04248 25.4232 9.10107 25.3945V24.3633C9.61377 24.1484 10.1411 24.0052 10.6831 23.9336C11.2251 23.862 11.7744 23.8262 12.3311 23.8262C12.4922 23.8405 12.668 23.8978 12.8584 23.998C13.0488 24.0983 13.2759 24.2129 13.5396 24.3418C13.8032 24.4707 14.0889 24.5853 14.3965 24.6855C14.7041 24.7858 15.0483 24.8359 15.4292 24.8359H20.5708C20.9663 24.8216 21.3179 24.7643 21.6255 24.6641C21.9331 24.5638 22.2188 24.4492 22.4824 24.3203C22.7461 24.1914 22.9731 24.0768 23.1636 23.9766C23.354 23.8763 23.5225 23.8262 23.6689 23.8262C24.2256 23.8405 24.7749 23.8835 25.3169 23.9551C25.8589 24.0267 26.3862 24.1628 26.8989 24.3633V25.3945C26.9575 25.4375 27.0454 25.4733 27.1626 25.502C27.2798 25.5306 27.397 25.5736 27.5142 25.6309C27.6313 25.6882 27.7412 25.7454 27.8438 25.8027C27.9463 25.86 28.0122 25.9245 28.0415 25.9961L31.623 35.5137C31.7988 35.972 31.916 36.4805 31.9746 37.0391ZM9.38672 4.4043C12.1113 3.30143 14.9824 2.75 18 2.75C21.0176 2.75 23.8887 3.30143 26.6133 4.4043C29.3379 5.50716 31.7695 7.10417 33.9082 9.19531L35.8857 7.26172C34.6992 6.08724 33.4175 5.05599 32.0405 4.16797C30.6636 3.27995 29.2134 2.52083 27.6899 1.89063C26.1665 1.26042 24.5918 0.78776 22.9658 0.472656C21.3398 0.157552 19.6846 0 18 0C16.3154 0.0143229 14.6602 0.179036 13.0342 0.494141C11.4082 0.809245 9.8335 1.27474 8.31006 1.89063C6.78662 2.50651 5.33643 3.26563 3.95947 4.16797C2.58252 5.07031 1.30078 6.10156 0.114258 7.26172L2.0918 9.19531C4.23047 7.10417 6.66211 5.50716 9.38672 4.4043ZM24.46 9.49609C22.4238 8.66536 20.2705 8.25 18 8.25C15.7148 8.25 13.5542 8.66536 11.5181 9.49609C9.48193 10.3268 7.66553 11.5228 6.06885 13.084L8.04639 15.0176C9.37939 13.7142 10.9028 12.7188 12.6167 12.0313C14.3306 11.3438 16.125 11 18 11C19.875 11 21.6694 11.3438 23.3833 12.0313C25.0972 12.7188 26.6206 13.7142 27.9536 15.0176L29.9312 13.084C28.3198 11.5228 26.4961 10.3268 24.46 9.49609Z" fill="#32B7A7"/>
</svg>
