<svg width="40" height="40" viewBox="0 0 40 40" fill="none" xmlns="http://www.w3.org/2000/svg">
<path d="M16.25 36.0352C16.25 37.0768 16.4583 38.0729 16.875 39.0234C16.9531 39.2057 17.0508 39.3685 17.168 39.5117C17.2852 39.6549 17.3958 39.8177 17.5 40H7.5V20H5V40H0V0H25V22.5586C24.7786 22.6237 24.5508 22.6628 24.3164 22.6758C24.082 22.6888 23.8477 22.7279 23.6133 22.793C23.0924 22.9232 22.6172 23.0599 22.1875 23.2031C21.7578 23.3464 21.3151 23.5742 20.8594 23.8867C20.5208 24.1341 20.2409 24.4271 20.0195 24.7656C19.7982 25.1042 19.6289 25.4753 19.5117 25.8789V25.8984L19.4922 25.9375C19.1797 26.4323 18.8672 27.0052 18.5547 27.6562C18.2422 28.3073 17.9492 28.9909 17.6758 29.707C17.4023 30.4232 17.1615 31.1263 16.9531 31.8164C16.7448 32.5065 16.5755 33.151 16.4453 33.75C16.3672 34.1276 16.3151 34.5052 16.2891 34.8828C16.263 35.2604 16.25 35.6445 16.25 36.0352ZM7.5 6.25C7.5 5.91146 7.3763 5.61849 7.12891 5.37109C6.88151 5.1237 6.58854 5 6.25 5C5.91146 5 5.61849 5.1237 5.37109 5.37109C5.1237 5.61849 5 5.91146 5 6.25C5 6.58854 5.1237 6.88151 5.37109 7.12891C5.61849 7.3763 5.91146 7.5 6.25 7.5C6.58854 7.5 6.88151 7.3763 7.12891 7.12891C7.3763 6.88151 7.5 6.58854 7.5 6.25ZM16.3281 34.6875L16.3086 34.8438V34.7656C16.3086 34.7396 16.3151 34.7135 16.3281 34.6875ZM40 35.9961C40 36.4388 39.9544 36.875 39.8633 37.3047C39.7721 37.7344 39.5964 38.138 39.3359 38.5156C39.0755 38.8932 38.724 39.2318 38.2812 39.5312C37.8385 39.8307 37.3698 39.987 36.875 40C36.4844 40 36.1068 39.8568 35.7422 39.5703C35.3776 39.2839 35.013 38.9453 34.6484 38.5547C34.2839 38.1641 33.9453 37.7734 33.6328 37.3828C33.3203 36.9922 33.0013 36.6927 32.6758 36.4844C32.4935 36.3672 32.2982 36.2956 32.0898 36.2695C31.8815 36.2435 31.6602 36.2305 31.4258 36.2305H27.3047C27.0833 36.2305 26.8685 36.2435 26.6602 36.2695C26.4518 36.2956 26.2565 36.3672 26.0742 36.4844C25.7747 36.6927 25.4622 36.9922 25.1367 37.3828C24.8112 37.7734 24.4661 38.1641 24.1016 38.5547C23.737 38.9453 23.3789 39.2839 23.0273 39.5703C22.6758 39.8568 22.2917 40 21.875 40C21.3932 40 20.931 39.8503 20.4883 39.5508C20.0456 39.2513 19.6875 38.9062 19.4141 38.5156C19.1667 38.138 18.9974 37.7409 18.9062 37.3242C18.8151 36.9076 18.763 36.4779 18.75 36.0352C18.75 35.7227 18.763 35.4102 18.7891 35.0977C18.8151 34.7852 18.8672 34.4792 18.9453 34.1797C18.9844 33.9583 19.0625 33.6523 19.1797 33.2617C19.2969 32.8711 19.4336 32.4284 19.5898 31.9336C19.7461 31.4388 19.9284 30.931 20.1367 30.4102C20.3451 29.8893 20.5469 29.3945 20.7422 28.9258C20.9375 28.457 21.1393 28.0404 21.3477 27.6758C21.556 27.3112 21.7318 27.0508 21.875 26.8945C21.875 26.6732 21.9271 26.4648 22.0312 26.2695C22.1354 26.0742 22.2852 25.918 22.4805 25.8008C22.6628 25.6836 22.9102 25.5794 23.2227 25.4883C23.5352 25.3971 23.8607 25.3125 24.1992 25.2344C24.5378 25.1562 24.8698 25.0977 25.1953 25.0586C25.5208 25.0195 25.7943 25 26.0156 25C26.3802 25 26.6927 25.0456 26.9531 25.1367C27.2135 25.2279 27.487 25.3906 27.7734 25.625C28.0339 25.612 28.3008 25.6055 28.5742 25.6055C28.8477 25.6055 29.1146 25.6055 29.375 25.6055H30.9766C31.1719 25.5143 31.3281 25.4297 31.4453 25.3516C31.5625 25.2734 31.6732 25.2083 31.7773 25.1562C31.8815 25.1042 32.0117 25.0651 32.168 25.0391C32.3242 25.013 32.513 25 32.7344 25C32.9427 25 33.2096 25.0195 33.5352 25.0586C33.8607 25.0977 34.1992 25.1497 34.5508 25.2148C34.9023 25.2799 35.2279 25.3646 35.5273 25.4688C35.8268 25.5729 36.0742 25.6836 36.2695 25.8008C36.4518 25.918 36.5951 26.0742 36.6992 26.2695C36.8034 26.4648 36.862 26.6732 36.875 26.8945C37.0312 27.0508 37.207 27.3112 37.4023 27.6758C37.5977 28.0404 37.7995 28.4505 38.0078 28.9062C38.2161 29.362 38.418 29.8568 38.6133 30.3906C38.8086 30.9245 38.9909 31.4323 39.1602 31.9141C39.3294 32.3958 39.4727 32.8385 39.5898 33.2422C39.707 33.6458 39.7852 33.9583 39.8242 34.1797C39.9414 34.7917 40 35.3971 40 35.9961ZM29.375 30.6055C29.7135 30.6055 30.0065 30.4818 30.2539 30.2344C30.5013 29.987 30.625 29.694 30.625 29.3555C30.625 29.0169 30.5013 28.724 30.2539 28.4766C30.0065 28.2292 29.7135 28.1055 29.375 28.1055C29.0365 28.1055 28.7435 28.2292 28.4961 28.4766C28.2487 28.724 28.125 29.0169 28.125 29.3555C28.125 29.694 28.2487 29.987 28.4961 30.2344C28.7435 30.4818 29.0365 30.6055 29.375 30.6055Z" fill="#32B7A7"/>
</svg>
