<svg width="40" height="40" viewBox="0 0 40 40" fill="none" xmlns="http://www.w3.org/2000/svg">
<path d="M35 22.5H40V40H22.5V35H21.25C20.7292 35 20.2409 34.9023 19.7852 34.707C19.3294 34.5117 18.9323 34.2448 18.5938 33.9062C18.2552 33.5677 17.9883 33.1641 17.793 32.6953C17.5977 32.2266 17.5 31.7383 17.5 31.2305C17.5 30.8659 17.5521 30.5078 17.6562 30.1562C17.7604 29.8047 17.9167 29.4792 18.125 29.1797C18.3333 28.8802 18.5742 28.6068 18.8477 28.3594C19.1211 28.112 19.4336 27.9232 19.7852 27.793C20.1107 27.6628 20.4427 27.5846 20.7812 27.5586C21.1198 27.5326 21.4648 27.513 21.8164 27.5H22.5V22.5H27.5V23.3203C27.5 23.6458 27.513 23.9648 27.5391 24.2773C27.5651 24.5898 27.6497 24.9023 27.793 25.2148C27.9362 25.5534 28.125 25.8594 28.3594 26.1328C28.5938 26.4062 28.8542 26.6471 29.1406 26.8555C29.4271 27.0638 29.7461 27.2201 30.0977 27.3242C30.4492 27.4284 30.8073 27.487 31.1719 27.5C32.0312 27.5 32.7669 27.2786 33.3789 26.8359C33.9909 26.3932 34.4661 25.7812 34.8047 25C34.8958 24.8047 34.9544 24.5703 34.9805 24.2969C35.0065 24.0234 35.0195 23.75 35.0195 23.4766V22.9688C35.0195 22.8125 35.013 22.6562 35 22.5ZM5.15625 35.0781C4.34896 35.0781 3.6263 34.8893 2.98828 34.5117C2.35026 34.1341 1.8099 33.6458 1.36719 33.0469C0.924479 32.4479 0.585938 31.7773 0.351562 31.0352C0.117188 30.293 0 29.5508 0 28.8086C0 28.0013 0.0455729 27.194 0.136719 26.3867C0.227865 25.5794 0.416667 24.7852 0.703125 24.0039L0.722656 23.9844L5.27344 12.0703V12.0312C5.40365 11.7057 5.5599 11.4323 5.74219 11.2109C5.92448 10.9896 6.15885 10.7682 6.44531 10.5469V9.25781C7.05729 8.95833 7.64323 8.69792 8.20312 8.47656C8.76302 8.25521 9.32292 8.07292 9.88281 7.92969C10.4427 7.78646 11.0221 7.68229 11.6211 7.61719C12.2201 7.55208 12.8646 7.51302 13.5547 7.5C13.9974 7.5 14.3945 7.5651 14.7461 7.69531C15.0977 7.82552 15.4297 7.96875 15.7422 8.125C16.0547 8.28125 16.3477 8.42448 16.6211 8.55469C16.8945 8.6849 17.1615 8.75 17.4219 8.75H23.8672C24.1276 8.75 24.3945 8.6849 24.668 8.55469C24.9414 8.42448 25.2344 8.28125 25.5469 8.125C25.8594 7.96875 26.1914 7.82552 26.543 7.69531C26.8945 7.5651 27.2917 7.5 27.7344 7.5C28.4115 7.5 29.0495 7.53255 29.6484 7.59766C30.2474 7.66276 30.8268 7.77344 31.3867 7.92969C31.9466 8.08594 32.513 8.27474 33.0859 8.49609C33.6589 8.71745 34.2448 8.97135 34.8438 9.25781V10.5469C35.1042 10.7292 35.3451 10.9635 35.5664 11.25C35.7878 11.5365 35.957 11.8294 36.0742 12.1289L39.043 19.9414H32.5V23.75C32.5 24.1016 32.3828 24.3945 32.1484 24.6289C31.9141 24.8633 31.6146 24.987 31.25 25C30.8984 25 30.6055 24.8828 30.3711 24.6484C30.1367 24.4141 30.013 24.1146 30 23.75V20H20V25L19.1016 25.0391C18.3984 25.0651 17.7799 25.1758 17.2461 25.3711C16.7122 25.5664 16.2174 25.8203 15.7617 26.1328C15.306 26.4453 14.8698 26.8034 14.4531 27.207C14.0365 27.6107 13.5938 28.0404 13.125 28.4961L6.99219 34.4531C6.77083 34.6745 6.48438 34.8307 6.13281 34.9219C5.78125 35.013 5.45573 35.0651 5.15625 35.0781ZM19.3555 15.0195C19.3555 15.3581 19.4857 15.651 19.7461 15.8984C20.0065 16.1458 20.306 16.2695 20.6445 16.2695C20.9831 16.2695 21.2826 16.1523 21.543 15.918C21.8034 15.6836 21.9336 15.3841 21.9336 15.0195C21.9336 14.668 21.8034 14.375 21.543 14.1406C21.2826 13.9062 20.9831 13.7826 20.6445 13.7695C20.306 13.7695 20.0065 13.8932 19.7461 14.1406C19.4857 14.388 19.3555 14.681 19.3555 15.0195Z" fill="#32B7A7"/>
</svg>
