<svg width="34" height="34" viewBox="0 0 34 34" fill="none" xmlns="http://www.w3.org/2000/svg">
<mask id="mask0_11_166" style="mask-type:alpha" maskUnits="userSpaceOnUse" x="1" y="1" width="32" height="32">
<path d="M7.15593 27.7497L1.9753 23.864C1.81377 23.744 1.68269 23.5878 1.59267 23.4077C1.50264 23.2277 1.45618 23.0291 1.45704 22.828V11.1708C1.45618 10.9695 1.50264 10.7709 1.59267 10.591C1.68269 10.411 1.81377 10.2547 1.9753 10.1347L7.15593 6.24902C7.01676 6.3797 6.91159 6.54238 6.84954 6.72293C6.78749 6.90348 6.77046 7.09643 6.7999 7.28505V26.7136C6.77046 26.9023 6.78749 27.0952 6.84954 27.2758C6.91159 27.4564 7.01676 27.619 7.15593 27.7497Z" fill="white"/>
<path d="M31.9665 6.85187C31.753 6.71165 31.503 6.63733 31.2476 6.63816C31.0822 6.63682 30.918 6.66814 30.7647 6.73033C30.6113 6.7925 30.4717 6.88432 30.3539 7.0005L30.2635 7.09133L19.9275 16.9999L14.2088 22.4852L8.91789 27.5559L8.82708 27.6468C8.70937 27.7631 8.56981 27.855 8.41644 27.9174C8.26305 27.9796 8.09888 28.0109 7.93335 28.0095C7.65314 28.009 7.3806 27.9181 7.15622 27.7502L1.97559 23.8645C2.2388 24.0622 2.56745 24.1522 2.89466 24.1161C3.22187 24.08 3.52301 23.9206 3.73679 23.6702L9.48765 16.9936L14.2088 11.5147L22.4791 1.9102C22.5991 1.76797 22.7488 1.65371 22.9178 1.57543C23.0867 1.49715 23.2706 1.45674 23.4568 1.45704C23.7123 1.45621 23.9622 1.53054 24.1756 1.67075L31.9665 6.85187Z" fill="white"/>
<path d="M31.9665 27.148L24.1951 32.329C23.9307 32.5017 23.6129 32.5732 23.3 32.5304C22.9873 32.4876 22.7004 32.3333 22.4921 32.096L14.2088 22.4852L9.48765 16.9937L3.73679 10.3228C3.52111 10.0751 3.21969 9.918 2.893 9.88323C2.56634 9.84845 2.2386 9.93854 1.97559 10.1354L7.15622 6.24967C7.3806 6.08181 7.65314 5.99084 7.93335 5.99028C8.09888 5.98889 8.26305 6.02023 8.41644 6.08248C8.56981 6.14476 8.70937 6.23673 8.82708 6.35311L8.91789 6.44394L14.2088 11.5148L19.9275 17L30.2635 26.9086L30.3539 26.9993C30.4717 27.1156 30.6113 27.2074 30.7647 27.2696C30.918 27.3317 31.0822 27.3631 31.2476 27.3617C31.503 27.3626 31.753 27.2882 31.9665 27.148Z" fill="white"/>
<path d="M32.5433 7.93321V26.0669C32.5435 26.2806 32.491 26.4911 32.3904 26.6796C32.2898 26.8683 32.1443 27.0291 31.9667 27.1481L24.1953 32.3291C24.3729 32.2102 24.5184 32.0492 24.619 31.8605C24.7194 31.6718 24.7719 31.4613 24.7717 31.2474V2.75258C24.7689 2.5372 24.7131 2.32585 24.6091 2.1372C24.5052 1.94854 24.3564 1.78839 24.1758 1.6709L31.9667 6.85201C32.1438 6.9714 32.2891 7.13238 32.3895 7.32086C32.4901 7.50936 32.5428 7.71959 32.5433 7.93321Z" fill="white"/>
</mask>
<g mask="url(#mask0_11_166)">
<path d="M7.15593 27.7507L1.9753 23.865C1.81377 23.745 1.68269 23.5886 1.59267 23.4087C1.50264 23.2287 1.45618 23.0301 1.45704 22.8289V11.1718C1.45618 10.9705 1.50264 10.7719 1.59267 10.592C1.68269 10.412 1.81377 10.2557 1.9753 10.1357L7.15593 6.25C7.01676 6.38068 6.91159 6.54335 6.84954 6.7239C6.78749 6.90446 6.77046 7.09741 6.7999 7.28603V26.7146C6.77046 26.9033 6.78749 27.0962 6.84954 27.2768C6.91159 27.4573 7.01676 27.6199 7.15593 27.7507Z" fill="#5E438F"/>
<g filter="url(#filter0_dd_11_166)">
<path d="M31.9664 6.85187C31.7531 6.71165 31.5031 6.63733 31.2477 6.63816C31.0822 6.63682 30.9181 6.66814 30.7646 6.73033C30.6114 6.7925 30.4718 6.88432 30.354 7.0005L30.2636 7.09133L24.7584 12.3696L19.9276 16.9999L14.2088 22.4852L8.91789 27.5559L8.82708 27.6468C8.70937 27.7631 8.56981 27.855 8.41644 27.9174C8.26305 27.9796 8.09888 28.0109 7.93336 28.0095C7.65315 28.009 7.3806 27.9181 7.15622 27.7502L1.97559 23.8645C2.23878 24.0622 2.56745 24.1522 2.89466 24.1161C3.22187 24.08 3.52301 23.9206 3.73679 23.6702L6.63845 20.3028L9.48765 16.9936L14.2088 11.5147L22.479 1.9102C22.5992 1.76797 22.7489 1.65371 22.9178 1.57543C23.0866 1.49715 23.2707 1.45674 23.4567 1.45704C23.7122 1.45621 23.9622 1.53054 24.1757 1.67075L31.9664 6.85187Z" fill="url(#paint0_linear_11_166)"/>
</g>
<g filter="url(#filter1_dd_11_166)">
<path d="M31.9664 27.148L24.195 32.3292C23.9308 32.5018 23.613 32.5732 23.3001 32.5304C22.9873 32.4875 22.7005 32.3334 22.4922 32.0959L14.2088 22.4852L9.48765 16.9937L6.63845 13.6908L3.73679 10.3228C3.52111 10.075 3.21967 9.918 2.893 9.88321C2.56634 9.84843 2.2386 9.93853 1.97559 10.1354L7.15622 6.24965C7.3806 6.0818 7.65315 5.99083 7.93336 5.99028C8.09888 5.98887 8.26305 6.02021 8.41644 6.08248C8.56981 6.14474 8.70937 6.23672 8.82708 6.35311L8.91789 6.44392L14.2088 11.5148L19.9276 17L24.7653 21.6371L30.2636 26.9085L30.354 26.9994C30.4718 27.1155 30.6114 27.2073 30.7646 27.2695C30.9181 27.3317 31.0822 27.3631 31.2477 27.3616C31.5031 27.3625 31.7531 27.2882 31.9664 27.148Z" fill="url(#paint1_linear_11_166)"/>
</g>
<g filter="url(#filter2_dd_11_166)">
<path d="M32.5433 7.93321V26.0668C32.5435 26.2807 32.491 26.491 32.3904 26.6797C32.2898 26.8682 32.1443 27.0292 31.9667 27.1481L24.1952 32.3292C24.3729 32.2102 24.5184 32.0492 24.6188 31.8606C24.7194 31.6719 24.7719 31.4614 24.7717 31.2475V2.75258C24.7689 2.53722 24.7131 2.32585 24.6091 2.1372C24.5052 1.94854 24.3564 1.78839 24.1758 1.6709L31.9667 6.85201C32.1438 6.9714 32.2889 7.13238 32.3895 7.32087C32.4899 7.50935 32.5428 7.71961 32.5433 7.93321Z" fill="url(#paint2_linear_11_166)"/>
</g>
</g>
<defs>
<filter id="filter0_dd_11_166" x="-3.20537" y="-2.42869" width="40.3531" height="36.9147" filterUnits="userSpaceOnUse" color-interpolation-filters="sRGB">
<feFlood flood-opacity="0" result="BackgroundImageFix"/>
<feColorMatrix in="SourceAlpha" type="matrix" values="0 0 0 0 0 0 0 0 0 0 0 0 0 0 0 0 0 0 127 0" result="hardAlpha"/>
<feOffset dy="0.246095"/>
<feGaussianBlur stdDeviation="0.246095"/>
<feColorMatrix type="matrix" values="0 0 0 0 0 0 0 0 0 0 0 0 0 0 0 0 0 0 0.24 0"/>
<feBlend mode="normal" in2="BackgroundImageFix" result="effect1_dropShadow_11_166"/>
<feColorMatrix in="SourceAlpha" type="matrix" values="0 0 0 0 0 0 0 0 0 0 0 0 0 0 0 0 0 0 127 0" result="hardAlpha"/>
<feOffset dy="1.29524"/>
<feGaussianBlur stdDeviation="2.59048"/>
<feColorMatrix type="matrix" values="0 0 0 0 0 0 0 0 0 0 0 0 0 0 0 0 0 0 0.22 0"/>
<feBlend mode="normal" in2="effect1_dropShadow_11_166" result="effect2_dropShadow_11_166"/>
<feBlend mode="normal" in="SourceGraphic" in2="effect2_dropShadow_11_166" result="shape"/>
</filter>
<filter id="filter1_dd_11_166" x="-3.20537" y="2.10451" width="40.3531" height="36.9137" filterUnits="userSpaceOnUse" color-interpolation-filters="sRGB">
<feFlood flood-opacity="0" result="BackgroundImageFix"/>
<feColorMatrix in="SourceAlpha" type="matrix" values="0 0 0 0 0 0 0 0 0 0 0 0 0 0 0 0 0 0 127 0" result="hardAlpha"/>
<feOffset dy="0.246095"/>
<feGaussianBlur stdDeviation="0.246095"/>
<feColorMatrix type="matrix" values="0 0 0 0 0 0 0 0 0 0 0 0 0 0 0 0 0 0 0.24 0"/>
<feBlend mode="normal" in2="BackgroundImageFix" result="effect1_dropShadow_11_166"/>
<feColorMatrix in="SourceAlpha" type="matrix" values="0 0 0 0 0 0 0 0 0 0 0 0 0 0 0 0 0 0 127 0" result="hardAlpha"/>
<feOffset dy="1.29524"/>
<feGaussianBlur stdDeviation="2.59048"/>
<feColorMatrix type="matrix" values="0 0 0 0 0 0 0 0 0 0 0 0 0 0 0 0 0 0 0.22 0"/>
<feBlend mode="normal" in2="effect1_dropShadow_11_166" result="effect2_dropShadow_11_166"/>
<feBlend mode="normal" in="SourceGraphic" in2="effect2_dropShadow_11_166" result="shape"/>
</filter>
<filter id="filter2_dd_11_166" x="8.63292" y="-13.872" width="39.4529" height="61.7439" filterUnits="userSpaceOnUse" color-interpolation-filters="sRGB">
<feFlood flood-opacity="0" result="BackgroundImageFix"/>
<feColorMatrix in="SourceAlpha" type="matrix" values="0 0 0 0 0 0 0 0 0 0 0 0 0 0 0 0 0 0 127 0" result="hardAlpha"/>
<feOffset/>
<feGaussianBlur stdDeviation="0.129524"/>
<feColorMatrix type="matrix" values="0 0 0 0 0 0 0 0 0 0 0 0 0 0 0 0 0 0 0.24 0"/>
<feBlend mode="normal" in2="BackgroundImageFix" result="effect1_dropShadow_11_166"/>
<feColorMatrix in="SourceAlpha" type="matrix" values="0 0 0 0 0 0 0 0 0 0 0 0 0 0 0 0 0 0 127 0" result="hardAlpha"/>
<feOffset/>
<feGaussianBlur stdDeviation="7.77143"/>
<feColorMatrix type="matrix" values="0 0 0 0 0 0 0 0 0 0 0 0 0 0 0 0 0 0 0.3 0"/>
<feBlend mode="normal" in2="effect1_dropShadow_11_166" result="effect2_dropShadow_11_166"/>
<feBlend mode="normal" in="SourceGraphic" in2="effect2_dropShadow_11_166" result="shape"/>
</filter>
<linearGradient id="paint0_linear_11_166" x1="26.7144" y1="1.45703" x2="3.63176" y2="24.6892" gradientUnits="userSpaceOnUse">
<stop stop-color="#7252AA"/>
<stop offset="1" stop-color="#7252AA"/>
</linearGradient>
<linearGradient id="paint1_linear_11_166" x1="4.37172" y1="7.12355" x2="26.0668" y2="31.4091" gradientUnits="userSpaceOnUse">
<stop stop-color="#AE7FE2"/>
<stop offset="1" stop-color="#9A70D4"/>
</linearGradient>
<linearGradient id="paint2_linear_11_166" x1="28.2674" y1="1.04578" x2="28.2674" y2="32.3031" gradientUnits="userSpaceOnUse">
<stop stop-color="#D59DFF"/>
<stop offset="1" stop-color="#C18EF1"/>
</linearGradient>
</defs>
</svg>
