<?xml version="1.0" encoding="UTF-8"?>
<svg width="20px" height="20px" viewBox="0 0 20 20" version="1.1" xmlns="http://www.w3.org/2000/svg" xmlns:xlink="http://www.w3.org/1999/xlink">
    <title>Shape Copy</title>
    <g id="Kevin" stroke="none" stroke-width="1" fill="none" fill-rule="evenodd">
        <g id="Mainstreet-Desktop-P" transform="translate(-974.000000, -6714.000000)" fill="#107C10" fill-rule="nonzero">
            <path d="M981.463476,6719.30768 C981.182971,6719.64705 980.865065,6720.05686 980.509759,6720.53711 C980.154453,6721.01735 979.792913,6721.54242 979.42514,6722.11231 C979.057367,6722.68221 978.692711,6723.27131 978.331171,6723.87962 C977.969631,6724.48793 977.651726,6725.09304 977.377454,6725.69495 C977.103183,6726.29686 976.878779,6726.87315 976.704243,6727.42383 C976.529706,6727.97451 976.442438,6728.47397 976.442438,6728.9222 C976.442438,6729.16552 976.473605,6729.39284 976.53594,6729.60415 L976.52659,6729.65217 C976.501656,6729.65217 976.482955,6729.64577 976.470489,6729.63296 C976.152583,6729.22315 975.872078,6728.78133 975.628974,6728.30749 C975.38587,6727.83364 975.183283,6727.34059 975.021213,6726.82833 C974.859144,6726.31607 974.734475,6725.7942 974.647207,6725.26273 C974.559938,6724.73125 974.516304,6724.20298 974.516304,6723.67792 C974.516304,6723.03759 974.578639,6722.39726 974.703308,6721.75693 C974.827976,6721.1166 975.011863,6720.49228 975.254967,6719.88397 C975.498072,6719.27566 975.797277,6718.69937 976.152583,6718.15509 C976.507889,6717.61081 976.913063,6717.11776 977.368104,6716.67593 C977.393038,6716.65032 977.439789,6716.63431 977.508357,6716.62791 C977.576925,6716.6215 977.623675,6716.6151 977.648609,6716.6087 C977.841846,6716.6087 978.050666,6716.65672 978.27507,6716.75277 C978.499474,6716.84882 978.736345,6716.97368 978.985683,6717.12736 C979.23502,6717.28104 979.478125,6717.45393 979.714995,6717.64603 C979.951866,6717.83813 980.182504,6718.03022 980.406907,6718.22232 C980.631311,6718.41442 980.830782,6718.60332 981.005318,6718.78901 C981.179854,6718.97471 981.332574,6719.12518 981.463476,6719.24044 L981.472826,6719.27886 L981.463476,6719.30768 Z M977.081522,6716.61522 L977.181522,6716.61522 L977.081522,6716.61522 Z M990.994565,6716.61522 L991.094565,6716.61522 L990.994565,6716.61522 Z M990.505084,6716.60926 C990.536251,6716.60926 990.583002,6716.61246 990.645337,6716.61887 C990.707671,6716.62527 990.757539,6716.64448 990.794939,6716.67649 C991.249981,6717.1183 991.655154,6717.61133 992.01046,6718.15559 C992.365767,6718.69984 992.664972,6719.27291 992.908076,6719.87479 C993.15118,6720.47667 993.335067,6721.10097 993.459736,6721.74767 C993.584405,6722.39437 993.646739,6723.03787 993.646739,6723.67817 C993.646739,6724.20322 993.606222,6724.73147 993.525187,6725.26292 C993.444152,6725.79437 993.319483,6726.31301 993.15118,6726.81885 C992.982878,6727.32468 992.777174,6727.81771 992.53407,6728.29794 C992.290965,6728.77816 992.01046,6729.22317 991.692555,6729.63296 C991.680088,6729.64577 991.661388,6729.65217 991.636454,6729.65217 L991.627104,6729.60415 C991.689438,6729.39285 991.720605,6729.16555 991.720605,6728.92223 C991.720605,6728.48042 991.636454,6727.98419 991.468151,6727.43353 C991.299848,6726.88288 991.075444,6726.30661 990.794939,6725.70472 C990.514434,6725.10284 990.196529,6724.49456 989.841223,6723.87987 C989.485916,6723.26518 989.12126,6722.6761 988.747253,6722.11264 C988.373247,6721.54918 988.00859,6721.02413 987.653284,6720.5375 C987.297978,6720.05087 986.980072,6719.63788 986.699568,6719.29852 L986.690217,6719.26971 L986.699568,6719.2601 L986.708918,6719.24089 C986.827353,6719.11924 986.976956,6718.96877 987.157726,6718.78948 C987.338495,6718.6102 987.541082,6718.42451 987.765486,6718.23242 C987.98989,6718.04033 988.217411,6717.84504 988.448048,6717.64655 C988.678686,6717.44805 988.918673,6717.27517 989.168011,6717.1279 C989.417348,6716.98063 989.651103,6716.85578 989.869273,6716.75333 C990.087444,6716.65088 990.299381,6716.60286 990.505084,6716.60926 Z M978.86413,6715.34309 L978.883598,6715.30004 C979.69476,6714.86957 980.528634,6714.54527 981.385221,6714.32716 C982.241807,6714.10905 983.143819,6714 984.091256,6714 C985.038692,6714 985.937459,6714.10618 986.787557,6714.31855 C987.637654,6714.53092 988.468284,6714.85522 989.279445,6715.29143 L989.298913,6715.33448 L989.250243,6715.34309 C989.049075,6715.30291 988.828439,6715.28282 988.588335,6715.28282 C988.224935,6715.28282 987.848556,6715.32013 987.459199,6715.39475 C987.069841,6715.46936 986.677239,6715.57268 986.281392,6715.70469 C985.885545,6715.83671 985.505921,6715.97733 985.142521,6716.12656 C984.779121,6716.27579 984.435188,6716.43363 984.110724,6716.60009 L984.091256,6716.6087 L984.071788,6716.60009 C983.760302,6716.44511 983.419614,6716.29014 983.049724,6716.13517 C982.679835,6715.9802 982.300211,6715.83958 981.910853,6715.7133 C981.521496,6715.58703 981.132138,6715.48371 980.742781,6715.40336 C980.353423,6715.323 979.977044,6715.28282 979.613644,6715.28282 C979.496836,6715.28282 979.380029,6715.28569 979.263222,6715.29143 C979.146415,6715.29717 979.029607,6715.31726 978.9128,6715.3517 L978.86413,6715.34309 Z M977.131522,6731.44783 L977.131522,6731.34783 L977.131522,6731.44783 Z M984.111166,6721.84593 C984.354908,6722.03114 984.638175,6722.26264 984.960968,6722.54045 C985.283762,6722.81826 985.632905,6723.13575 986.008399,6723.49293 C986.383893,6723.85011 986.762681,6724.22714 987.144763,6724.624 C987.526845,6725.02087 987.908926,6725.43758 988.291008,6725.87414 C988.67309,6726.31069 989.025527,6726.74394 989.34832,6727.17388 C989.671113,6727.60382 989.964262,6728.02714 990.227767,6728.44385 C990.491271,6728.86056 990.6889,6729.25743 990.820652,6729.63446 C990.952404,6730.01148 991.024868,6730.36205 991.038043,6730.68616 C991.038043,6730.83829 991.014987,6730.9805 990.968874,6731.11279 C990.92276,6731.24508 990.847003,6731.37075 990.741601,6731.48981 C990.603261,6731.62872 990.445158,6731.76431 990.267292,6731.8966 C990.089427,6732.02889 989.918149,6732.15126 989.753458,6732.2637 C988.910244,6732.83255 988.00774,6733.26249 987.045949,6733.55352 C986.084157,6733.84456 985.096014,6733.99339 984.081522,6734 C983.067029,6734 982.078887,6733.85448 981.117095,6733.56345 C980.155303,6733.27241 979.2528,6732.83916 978.409585,6732.2637 C978.244895,6732.15126 978.073617,6732.02889 977.895751,6731.8966 C977.717885,6731.76431 977.559783,6731.62872 977.421443,6731.48981 C977.316041,6731.37737 977.240283,6731.255 977.19417,6731.12271 C977.148057,6730.99042 977.125,6730.8449 977.125,6730.68616 C977.125,6730.36866 977.197464,6730.0214 977.342391,6729.64438 C977.487319,6729.26735 977.684947,6728.87049 977.935277,6728.45378 C978.185606,6728.03706 978.475461,6727.61043 978.804842,6727.17388 C979.134223,6726.73732 979.48666,6726.30408 979.862154,6725.87414 C980.237648,6725.4442 980.61973,6725.02749 981.008399,6724.624 C981.397069,6724.22052 981.77915,6723.8435 982.154644,6723.49293 C982.530138,6723.14236 982.875988,6722.82818 983.192194,6722.55037 C983.508399,6722.27256 983.79496,6722.03775 984.051877,6721.84593 L984.081522,6721.82609 L984.111166,6721.84593 Z" id="Shape-Copy"></path>
        </g>
    </g>
</svg>